<?xml version="1.0" standalone="no"?>
<!DOCTYPE svg PUBLIC "-//W3C//DTD SVG 20010904//EN"
 "http://www.w3.org/TR/2001/REC-SVG-20010904/DTD/svg10.dtd">
<svg version="1.0" xmlns="http://www.w3.org/2000/svg"
 width="896.000000pt" height="896.000000pt" viewBox="0 0 896.000000 896.000000"
 preserveAspectRatio="xMidYMid meet">
<metadata>
Created by potrace 1.11, written by Peter Selinger 2001-2013
</metadata>
<g transform="translate(0.000000,896.000000) scale(0.100000,-0.100000)"
fill="#000000" stroke="none">
<path d="M1068 8951 c11 -6 9 -9 -6 -13 -17 -5 -20 -14 -20 -54 1 -27 6 -55
12 -63 8 -11 8 -13 0 -8 -16 9 -16 -292 0 -312 8 -11 8 -13 0 -8 -16 9 -16
-292 0 -312 8 -11 8 -13 0 -8 -16 9 -16 -292 0 -312 8 -11 8 -13 0 -8 -16 9
-15 -172 0 -192 8 -11 8 -13 0 -8 -15 9 -16 -53 -1 -72 8 -10 8 -13 1 -8 -16
9 -15 -172 0 -192 8 -11 8 -13 0 -8 -16 9 -15 -172 0 -192 8 -11 8 -13 0 -8
-15 9 -16 -53 -1 -72 8 -10 8 -13 1 -8 -16 9 -16 -93 0 -112 8 -11 8 -13 0 -8
-16 9 -15 -132 0 -152 8 -11 8 -13 0 -8 -16 9 -16 -93 0 -112 8 -11 8 -13 0
-8 -15 9 -16 -53 -1 -72 8 -10 8 -13 1 -8 -16 9 -15 -172 0 -192 8 -11 8 -13
0 -8 -16 9 -15 -172 0 -192 8 -11 8 -13 0 -8 -15 9 -16 -53 -1 -72 8 -10 8
-13 1 -8 -16 9 -16 -93 0 -112 8 -11 8 -13 0 -8 -16 9 -15 -132 0 -152 8 -11
8 -13 0 -8 -16 9 -16 -93 0 -112 8 -11 8 -13 0 -8 -15 9 -16 -53 -1 -72 8 -10
8 -13 1 -8 -16 9 -15 -172 0 -192 8 -11 8 -13 0 -8 -16 9 -15 -172 0 -192 8
-11 8 -13 0 -8 -15 9 -16 -53 -1 -72 8 -10 8 -13 1 -8 -16 9 -15 -172 0 -192
8 -11 8 -13 0 -8 -16 9 -16 -292 0 -312 8 -11 8 -13 0 -8 -16 9 -16 -292 0
-312 8 -11 8 -13 0 -8 -16 9 -16 -292 0 -312 8 -11 8 -13 0 -8 -16 9 -15 -172
0 -192 8 -11 8 -13 0 -8 -15 9 -16 -53 -1 -72 8 -10 8 -13 1 -8 -16 9 -15
-172 0 -192 8 -11 8 -13 0 -8 -16 9 -15 -172 0 -192 8 -11 8 -13 0 -8 -15 9
-16 -53 -1 -72 8 -10 8 -13 1 -8 -16 9 -16 -93 0 -112 8 -11 8 -13 0 -8 -16 9
-15 -132 0 -152 8 -11 8 -13 0 -8 -16 9 -16 -93 0 -112 8 -11 8 -13 0 -8 -15
9 -16 -53 -1 -72 8 -10 8 -13 1 -8 -16 9 -15 -172 0 -192 8 -11 8 -13 0 -8
-16 9 -15 -172 0 -192 8 -11 8 -13 0 -8 -15 9 -16 -53 -1 -72 8 -10 8 -13 1
-8 -16 9 -16 -93 0 -112 8 -11 8 -13 0 -8 -16 9 -15 -132 0 -152 8 -11 8 -13
0 -8 -16 9 -16 -93 0 -112 8 -11 8 -13 0 -8 -15 9 -16 -53 -1 -72 8 -10 8 -13
1 -8 -16 9 -15 -172 0 -192 8 -11 8 -13 0 -8 -16 9 -15 -172 0 -192 8 -11 8
-13 0 -8 -15 9 -16 -53 -1 -72 8 -10 8 -13 1 -8 -16 9 -15 -172 0 -192 8 -11
8 -13 0 -8 -16 9 -16 -292 0 -312 8 -11 8 -13 0 -8 -16 9 -16 -292 0 -312 8
-11 8 -13 0 -8 -16 9 -16 -292 0 -312 8 -11 8 -13 0 -8 -8 5 -12 -19 -11 -83
l1 -90 3438 0 3438 0 0 4477 c0 3259 -3 4474 -11 4466 -7 -7 -21 -8 -40 -3
-20 6 -29 5 -29 -3 0 -9 -2 -9 -8 0 -7 12 -36 12 -47 1 -4 -3 -20 -2 -36 2
-20 6 -29 5 -29 -3 0 -9 -2 -9 -8 0 -7 12 -36 12 -47 1 -4 -3 -20 -2 -36 2
-20 6 -29 5 -29 -3 0 -9 -2 -9 -8 0 -7 12 -36 12 -47 1 -4 -3 -20 -2 -36 2
-20 6 -29 5 -29 -3 0 -9 -2 -9 -8 0 -7 12 -36 12 -47 1 -4 -3 -20 -2 -36 2
-20 6 -29 5 -29 -3 0 -9 -2 -9 -8 0 -7 12 -36 12 -47 1 -4 -3 -20 -2 -36 2
-20 6 -29 5 -29 -3 0 -9 -2 -9 -8 0 -7 12 -36 12 -47 1 -4 -3 -20 -2 -36 2
-20 6 -29 5 -29 -3 0 -9 -2 -9 -8 0 -7 12 -36 12 -47 1 -4 -3 -20 -2 -36 2
-20 6 -29 5 -29 -3 0 -9 -2 -9 -8 0 -7 12 -36 12 -47 1 -4 -3 -20 -2 -36 2
-20 6 -29 5 -29 -3 0 -9 -2 -9 -8 0 -7 12 -36 12 -47 1 -4 -3 -20 -2 -36 2
-20 6 -29 5 -29 -3 0 -9 -2 -9 -8 0 -7 12 -36 12 -47 1 -4 -3 -20 -2 -36 2
-20 6 -29 5 -29 -3 0 -9 -2 -9 -8 0 -7 12 -36 12 -47 1 -4 -3 -20 -2 -36 2
-20 6 -29 5 -29 -3 0 -9 -2 -9 -8 0 -7 12 -36 12 -47 1 -4 -3 -20 -2 -36 2
-20 6 -29 5 -29 -3 0 -9 -2 -9 -8 0 -7 12 -36 12 -47 1 -4 -3 -20 -2 -36 2
-20 6 -29 5 -29 -3 0 -9 -2 -9 -8 0 -7 12 -36 12 -47 1 -4 -3 -20 -2 -36 2
-20 6 -29 5 -29 -3 0 -9 -2 -9 -8 0 -7 12 -36 12 -47 1 -4 -3 -20 -2 -36 2
-20 6 -29 5 -29 -3 0 -9 -2 -9 -8 0 -7 12 -36 12 -47 1 -4 -3 -20 -2 -36 2
-20 6 -29 5 -29 -3 0 -9 -2 -9 -8 0 -7 12 -36 12 -47 1 -4 -3 -20 -2 -36 2
-20 6 -29 5 -29 -3 0 -9 -2 -9 -8 0 -7 12 -36 12 -47 1 -4 -3 -20 -2 -36 2
-20 6 -29 5 -29 -3 0 -9 -2 -9 -8 0 -7 12 -36 12 -47 1 -4 -3 -20 -2 -36 2
-20 6 -29 5 -29 -3 0 -9 -2 -9 -8 0 -7 12 -36 12 -47 1 -4 -3 -20 -2 -36 2
-20 6 -29 5 -29 -3 0 -9 -2 -9 -8 0 -7 12 -36 12 -47 1 -4 -3 -20 -2 -36 2
-20 6 -29 5 -29 -3 0 -9 -2 -9 -8 0 -7 12 -36 12 -47 1 -4 -3 -20 -2 -36 2
-20 6 -29 5 -29 -3 0 -9 -2 -9 -8 0 -7 12 -36 12 -47 1 -4 -3 -20 -2 -36 2
-20 6 -29 5 -29 -3 0 -9 -2 -9 -8 0 -7 12 -36 12 -47 1 -4 -3 -20 -2 -36 2
-20 6 -29 5 -29 -3 0 -9 -2 -9 -8 0 -7 12 -36 12 -47 1 -4 -3 -20 -2 -36 2
-20 6 -29 5 -29 -3 0 -9 -2 -9 -8 0 -7 12 -36 12 -47 1 -4 -3 -20 -2 -36 2
-20 6 -29 5 -29 -3 0 -9 -2 -9 -8 0 -7 12 -36 12 -47 1 -4 -3 -20 -2 -36 2
-20 6 -29 5 -29 -3 0 -9 -2 -9 -8 0 -7 12 -36 12 -47 1 -4 -3 -20 -2 -36 2
-20 6 -29 5 -29 -3 0 -9 -2 -9 -8 0 -7 12 -36 12 -47 1 -4 -3 -20 -2 -36 2
-20 6 -29 5 -29 -3 0 -9 -2 -9 -8 0 -7 12 -36 12 -47 1 -4 -3 -20 -2 -36 2
-20 6 -29 5 -29 -3 0 -9 -2 -9 -8 0 -7 12 -36 12 -47 1 -4 -3 -20 -2 -36 2
-20 6 -29 5 -29 -3 0 -9 -2 -9 -8 0 -7 12 -36 12 -47 1 -4 -3 -20 -2 -36 2
-20 6 -29 5 -29 -3 0 -9 -2 -9 -8 0 -7 12 -36 12 -47 1 -4 -3 -20 -2 -36 2
-20 6 -29 5 -29 -3 0 -9 -2 -9 -8 0 -7 12 -36 12 -47 1 -4 -3 -20 -2 -36 2
-20 6 -29 5 -29 -3 0 -9 -2 -9 -8 0 -7 12 -36 12 -47 1 -4 -3 -20 -2 -36 2
-20 6 -29 5 -29 -3 0 -9 -2 -9 -8 0 -7 12 -36 12 -47 1 -4 -3 -20 -2 -36 2
-20 6 -29 5 -29 -3 0 -9 -2 -9 -8 0 -7 12 -36 12 -47 1 -4 -3 -20 -2 -36 2
-20 6 -29 5 -29 -3 0 -9 -2 -9 -8 0 -7 12 -36 12 -47 1 -4 -3 -20 -2 -36 2
-20 6 -29 5 -29 -3 0 -9 -2 -9 -8 0 -7 12 -36 12 -47 1 -4 -3 -20 -2 -36 2
-20 6 -29 5 -29 -3 0 -9 -2 -9 -8 0 -7 12 -36 12 -47 1 -4 -3 -20 -2 -36 2
-20 6 -29 5 -29 -3 0 -9 -2 -9 -8 0 -7 12 -36 12 -47 1 -4 -3 -20 -2 -36 2
-20 6 -29 5 -29 -3 0 -9 -2 -9 -8 0 -7 12 -36 12 -47 1 -4 -3 -20 -2 -36 2
-20 6 -29 5 -29 -3 0 -9 -2 -9 -8 0 -7 12 -36 12 -47 1 -4 -3 -20 -2 -36 2
-20 6 -29 5 -29 -3 0 -9 -2 -9 -8 0 -7 12 -36 12 -47 1 -4 -3 -20 -2 -36 2
-20 6 -29 5 -29 -3 0 -9 -2 -9 -8 0 -7 12 -36 12 -47 1 -4 -3 -20 -2 -36 2
-20 6 -29 5 -29 -3 0 -9 -2 -9 -8 0 -7 12 -36 12 -47 1 -4 -3 -20 -2 -36 2
-20 6 -29 5 -29 -3 0 -9 -2 -9 -8 0 -7 12 -36 12 -47 1 -4 -3 -20 -2 -36 2
-20 6 -29 5 -29 -3 0 -9 -2 -9 -8 0 -7 12 -36 12 -47 1 -4 -3 -20 -2 -36 2
-20 6 -29 5 -29 -3 0 -9 -2 -9 -8 0 -7 12 -36 12 -47 1 -4 -3 -20 -2 -36 2
-20 6 -29 5 -29 -3 0 -9 -2 -9 -8 0 -7 12 -36 12 -47 1 -4 -3 -20 -2 -36 2
-20 6 -29 5 -29 -3 0 -9 -2 -9 -8 0 -7 12 -36 12 -47 1 -4 -3 -20 -2 -36 2
-20 6 -29 5 -29 -3 0 -9 -2 -9 -8 0 -7 12 -36 12 -47 1 -4 -3 -20 -2 -36 2
-20 6 -29 5 -29 -3 0 -9 -2 -9 -8 0 -7 12 -36 12 -47 1 -4 -3 -20 -2 -36 2
-20 6 -29 5 -29 -3 0 -9 -2 -9 -8 0 -7 12 -36 12 -47 1 -4 -3 -20 -2 -36 2
-20 6 -29 5 -29 -3 0 -9 -2 -9 -8 0 -7 12 -36 12 -47 1 -4 -3 -20 -2 -36 2
-20 6 -29 5 -29 -3 0 -9 -2 -9 -8 0 -8 12 -36 12 -48 0 -4 -4 -18 0 -30 8 -18
12 -22 12 -18 2 6 -17 -31 -16 -48 1 -7 7 -17 12 -22 12 -6 0 -5 -4 2 -9z
m6589 -297 c16 -15 17 -28 2 -18 -8 5 -8 1 0 -14 6 -12 8 -23 4 -25 -5 -3 -8
-46 -8 -96 0 -50 -4 -91 -8 -91 -5 0 -5 -5 -1 -11 3 -6 0 -15 -7 -20 -10 -6
-11 -9 -1 -9 6 0 12 -5 12 -11 0 -5 -4 -8 -9 -5 -5 3 -11 -13 -14 -37 -2 -23
-8 -55 -12 -72 -3 -16 -7 -38 -8 -47 -1 -9 -5 -14 -9 -12 -7 5 -13 -27 -9 -49
1 -5 -3 -6 -9 -2 -5 3 -10 -2 -10 -13 0 -11 -12 -37 -26 -58 -15 -21 -19 -32
-10 -25 20 17 21 8 1 -12 -8 -8 -16 -21 -17 -28 -2 -7 -11 -22 -20 -33 -10
-11 -18 -30 -18 -43 0 -16 -4 -21 -15 -17 -10 4 -15 0 -15 -15 0 -12 -5 -21
-11 -21 -5 0 -8 -4 -5 -9 3 -5 -1 -11 -9 -15 -8 -3 -15 -15 -15 -27 0 -12 -3
-20 -6 -16 -7 7 -42 -26 -37 -36 2 -4 -3 -10 -11 -13 -9 -3 -13 -10 -10 -15 3
-5 -2 -9 -10 -9 -9 0 -16 -7 -16 -16 0 -8 -4 -12 -10 -9 -5 3 -10 -1 -10 -10
0 -9 -4 -14 -9 -10 -5 3 -13 -4 -16 -16 -4 -11 -9 -18 -12 -15 -3 2 -18 -7
-33 -22 -15 -15 -40 -35 -54 -45 -15 -10 -23 -23 -20 -29 4 -7 2 -8 -4 -4 -7
4 -12 2 -12 -4 0 -6 -4 -9 -9 -6 -5 3 -15 -1 -22 -10 -7 -9 -24 -20 -37 -25
-13 -5 -20 -13 -17 -19 4 -6 -5 -10 -19 -10 -14 0 -26 -4 -26 -10 0 -5 -7 -10
-15 -10 -8 0 -15 -4 -15 -10 0 -5 -3 -9 -7 -9 -25 4 -43 -2 -37 -13 5 -7 3 -8
-5 -3 -8 4 -21 -1 -32 -14 -16 -17 -24 -19 -41 -10 -15 8 -19 8 -14 0 9 -14
-38 -33 -59 -25 -10 4 -13 2 -10 -8 4 -11 -6 -14 -44 -13 -36 0 -47 -3 -40
-11 7 -8 -2 -12 -32 -12 -23 -1 -46 -7 -50 -14 -7 -10 -9 -10 -9 0 0 6 -5 12
-11 12 -5 0 -8 -4 -5 -8 5 -8 -66 -15 -131 -14 -13 0 -23 -4 -23 -9 0 -5 -5
-9 -11 -9 -5 0 -8 4 -4 9 6 11 -41 8 -51 -2 -4 -4 -11 -4 -17 0 -6 3 -30 8
-54 10 -33 2 -42 0 -37 -10 6 -9 5 -9 -7 0 -9 7 -20 8 -29 3 -8 -5 -19 -6 -24
-2 -6 3 -29 8 -51 9 -31 2 -37 1 -25 -8 13 -9 12 -10 -2 -5 -10 3 -26 9 -35
12 -15 5 -16 4 -3 -5 13 -9 13 -11 0 -11 -9 0 -22 6 -29 13 -11 10 -13 10 -7
0 4 -7 2 -13 -3 -13 -6 0 -11 6 -11 13 0 9 -2 9 -8 0 -4 -6 -32 -13 -62 -15
-30 -1 -58 -7 -62 -13 -5 -6 -12 -4 -18 5 -8 13 -10 13 -10 -2 0 -12 -8 -15
-31 -14 -17 1 -36 -2 -43 -8 -13 -13 -32 -18 -64 -18 -12 0 -25 -4 -28 -9 -3
-5 -14 -9 -25 -9 -11 0 -22 -7 -25 -15 -4 -8 -10 -12 -15 -9 -6 3 -17 0 -26
-8 -14 -11 -16 -11 -8 2 7 12 5 12 -11 -1 -10 -9 -27 -15 -36 -14 -11 2 -15
-2 -11 -13 5 -11 2 -14 -10 -9 -8 3 -21 -1 -27 -9 -7 -8 -21 -14 -32 -14 -10
0 -16 -4 -13 -10 3 -5 -3 -10 -14 -10 -12 0 -21 -4 -21 -10 0 -5 -9 -10 -21
-10 -11 0 -18 -4 -15 -9 3 -5 -7 -14 -23 -19 -15 -6 -38 -20 -50 -33 -11 -12
-21 -19 -21 -14 0 4 -9 -3 -21 -16 -11 -13 -27 -23 -35 -21 -8 2 -12 -3 -9
-10 3 -8 -8 -19 -25 -27 -17 -7 -29 -15 -27 -18 7 -6 -50 -63 -63 -63 -6 0 -8
-4 -5 -10 3 -5 -1 -10 -9 -10 -9 0 -16 -5 -16 -11 0 -16 -26 -39 -36 -31 -5 4
-2 -1 6 -11 7 -10 9 -17 4 -16 -5 1 -16 1 -24 0 -13 -1 -13 -2 0 -11 13 -8 12
-10 -2 -10 -10 0 -18 -4 -18 -9 0 -5 -8 -17 -17 -27 -10 -10 -18 -22 -18 -28
-1 -6 -7 -10 -14 -8 -7 1 -10 -2 -7 -6 3 -5 -3 -20 -14 -32 -11 -12 -22 -31
-25 -41 -4 -11 -11 -19 -16 -19 -6 0 -7 -4 -4 -10 3 -5 1 -10 -5 -10 -6 0 -9
-4 -5 -10 3 -5 -3 -18 -15 -30 -11 -11 -17 -20 -13 -20 4 0 2 -5 -5 -12 -7 -7
-12 -20 -12 -29 0 -9 -6 -22 -14 -29 -8 -6 -12 -18 -9 -26 3 -8 0 -14 -7 -14
-6 0 -8 -4 -5 -10 3 -5 2 -10 -4 -10 -5 0 -8 -8 -7 -17 2 -10 -1 -21 -6 -24
-6 -4 -12 -24 -15 -45 -3 -22 -10 -42 -15 -45 -6 -4 -11 -21 -12 -38 0 -17 -4
-31 -7 -31 -3 0 -6 -14 -7 -32 0 -17 -7 -35 -14 -39 -7 -5 -8 -9 -2 -9 6 0 11
-7 11 -15 0 -8 -5 -15 -10 -15 -6 0 -7 -3 -4 -7 4 -3 1 -13 -6 -21 -8 -11 -9
-14 0 -9 8 5 11 0 10 -13 -1 -11 -4 -20 -7 -20 -3 0 -5 -63 -5 -140 0 -77 -3
-140 -7 -140 -4 0 -4 -10 0 -22 8 -22 7 -83 -2 -120 -2 -10 -1 -18 2 -18 4 0
7 -27 7 -60 0 -33 -4 -60 -8 -60 -4 0 -3 -10 4 -21 9 -17 8 -20 -3 -13 -11 6
-11 5 0 -8 10 -13 10 -17 0 -22 -10 -5 -10 -7 -1 -12 9 -4 10 -11 3 -25 -7
-13 -7 -19 0 -19 5 0 10 -5 10 -11 0 -5 -4 -8 -9 -5 -5 4 -6 -9 -1 -29 5 -21
4 -35 -2 -35 -5 0 -6 -5 -2 -11 9 -15 11 -149 2 -149 -4 0 -4 -10 0 -22 8 -22
7 -83 -2 -120 -2 -10 -1 -18 2 -18 4 0 7 -27 7 -60 0 -33 -4 -60 -8 -60 -4 0
-3 -10 4 -21 9 -17 8 -20 -3 -13 -11 6 -11 5 0 -8 10 -13 10 -17 0 -22 -10 -5
-10 -7 -1 -12 9 -4 10 -11 3 -25 -7 -13 -7 -19 0 -19 5 0 10 -5 10 -11 0 -5
-4 -8 -9 -5 -5 4 -6 -9 -1 -29 5 -21 4 -35 -2 -35 -5 0 -6 -5 -2 -11 9 -16 10
-119 1 -119 -5 0 -5 -5 -1 -12 4 -6 8 -27 9 -47 1 -22 7 -35 14 -33 7 1 10 -2
7 -7 -4 -5 -2 -12 4 -16 6 -4 7 -11 4 -17 -4 -6 -2 -8 4 -4 5 3 12 1 14 -5 2
-6 20 -17 41 -24 20 -7 35 -9 32 -5 -2 3 2 7 10 7 8 0 12 -4 9 -9 -3 -4 0 -8
5 -8 6 0 11 5 11 10 0 6 14 10 31 10 22 0 32 5 36 20 3 11 12 20 20 20 8 0 11
5 8 11 -4 5 -1 18 7 27 12 14 14 133 13 752 -1 404 2 745 7 758 4 13 4 21 0
18 -4 -2 -7 15 -7 39 0 24 3 41 8 38 4 -2 4 -10 1 -16 -4 -7 -3 -9 1 -4 11 10
14 47 4 47 -5 0 -4 12 1 26 6 14 8 30 4 35 -3 5 0 9 5 9 6 0 11 5 11 11 0 5
-4 8 -8 5 -4 -2 -8 4 -8 14 0 13 4 16 12 9 8 -6 12 1 13 24 3 54 4 56 13 51 4
-3 8 8 8 24 0 16 7 35 15 42 9 7 13 15 10 18 -3 3 1 12 8 20 10 13 9 15 -3 8
-8 -4 -4 2 9 13 14 13 18 21 10 21 -10 1 -9 4 3 14 10 7 14 16 10 20 -4 4 1
12 11 17 9 6 17 19 17 29 0 11 5 20 10 20 6 0 10 9 10 20 0 11 5 20 11 20 5 0
7 -5 3 -12 -4 -6 -3 -8 4 -5 5 4 8 17 4 29 -3 14 -1 19 6 14 6 -3 14 4 18 16
4 13 15 30 25 39 11 9 19 22 19 28 0 7 5 9 10 6 6 -3 10 0 10 8 0 7 16 27 35
44 19 17 35 36 35 43 0 6 4 9 8 6 5 -3 15 4 22 15 8 10 20 19 28 19 7 0 10 5
7 10 -3 6 1 10 10 10 9 0 13 5 10 10 -3 6 0 10 7 10 7 0 19 9 26 20 7 12 18
17 29 13 9 -4 14 -2 11 3 -3 5 17 24 44 42 28 19 47 28 42 20 -4 -8 0 -6 12 3
10 9 25 14 32 12 8 -3 10 1 6 11 -5 13 1 16 27 16 26 0 30 3 19 10 -12 8 -11
10 5 10 12 0 26 5 33 12 9 9 12 9 12 -1 0 -9 5 -8 16 3 8 9 19 14 24 11 5 -3
10 0 12 6 2 6 18 12 36 12 18 1 32 5 32 10 0 4 5 5 10 2 6 -3 10 -2 10 4 0 5
9 8 20 6 11 -2 22 1 26 7 4 7 9 6 14 -2 5 -9 11 -8 21 2 13 12 40 17 139 23
19 2 35 4 35 5 0 1 14 3 32 5 18 1 30 -2 27 -6 -6 -11 10 -12 20 -2 11 11 67
12 60 2 -6 -11 10 -12 20 -2 11 11 67 12 60 2 -3 -5 -1 -9 5 -9 5 0 13 5 16
10 5 8 12 7 23 -2 12 -10 14 -10 8 0 -4 7 -1 12 9 12 9 0 13 -5 9 -11 -4 -7 1
-7 16 1 15 8 20 8 16 1 -11 -17 20 -13 35 5 12 14 14 14 26 -2 8 -10 13 -13
13 -5 0 7 5 9 10 6 6 -3 10 -2 10 2 0 5 15 8 32 7 18 -1 39 3 47 9 12 9 13 9
7 0 -4 -7 -2 -13 3 -13 6 0 11 3 11 8 0 6 27 10 83 13 10 0 15 5 11 11 -4 7
-2 8 5 4 6 -4 19 -2 28 6 14 11 16 11 8 -2 -7 -12 -6 -13 7 -3 8 7 18 10 21 6
4 -3 7 -1 7 5 0 6 6 9 13 6 7 -2 26 2 42 10 16 8 32 13 37 10 4 -3 8 0 8 6 0
6 4 9 9 6 5 -3 14 1 21 9 7 8 25 15 41 15 16 0 29 4 29 8 0 4 16 15 35 24 20
9 32 11 29 4 -3 -6 3 -1 14 11 11 13 30 23 42 23 13 0 19 4 14 12 -4 7 -3 8 4
4 6 -4 20 2 32 14 11 11 27 20 36 20 8 0 13 4 10 9 -5 7 19 20 47 25 5 0 14 9
21 18 7 10 16 15 19 11 4 -3 7 1 7 11 0 9 5 14 10 11 6 -3 10 -1 10 4 0 6 7
11 15 11 8 0 15 7 15 15 0 8 6 14 13 12 6 -1 11 4 10 11 -2 6 3 12 11 12 8 0
23 11 34 25 11 14 25 25 32 25 6 0 8 5 4 12 -5 8 -2 9 10 5 11 -4 15 -3 10 4
-4 6 0 15 7 20 8 4 14 14 14 21 0 7 6 14 13 14 6 1 17 2 23 3 5 0 7 5 4 11 -3
5 5 19 19 31 14 12 22 27 19 33 -3 6 -3 8 2 4 8 -8 35 15 35 30 0 14 26 33 33
25 4 -3 2 -12 -4 -20 -9 -10 -8 -13 1 -13 8 0 9 -5 4 -12 -14 -21 -11 -73 4
-70 8 1 11 -2 7 -8 -3 -6 -11 -7 -17 -4 -6 4 -6 -1 1 -14 6 -12 8 -23 4 -25
-14 -9 -8 -72 6 -69 7 1 10 -2 6 -8 -3 -6 -11 -7 -17 -4 -6 4 -6 -1 1 -14 6
-12 8 -23 4 -25 -14 -9 -8 -72 6 -69 7 1 10 -2 6 -8 -3 -6 -11 -7 -17 -4 -6 4
-6 -1 1 -14 6 -12 8 -23 4 -25 -14 -9 -8 -72 6 -69 7 1 10 -2 6 -8 -3 -6 -11
-7 -17 -4 -6 4 -6 -1 1 -14 6 -12 8 -23 4 -25 -14 -9 -8 -72 6 -69 7 1 10 -2
6 -8 -3 -6 -11 -7 -17 -4 -6 4 -6 -1 1 -14 6 -12 8 -23 4 -25 -14 -9 -8 -72 6
-69 7 1 10 -2 6 -8 -3 -6 -11 -7 -17 -4 -6 4 -6 -1 1 -14 6 -12 8 -23 4 -25
-14 -9 -8 -72 6 -69 7 1 10 -2 6 -8 -3 -6 -11 -7 -17 -4 -6 4 -6 -1 1 -14 6
-12 8 -23 4 -25 -14 -9 -8 -72 6 -69 7 1 10 -2 6 -8 -3 -6 -11 -7 -17 -4 -6 4
-6 -1 1 -14 6 -12 8 -23 4 -25 -14 -9 -8 -72 6 -69 7 1 10 -2 6 -8 -3 -6 -11
-7 -17 -4 -6 4 -6 -1 1 -14 6 -12 8 -23 4 -25 -14 -9 -8 -72 6 -69 7 1 10 -2
6 -8 -3 -6 -11 -7 -17 -4 -6 4 -6 -1 1 -14 6 -12 8 -23 4 -25 -14 -9 -8 -112
6 -109 7 1 10 -2 6 -8 -3 -6 -11 -7 -17 -4 -6 4 -6 -1 1 -14 6 -12 8 -23 4
-25 -14 -9 -8 -72 6 -69 7 1 10 -2 6 -8 -3 -6 -11 -7 -17 -4 -6 4 -6 -1 1 -14
6 -12 8 -23 4 -25 -14 -9 -8 -72 6 -69 7 1 10 -2 6 -8 -3 -6 -11 -7 -17 -4 -6
4 -6 -1 1 -14 6 -12 8 -23 4 -25 -14 -9 -8 -72 6 -69 7 1 10 -2 6 -8 -3 -6
-11 -7 -17 -4 -6 4 -6 -1 1 -14 6 -12 8 -23 4 -25 -14 -9 -8 -72 6 -69 7 1 10
-2 6 -8 -3 -6 -11 -7 -17 -4 -6 4 -6 0 1 -13 6 -11 7 -23 4 -27 -4 -3 -8 -28
-9 -55 -1 -27 -5 -54 -8 -60 -4 -6 -1 -11 6 -12 7 0 4 -4 -7 -9 -11 -5 -14 -9
-7 -9 6 -1 12 -6 12 -12 0 -5 -4 -7 -10 -4 -6 4 -10 -12 -10 -39 0 -25 -4 -46
-10 -46 -5 0 -10 -5 -10 -11 0 -5 5 -7 11 -4 7 5 7 1 0 -14 -27 -53 -31 -61
-31 -68 0 -5 5 -1 10 7 5 8 10 11 10 5 -1 -5 -7 -19 -15 -29 -8 -10 -12 -23
-9 -28 3 -5 0 -17 -8 -26 -8 -9 -15 -28 -16 -41 0 -13 -7 -28 -14 -32 -7 -5
-9 -9 -4 -9 5 0 2 -8 -5 -17 -12 -14 -12 -16 1 -9 9 4 8 2 -2 -7 -15 -12 -24
-35 -27 -70 -1 -5 -5 -5 -11 -2 -6 4 -7 -1 -3 -10 3 -10 1 -20 -6 -24 -7 -4
-13 -17 -14 -29 0 -12 -7 -24 -14 -26 -7 -3 -13 -13 -13 -21 0 -9 -4 -14 -9
-11 -4 3 -8 -2 -8 -12 0 -34 -3 -43 -13 -37 -5 3 -10 -3 -10 -13 0 -11 -10
-27 -22 -36 -13 -9 -18 -14 -11 -11 8 4 8 -1 0 -20 -7 -14 -15 -25 -19 -25 -8
0 -38 -53 -39 -67 0 -5 -7 -12 -15 -16 -8 -5 -12 -12 -9 -18 4 -5 -1 -9 -10
-9 -9 0 -14 -4 -11 -9 3 -5 -1 -12 -10 -15 -8 -3 -12 -10 -9 -16 3 -6 -1 -13
-9 -16 -9 -3 -16 -13 -16 -21 0 -8 -4 -11 -10 -8 -5 3 -10 -1 -10 -9 0 -9 -4
-16 -10 -16 -5 0 -10 -7 -10 -16 0 -8 -4 -12 -10 -9 -9 6 -14 -8 -11 -28 1 -5
-3 -6 -8 -3 -5 4 -12 -3 -16 -13 -4 -12 -12 -18 -21 -14 -10 4 -12 0 -8 -11 4
-11 1 -16 -12 -16 -9 0 -14 -3 -11 -7 4 -3 -8 -20 -26 -37 -17 -17 -31 -34
-29 -38 1 -5 -3 -8 -8 -8 -6 0 -28 -18 -49 -39 -22 -22 -41 -37 -44 -35 -3 3
-8 -4 -12 -15 -3 -12 -10 -21 -15 -21 -9 0 -19 -8 -96 -80 -20 -19 -39 -34
-41 -32 -9 7 -23 1 -18 -8 3 -5 2 -10 -3 -10 -5 0 -22 -11 -38 -25 -16 -14
-32 -25 -36 -25 -5 0 -8 -7 -8 -15 0 -8 -4 -15 -10 -15 -5 0 -10 -14 -10 -31
0 -16 -4 -28 -8 -25 -5 3 -9 -1 -9 -9 0 -8 4 -12 9 -9 4 3 8 -5 8 -18 0 -13 6
-30 13 -37 10 -11 9 -13 -3 -7 -9 5 -9 2 2 -7 10 -8 14 -18 10 -22 -4 -5 -1
-5 6 -1 7 4 15 1 18 -8 3 -9 15 -16 25 -16 10 0 19 -4 19 -8 0 -9 49 -8 85 1
11 3 24 6 28 6 5 1 5 6 2 11 -3 6 1 10 9 10 9 0 16 6 16 13 0 8 4 7 10 -3 8
-12 10 -12 10 -1 0 16 24 37 65 56 17 8 24 14 17 15 -7 0 -10 5 -7 10 4 6 11
8 16 5 5 -4 9 -1 9 4 0 6 7 11 16 11 8 0 12 5 9 10 -3 6 -1 10 4 10 6 0 29 17
51 38 74 70 88 82 95 82 3 0 13 7 21 15 12 12 12 15 2 15 -10 0 -10 3 2 9 8 6
18 7 22 5 4 -3 8 0 8 7 0 6 11 22 25 35 14 13 25 26 25 29 0 12 28 34 34 28 3
-4 6 1 6 10 0 10 7 17 16 17 8 0 12 5 9 10 -3 6 1 10 10 10 10 0 15 6 13 13
-5 13 27 49 36 40 3 -4 6 1 6 11 0 9 7 19 15 22 8 4 12 10 9 15 -3 5 0 9 5 9
6 0 11 7 11 16 0 8 5 12 10 9 6 -3 10 -1 10 5 0 11 9 23 41 59 8 9 13 23 11
31 -3 7 0 10 5 7 10 -6 38 40 35 56 -1 4 5 7 13 7 8 0 15 9 15 21 0 11 4 18 9
15 8 -5 25 29 22 47 -1 4 3 7 9 7 6 0 9 3 9 8 -3 18 2 22 15 10 8 -7 11 -17 8
-23 -9 -14 -9 -94 0 -89 4 3 8 0 8 -5 0 -6 -3 -11 -7 -11 -5 0 -8 -44 -8 -98
0 -74 -4 -100 -15 -110 -13 -12 -12 -13 5 -8 20 6 20 6 1 -9 -15 -11 -16 -15
-5 -16 10 0 11 -2 1 -6 -10 -4 -10 -8 0 -21 10 -12 10 -14 1 -8 -10 5 -13 -8
-13 -54 0 -34 -4 -59 -8 -56 -5 3 -9 -1 -9 -9 0 -8 3 -12 7 -10 3 2 6 -5 6
-15 0 -10 -4 -16 -8 -14 -4 3 -8 -14 -8 -38 0 -24 -6 -50 -12 -57 -10 -11 -10
-13 0 -7 6 4 12 3 12 -3 0 -5 -4 -11 -10 -13 -5 -1 -11 -24 -12 -51 -2 -32 -7
-46 -15 -43 -7 3 -10 -1 -6 -9 3 -8 10 -12 17 -9 6 3 4 0 -5 -8 -9 -7 -16 -20
-17 -28 -2 -38 -7 -60 -12 -60 -3 0 -6 -21 -7 -46 -1 -26 -7 -52 -12 -57 -6
-6 -11 -21 -11 -34 0 -13 -4 -23 -10 -23 -5 0 -10 -16 -10 -35 0 -19 -4 -35
-8 -35 -5 0 -9 -6 -10 -12 -1 -7 -3 -24 -4 -38 -2 -14 -9 -30 -17 -36 -8 -6
-11 -18 -8 -28 4 -9 2 -16 -4 -16 -6 0 -7 -5 -4 -10 3 -5 1 -10 -5 -10 -6 0
-10 -6 -9 -12 3 -26 -1 -39 -12 -33 -6 4 -10 1 -8 -6 3 -27 -1 -50 -9 -45 -4
2 -9 -7 -10 -22 -1 -15 -8 -31 -15 -37 -7 -5 -12 -20 -11 -33 1 -13 -5 -30
-13 -38 -8 -8 -16 -20 -17 -27 -1 -6 -5 -18 -9 -24 -5 -7 -6 -17 -3 -21 3 -5
-4 -16 -15 -25 -11 -10 -17 -22 -14 -27 3 -6 1 -10 -5 -10 -6 0 -8 -4 -5 -10
3 -5 1 -10 -4 -10 -6 0 -11 -7 -11 -16 0 -8 -4 -12 -10 -9 -5 3 -10 1 -10 -4
0 -6 5 -11 11 -11 6 0 1 -12 -10 -26 -12 -15 -21 -33 -21 -41 0 -7 -6 -16 -14
-19 -9 -3 -12 -12 -9 -21 4 -10 2 -14 -5 -9 -6 4 -12 -3 -14 -16 -2 -13 -9
-22 -16 -20 -8 1 -11 -2 -7 -8 4 -6 1 -17 -5 -25 -7 -8 -9 -15 -6 -15 4 0 0
-7 -8 -16 -9 -8 -13 -20 -10 -26 4 -7 2 -8 -4 -4 -8 5 -12 -1 -12 -16 0 -18
-2 -20 -10 -8 -8 12 -10 11 -10 -7 0 -13 -5 -23 -10 -23 -6 0 -9 -3 -8 -7 3
-17 -15 -43 -25 -36 -6 4 -8 0 -4 -11 5 -12 0 -19 -16 -26 -13 -5 -16 -9 -7
-10 12 0 12 -3 -2 -14 -10 -7 -15 -16 -11 -19 3 -4 -2 -7 -13 -7 -15 0 -16 -2
-5 -9 11 -7 10 -11 -6 -20 -12 -6 -24 -22 -27 -36 -4 -14 -11 -25 -16 -25 -6
0 -10 -8 -10 -17 0 -15 -2 -16 -10 -3 -8 12 -10 12 -10 -5 0 -11 -18 -40 -40
-64 -22 -24 -38 -47 -35 -51 3 -5 -4 -12 -16 -15 -11 -4 -18 -9 -15 -12 7 -7
-17 -32 -26 -26 -5 2 -8 -2 -8 -10 0 -8 -13 -28 -29 -45 -16 -16 -27 -33 -24
-36 4 -3 -1 -6 -10 -6 -10 0 -16 -3 -15 -8 4 -9 -45 -58 -54 -55 -4 2 -4 -5
-1 -14 4 -11 3 -14 -5 -9 -7 4 -12 1 -12 -9 0 -9 -4 -13 -10 -10 -5 3 -10 -1
-10 -9 0 -9 -7 -16 -17 -16 -9 0 -14 -3 -11 -6 3 -3 -9 -20 -28 -38 -19 -18
-34 -38 -34 -44 0 -7 -7 -9 -17 -5 -11 4 -14 3 -9 -5 4 -7 1 -15 -8 -18 -9 -3
-13 -10 -10 -15 3 -5 0 -9 -6 -9 -6 0 -18 -6 -26 -14 -11 -11 -11 -16 -1 -19
6 -3 2 -6 -11 -6 -13 -1 -20 -5 -17 -11 3 -5 -2 -10 -11 -10 -10 0 -15 -3 -11
-6 3 -3 -8 -19 -24 -35 -16 -15 -29 -33 -29 -39 0 -5 -7 -10 -16 -10 -10 0
-14 -6 -11 -14 4 -10 0 -13 -14 -11 -11 2 -17 0 -14 -4 2 -5 -10 -24 -28 -42
-17 -19 -30 -38 -29 -44 2 -5 1 -7 -3 -3 -9 8 -35 -16 -35 -31 0 -6 -5 -11
-11 -11 -14 0 -39 -26 -39 -40 0 -6 -4 -8 -10 -5 -5 3 -10 -1 -10 -10 0 -11
-5 -15 -16 -11 -8 3 -13 2 -10 -3 7 -11 -36 -61 -52 -61 -7 0 -11 -4 -8 -9 3
-5 -1 -11 -9 -15 -8 -3 -15 -11 -15 -18 0 -15 -35 -48 -50 -48 -6 0 -9 -4 -8
-9 4 -12 -68 -81 -76 -74 -3 4 -6 -3 -6 -15 0 -12 -6 -21 -12 -20 -7 2 -12 -2
-11 -9 2 -6 -6 -15 -17 -18 -11 -4 -20 -10 -20 -15 0 -13 -51 -65 -61 -62 -5
1 -9 -5 -9 -13 0 -8 -7 -15 -16 -15 -8 0 -13 -3 -10 -8 2 -4 -2 -16 -10 -27
-8 -10 -14 -15 -14 -10 0 5 -9 -1 -20 -13 -11 -12 -20 -24 -20 -27 0 -4 -27
-33 -59 -65 -33 -32 -57 -61 -53 -64 3 -3 -2 -6 -12 -6 -9 0 -15 -4 -12 -9 3
-5 -4 -11 -15 -14 -13 -4 -18 -10 -13 -18 4 -8 3 -10 -5 -5 -6 4 -14 0 -17 -8
-3 -9 -12 -16 -20 -16 -8 0 -14 -7 -14 -16 0 -8 -4 -13 -8 -10 -5 3 -25 -10
-47 -29 -21 -19 -42 -32 -46 -29 -5 3 -9 -2 -9 -11 0 -9 -4 -13 -10 -10 -5 3
-10 1 -10 -5 0 -6 -4 -9 -9 -5 -5 3 -17 -5 -25 -17 -10 -14 -16 -17 -16 -8 0
9 -6 6 -16 -8 -8 -12 -20 -20 -25 -17 -5 4 -9 2 -9 -4 0 -5 -9 -8 -20 -6 -11
2 -18 0 -15 -6 4 -5 1 -9 -6 -9 -6 0 -17 -6 -23 -14 -6 -8 -22 -16 -36 -18
-14 -2 -27 -6 -30 -10 -3 -3 -14 -8 -25 -10 -11 -1 -23 -6 -26 -11 -5 -7 -41
-18 -66 -19 -7 -1 -13 -5 -13 -9 0 -4 -12 -6 -26 -3 -15 3 -23 1 -20 -5 4 -5
2 -12 -4 -16 -5 -3 -10 -1 -10 6 0 10 -3 10 -12 1 -7 -7 -29 -12 -51 -12 -23
0 -36 -4 -32 -10 4 -6 -8 -11 -29 -11 -34 -1 -53 -4 -58 -9 -10 -7 -37 -6 -32
2 4 5 -4 5 -16 -2 -18 -10 -24 -9 -31 1 -7 12 -9 12 -9 0 0 -9 -8 -12 -25 -9
-14 3 -28 1 -31 -4 -3 -4 -9 -6 -13 -4 -4 3 -50 6 -102 7 -52 1 -100 6 -108
13 -11 8 -13 8 -7 -1 4 -7 2 -13 -3 -13 -6 0 -11 6 -11 13 0 8 -4 7 -10 -3 -6
-10 -10 -11 -10 -2 0 6 -3 11 -7 11 -5 -1 -25 -1 -46 0 -28 1 -36 4 -31 13 5
8 0 7 -11 -2 -11 -9 -16 -10 -11 -2 5 8 -2 12 -26 13 -18 1 -36 1 -40 0 -5 0
-8 5 -8 11 0 9 -4 8 -10 -2 -8 -12 -10 -12 -10 5 0 17 -2 17 -10 5 -6 -9 -10
-10 -10 -3 0 6 -9 10 -20 8 -11 -2 -18 0 -15 6 5 7 -23 12 -52 8 -3 0 -10 6
-15 15 -5 9 -17 16 -27 16 -28 0 -82 25 -74 34 5 4 1 7 -7 6 -22 -3 -61 11
-55 20 3 4 -8 10 -24 13 -16 3 -35 13 -44 21 -8 8 -17 12 -21 9 -3 -4 -6 2 -6
13 0 16 -2 17 -10 4 -8 -13 -10 -12 -10 3 0 10 -4 15 -10 12 -5 -3 -10 -1 -10
6 0 7 -3 10 -6 6 -3 -3 -15 3 -27 13 -11 11 -25 16 -30 13 -6 -4 -8 0 -4 10 5
12 1 17 -12 17 -10 0 -22 7 -25 16 -3 8 -10 12 -16 9 -5 -3 -10 1 -10 10 0 9
-4 14 -9 11 -5 -3 -17 5 -27 19 -10 13 -21 22 -26 19 -4 -3 -8 0 -8 6 0 7 -11
21 -25 32 -14 11 -22 25 -18 31 3 7 3 9 -1 5 -8 -7 -50 29 -54 45 -2 12 -25
32 -44 40 -10 3 -18 14 -18 22 0 9 -4 13 -10 10 -6 -3 -10 1 -10 10 0 9 -9 19
-20 22 -11 3 -17 9 -14 14 3 5 0 9 -6 9 -6 0 -8 5 -5 10 4 6 3 9 -2 8 -4 -1
-21 10 -37 25 -16 15 -26 27 -22 27 4 0 -6 12 -23 26 -17 14 -28 31 -24 36 3
6 1 8 -4 5 -6 -4 -19 5 -29 18 -10 14 -25 25 -32 25 -7 0 -10 5 -7 10 3 6 -1
13 -9 16 -9 3 -13 11 -9 17 4 6 0 8 -9 4 -11 -4 -18 1 -22 16 -3 12 -19 31
-35 42 -16 11 -32 27 -34 37 -3 10 -13 18 -24 18 -15 0 -16 2 -3 10 13 8 13
10 -2 10 -19 0 -41 33 -30 44 3 4 -1 4 -10 1 -9 -4 -18 0 -21 9 -4 9 -14 16
-24 17 -16 0 -16 1 2 9 15 7 16 9 4 9 -9 1 -22 8 -29 16 -7 8 -17 12 -23 8 -6
-3 -7 -1 -3 6 5 7 -1 20 -13 30 -11 10 -18 21 -14 25 3 3 1 6 -6 6 -16 0 -41
25 -41 41 0 7 -3 10 -6 6 -6 -6 -34 16 -34 28 0 9 -58 64 -63 59 -3 -3 -8 7
-11 21 -4 14 -10 24 -15 21 -9 -6 -42 30 -34 38 4 3 -1 6 -11 6 -9 0 -20 8
-23 18 -9 22 -61 72 -77 72 -7 0 -6 3 2 9 10 6 8 10 -8 14 -12 3 -19 10 -15
16 5 10 -7 15 -27 12 -5 0 -7 2 -7 7 3 20 -3 32 -17 32 -8 0 -12 5 -9 10 3 6
-1 10 -10 10 -9 0 -13 5 -10 10 3 6 -1 10 -9 10 -9 0 -16 5 -16 11 0 6 -7 17
-15 26 -8 8 -13 19 -10 24 4 5 -1 6 -9 3 -14 -6 -21 5 -17 28 0 5 -2 7 -7 6
-4 -2 -19 8 -35 22 -20 17 -24 26 -15 32 10 6 9 8 -2 8 -8 0 -28 20 -45 45
-16 24 -34 43 -40 42 -5 -1 -9 4 -8 10 2 7 -8 20 -22 29 -14 9 -23 20 -20 24
3 5 -1 15 -9 23 -8 8 -12 17 -9 21 4 3 -2 6 -12 6 -10 0 -16 3 -12 6 3 3 -3
16 -15 28 -11 11 -25 33 -30 48 -5 16 -14 25 -19 22 -5 -3 -9 2 -9 10 0 9 -4
16 -10 16 -5 0 -7 7 -4 15 4 10 0 15 -11 15 -9 0 -14 4 -11 9 3 4 -3 19 -14
31 -11 13 -20 27 -20 31 0 4 -7 15 -16 23 -12 12 -12 16 -2 16 8 0 7 4 -4 11
-10 5 -30 34 -45 64 -14 30 -30 55 -35 55 -5 0 -7 4 -3 9 3 5 0 15 -7 23 -7 7
-14 20 -16 28 -2 8 -8 17 -13 18 -5 2 -9 14 -9 26 0 12 -9 32 -20 44 -11 12
-20 26 -20 33 0 6 -8 18 -17 26 -11 8 -12 11 -3 7 12 -7 13 -5 3 8 -7 8 -10
18 -6 21 3 4 0 7 -7 7 -7 0 -11 3 -7 6 3 4 0 13 -8 20 -8 8 -11 22 -8 31 4 11
3 14 -5 9 -8 -5 -12 2 -12 19 0 15 -4 24 -10 20 -5 -3 -7 0 -4 8 3 8 -2 21
-10 30 -9 8 -17 32 -18 51 -2 20 -8 36 -14 36 -6 0 -11 7 -12 15 -1 8 -3 22
-4 30 -1 8 -5 15 -10 15 -4 0 -8 11 -8 25 0 14 -6 25 -12 25 -9 0 -8 4 2 10
10 6 11 10 3 10 -7 0 -13 9 -13 20 0 11 -4 20 -10 20 -5 0 -10 5 -10 11 0 5 5
7 10 4 6 -3 10 -2 10 3 0 6 -7 12 -15 16 -8 3 -12 12 -9 21 4 9 1 15 -7 15
-11 0 -11 3 1 10 13 9 13 10 0 10 -11 0 -16 10 -15 33 0 17 -4 38 -10 46 -5 8
-10 24 -10 35 -1 12 -4 27 -9 34 -8 14 -19 64 -20 95 0 9 -5 17 -11 17 -5 0
-3 5 5 10 13 9 13 10 0 10 -12 0 -15 11 -14 51 0 30 -2 45 -7 37 -9 -13 -12 7
-12 79 0 23 -3 30 -14 26 -13 -5 -13 -3 -1 16 8 14 9 24 3 29 -5 4 -11 16 -11
27 -5 75 -9 102 -17 119 -7 14 -6 17 5 11 10 -6 10 -5 1 5 -9 9 -9 19 -2 33 7
11 7 17 1 13 -5 -3 -10 8 -10 27 -1 97 -6 166 -12 162 -3 -2 -6 7 -6 20 0 13
4 21 8 19 4 -3 8 -1 8 5 0 5 -4 12 -9 16 -6 3 -9 14 -8 25 1 10 5 16 9 14 4
-3 8 0 8 5 0 6 -6 11 -12 12 -9 0 -9 2 1 6 9 4 10 8 3 12 -7 4 -3 12 9 20 12
7 18 8 15 2 -4 -5 5 -21 19 -35 16 -16 20 -26 12 -29 -7 -3 -4 -6 6 -6 15 -1
22 -12 18 -33 0 -5 4 -8 10 -8 5 0 8 -4 5 -9 -3 -5 1 -11 9 -15 8 -3 15 -13
15 -21 0 -9 5 -13 10 -10 9 6 12 -1 9 -22 0 -3 6 -10 15 -15 9 -5 16 -16 16
-24 0 -8 5 -12 10 -9 5 3 10 -3 10 -15 0 -12 5 -18 10 -15 6 3 10 -1 10 -9 0
-9 5 -16 11 -16 6 0 8 -7 5 -17 -4 -10 -4 -14 0 -10 10 9 45 -23 38 -34 -3 -5
2 -9 11 -9 9 0 13 -5 10 -10 -3 -6 1 -13 9 -16 8 -3 18 -14 21 -23 3 -10 16
-23 28 -30 12 -7 28 -25 36 -42 7 -16 17 -27 22 -23 5 3 9 0 9 -6 0 -6 4 -8
10 -5 5 3 10 1 10 -5 0 -14 78 -89 85 -81 4 3 4 -1 0 -9 -3 -10 5 -20 25 -28
16 -8 30 -20 30 -28 0 -9 4 -12 10 -9 5 3 10 -1 10 -10 0 -9 4 -13 10 -10 5 3
15 -3 22 -15 7 -11 17 -20 23 -20 6 0 16 -9 23 -20 7 -12 17 -18 22 -15 6 3
10 -1 10 -10 0 -9 4 -14 9 -11 5 3 17 -5 27 -19 10 -13 21 -22 26 -19 4 3 8
-3 9 -13 0 -10 3 -13 6 -6 3 8 13 4 30 -13 17 -17 31 -23 45 -18 14 4 18 2 14
-5 -8 -13 21 -10 43 3 10 6 12 5 7 -3 -11 -18 45 10 72 36 12 12 22 29 22 38
0 8 5 15 11 15 8 0 7 6 -2 17 -8 10 -9 14 -2 10 6 -4 14 -3 18 3 3 5 -1 10
-10 10 -15 0 -15 1 -1 16 19 19 20 25 4 21 -7 -1 -15 12 -19 28 -4 17 -7 26
-8 21 0 -5 -9 0 -18 10 -30 32 -111 94 -123 94 -6 0 -9 4 -6 8 3 5 -4 16 -14
25 -13 11 -20 12 -24 4 -2 -7 -5 -5 -5 5 -1 9 -10 20 -21 23 -11 3 -20 13 -20
21 0 8 -4 12 -10 9 -5 -3 -10 1 -10 10 0 9 -6 15 -12 13 -12 -4 -38 14 -38 26
0 2 -34 39 -75 80 -41 42 -75 80 -75 86 0 6 -5 8 -10 5 -6 -3 -10 -2 -10 4 0
5 -11 22 -25 37 -13 14 -22 31 -19 36 3 4 2 8 -3 7 -20 -3 -34 2 -28 11 3 6 1
10 -5 10 -6 0 -8 5 -5 10 3 6 1 10 -4 10 -6 0 -11 8 -11 18 0 14 -2 15 -10 2
-8 -12 -10 -11 -10 8 0 12 -4 22 -8 22 -5 0 -15 11 -22 25 -7 14 -20 25 -29
26 -12 0 -11 3 4 9 17 7 17 9 3 9 -10 1 -18 7 -18 14 0 8 -9 22 -20 32 -12 10
-18 25 -16 32 3 7 -1 13 -10 13 -8 0 -12 5 -9 10 3 6 1 10 -5 10 -6 0 -8 5 -5
10 3 6 3 10 -2 10 -4 0 -17 18 -27 40 -11 22 -23 40 -28 40 -4 0 -7 3 -7 8 3
19 -2 33 -10 28 -5 -3 -9 0 -8 7 1 36 -4 57 -13 52 -9 -5 -15 15 -11 38 0 4
-5 7 -13 7 -8 0 -13 8 -12 18 2 9 -1 19 -5 22 -7 5 -16 34 -18 63 -1 5 -5 6
-9 3 -4 -2 -9 6 -10 20 -3 46 -5 54 -13 54 -5 0 -6 7 -3 15 4 8 1 15 -6 15 -6
0 -9 4 -5 9 3 5 1 12 -4 16 -5 3 -10 13 -10 23 -2 44 -5 58 -20 70 -14 12 -14
13 3 7 20 -6 20 -6 0 16 -10 12 -14 19 -7 15 9 -5 9 -1 -1 18 -7 13 -11 38
-10 55 1 17 -3 31 -8 31 -6 0 -5 6 2 15 7 8 8 15 2 15 -5 0 -10 18 -10 40 0
22 -4 44 -7 50 -3 5 -1 10 5 10 6 0 8 5 5 10 -4 6 -12 7 -18 3 -7 -4 -6 0 2
10 11 14 11 17 0 17 -11 0 -11 2 1 10 10 6 11 10 3 10 -7 0 -13 5 -13 11 0 5
6 7 13 3 7 -5 6 0 -3 11 -9 11 -10 16 -2 11 6 -4 12 -2 12 3 0 6 -6 11 -12 11
-9 0 -8 4 2 10 13 9 13 11 0 20 -13 9 -13 10 0 10 13 0 13 1 0 10 -10 6 -11
10 -2 10 6 0 12 9 12 20 0 11 -6 20 -12 20 -9 0 -8 4 2 10 13 9 13 10 0 10
-13 0 -13 1 0 11 12 9 13 12 1 16 -11 5 -11 7 0 14 12 7 11 9 -1 9 -13 0 -13
1 0 10 10 6 11 10 3 10 -7 0 -13 5 -13 11 0 5 6 7 13 3 7 -5 6 0 -3 11 -9 11
-10 16 -2 11 6 -4 12 -2 12 3 0 6 -6 11 -12 11 -9 0 -8 4 2 10 13 9 13 11 0
20 -13 9 -13 10 0 10 13 0 13 1 0 10 -10 6 -11 10 -2 10 6 0 12 9 12 20 0 11
-6 20 -12 20 -9 0 -8 4 2 10 13 9 13 10 0 10 -13 0 -13 1 0 11 12 9 13 12 1
16 -11 5 -11 7 0 14 12 7 11 9 -1 9 -13 0 -13 1 0 10 10 6 11 10 3 10 -7 0
-13 5 -13 11 0 5 6 7 13 3 7 -5 6 0 -3 11 -9 11 -10 16 -2 11 6 -4 12 -2 12 3
0 6 -6 11 -12 11 -9 0 -8 4 2 10 13 9 13 11 0 20 -13 9 -13 10 0 10 13 0 13 1
0 10 -10 6 -11 10 -2 10 6 0 12 9 12 20 0 11 -6 20 -12 20 -9 0 -8 4 2 10 13
9 13 10 0 10 -13 0 -13 1 0 11 12 9 13 12 1 16 -11 5 -11 7 0 14 12 7 11 9 -1
9 -13 0 -13 1 0 10 10 6 11 10 3 10 -7 0 -13 5 -13 11 0 5 6 7 13 3 7 -5 6 0
-3 11 -9 11 -10 16 -2 11 6 -4 12 -2 12 3 0 6 -6 11 -12 11 -9 0 -8 4 2 10 13
9 13 11 0 20 -13 9 -13 10 0 10 13 0 13 1 0 10 -10 6 -11 10 -2 10 6 0 12 9
12 20 0 11 -6 20 -12 20 -9 0 -8 4 2 10 13 9 13 10 0 10 -13 0 -13 1 0 11 12
9 13 12 1 16 -11 5 -11 7 0 14 12 7 11 9 -1 9 -13 0 -13 1 0 10 10 6 11 10 3
10 -7 0 -13 5 -13 11 0 5 6 7 13 3 7 -5 6 0 -3 11 -9 11 -10 16 -2 11 6 -4 12
-2 12 3 0 6 -6 11 -12 11 -9 0 -8 4 2 10 13 9 13 11 0 20 -13 9 -13 10 0 10
13 0 13 1 0 10 -10 6 -11 10 -2 10 6 0 12 9 12 20 0 11 -6 20 -12 20 -9 0 -8
4 2 10 13 9 13 10 0 10 -13 0 -13 1 0 11 12 9 13 12 1 16 -11 5 -11 7 0 14 12
7 11 9 -1 9 -13 0 -13 1 0 10 10 6 11 10 3 10 -7 0 -13 5 -13 11 0 5 6 7 13 3
7 -5 6 0 -3 11 -9 11 -10 16 -2 11 6 -4 12 -2 12 3 0 6 -6 11 -12 11 -9 0 -8
4 2 10 13 9 13 11 0 20 -13 9 -13 10 0 10 13 0 13 1 0 10 -10 6 -11 10 -2 10
6 0 12 9 12 20 0 11 -6 20 -12 20 -9 0 -8 4 2 10 13 9 13 10 0 10 -13 0 -13 1
0 11 12 9 13 12 1 16 -11 5 -11 7 0 14 12 7 11 9 -1 9 -13 0 -13 1 0 10 10 6
11 10 3 10 -7 0 -13 5 -13 11 0 5 6 7 13 3 7 -5 6 0 -3 11 -9 11 -10 16 -2 11
6 -4 12 -2 12 3 0 6 -6 11 -12 11 -9 0 -8 4 2 10 13 9 13 11 0 20 -13 9 -13
10 0 10 13 0 13 1 0 10 -10 6 -11 10 -2 10 6 0 12 9 12 20 0 11 -6 20 -12 20
-9 0 -8 4 2 10 13 9 13 10 0 10 -13 0 -13 1 0 10 13 9 13 11 0 20 -13 9 -13
10 0 10 13 0 13 2 1 9 -12 8 -12 12 -2 25 11 13 11 16 0 17 -10 0 -11 2 -1 6
6 2 12 9 12 14 0 6 -4 7 -10 4 -5 -3 -10 -2 -10 4 0 5 6 12 13 15 9 5 9 7 -2
12 -11 5 -11 8 0 15 10 6 11 9 2 9 -7 0 -13 5 -13 11 0 6 6 9 14 6 8 -3 17 -1
20 6 2 7 5 4 5 -7 1 -10 12 -27 26 -38 14 -11 24 -27 23 -36 -2 -9 4 -17 12
-17 8 0 19 -10 26 -22 6 -13 14 -20 17 -17 4 4 10 -1 14 -12 10 -27 35 -54 50
-54 7 0 13 -7 13 -16 0 -8 4 -13 9 -10 5 3 11 -1 15 -9 3 -8 13 -15 21 -15 9
0 13 -4 10 -10 -5 -8 35 -40 96 -76 11 -6 16 -13 13 -16 -3 -3 13 -14 35 -24
22 -9 37 -22 34 -27 -3 -5 0 -7 8 -5 8 3 19 -1 24 -8 13 -16 104 -64 121 -64
8 0 14 -5 14 -11 0 -5 5 -7 10 -4 6 3 10 1 10 -5 0 -6 4 -9 9 -5 5 3 12 1 16
-5 3 -5 15 -10 26 -10 10 0 19 -5 19 -11 0 -6 7 -9 15 -5 8 3 15 1 15 -5 0 -6
5 -7 10 -4 6 3 10 1 10 -5 0 -6 4 -9 9 -5 5 3 12 1 16 -5 4 -6 11 -8 16 -4 6
3 26 -2 45 -11 20 -9 42 -14 50 -11 8 3 13 2 10 -3 -3 -5 1 -12 10 -15 10 -4
13 -2 8 7 -5 8 -2 7 9 -2 10 -8 20 -11 24 -8 3 4 12 2 20 -4 10 -9 13 -8 13 2
0 9 5 6 12 -6 11 -19 11 -19 19 0 5 14 8 15 8 5 1 -13 15 -16 68 -15 40 0 71
-5 79 -12 14 -14 28 -18 20 -5 -2 4 4 8 14 8 10 0 17 -3 15 -6 -2 -4 2 -7 10
-7 8 0 12 4 9 9 -3 4 2 8 11 8 9 0 13 -5 9 -11 -4 -7 1 -7 16 1 15 8 20 8 16
1 -4 -6 0 -11 9 -11 9 0 14 4 11 8 -3 5 1 9 9 9 8 0 12 -3 10 -7 -2 -3 11 -5
28 -4 18 1 32 3 32 4 0 1 8 3 18 5 9 2 15 0 13 -3 -2 -4 14 -8 35 -9 22 -2 38
1 35 5 -2 4 8 8 24 7 15 0 26 -3 24 -6 -2 -4 9 -7 24 -7 15 1 51 -1 79 -2 47
-3 51 -5 40 -19 -11 -14 -10 -15 7 -1 21 16 49 23 40 9 -3 -5 1 -10 8 -10 56
-5 84 -11 92 -19 6 -6 21 -10 34 -10 13 0 20 -4 17 -10 -4 -6 8 -10 29 -10 20
0 36 -4 36 -10 0 -5 9 -10 21 -10 11 0 27 -7 36 -16 9 -8 22 -13 30 -10 8 3
12 2 9 -3 -3 -5 2 -15 11 -22 14 -12 16 -12 8 1 -6 11 -4 11 11 -2 10 -9 24
-18 29 -20 6 -2 9 -6 8 -9 -1 -3 14 -11 33 -18 19 -7 34 -17 34 -22 0 -6 5 -7
10 -4 5 3 10 -1 10 -10 0 -9 5 -13 10 -10 6 3 10 1 10 -4 0 -6 5 -11 11 -11
15 0 39 -26 32 -34 -4 -3 1 -6 10 -6 9 0 22 -9 29 -20 7 -11 18 -20 25 -20 7
0 13 -5 13 -10 0 -15 46 -60 62 -60 10 0 10 -2 -1 -9 -11 -7 -9 -11 8 -20 11
-7 21 -18 21 -26 0 -8 7 -15 16 -15 8 0 12 -4 9 -10 -3 -5 -2 -10 4 -10 5 0
12 -8 16 -19 3 -10 14 -29 25 -41 11 -12 17 -27 14 -31 -3 -5 2 -9 10 -9 9 0
16 -9 16 -20 0 -11 5 -20 11 -20 5 0 8 -4 4 -9 -3 -5 2 -16 10 -24 8 -9 15
-25 15 -37 0 -12 4 -19 9 -15 6 3 9 -3 9 -12 -1 -24 5 -47 15 -54 4 -3 9 -16
10 -27 1 -12 6 -22 12 -22 5 0 3 -5 -5 -10 -13 -8 -13 -10 2 -10 11 0 15 -6
11 -20 -3 -11 -1 -20 5 -20 6 0 8 -13 6 -30 -3 -16 -1 -30 3 -30 5 0 9 -10 10
-22 0 -13 4 -45 8 -73 10 -75 12 -145 4 -150 -7 -5 -5 -41 5 -82 3 -16 1 -20
-10 -16 -10 4 -12 0 -8 -11 3 -9 10 -14 14 -11 10 6 8 -15 -3 -31 -9 -16 -5
-64 5 -58 4 3 8 -2 8 -11 0 -10 -5 -13 -12 -9 -7 5 -8 3 -3 -7 10 -15 15 -268
6 -284 -9 -17 -8 -55 1 -49 4 3 5 10 2 16 -4 7 -2 8 4 4 13 -8 5 -36 -10 -36
-7 0 -7 -5 -1 -12 8 -11 10 -52 3 -60 -7 -10 -7 -37 1 -32 5 3 9 -2 9 -11 0
-9 -4 -14 -9 -11 -8 5 -8 -22 -1 -31 5 -7 6 -89 1 -98 -9 -17 -8 -55 1 -49 4
3 5 10 2 16 -4 7 -2 8 4 4 13 -8 5 -36 -10 -36 -7 0 -7 -5 -1 -12 8 -11 10
-52 3 -60 -7 -10 -7 -37 1 -32 5 3 9 -2 9 -11 0 -10 -5 -13 -12 -9 -7 5 -8 3
-3 -6 10 -16 14 -240 4 -246 -8 -4 -4 -57 5 -72 3 -6 -2 -16 -11 -22 -17 -11
-17 -11 1 -6 17 6 17 5 5 -11 -9 -11 -10 -14 -1 -9 11 7 17 -5 13 -28 -4 -18
11 -46 21 -40 7 4 8 2 4 -4 -10 -16 30 -52 57 -52 13 0 28 -5 35 -12 9 -9 12
-9 12 1 0 7 4 10 9 7 18 -11 70 6 76 25 4 11 13 19 21 19 8 0 14 9 14 19 0 11
5 23 10 26 6 4 10 55 10 121 0 89 -3 114 -12 108 -10 -6 -10 -4 0 7 6 7 12 24
12 37 0 16 -4 21 -12 16 -10 -6 -10 -4 -1 7 19 19 19 803 1 793 -10 -6 -10 -4
0 7 17 18 17 183 0 173 -10 -6 -10 -4 0 7 8 9 12 50 12 127 0 88 -3 112 -12
106 -10 -6 -10 -4 0 7 14 16 17 83 2 74 -5 -3 -10 1 -10 10 0 9 4 13 10 10 6
-3 10 -2 10 4 0 5 -6 12 -12 14 -10 4 -9 8 2 16 10 7 11 11 3 11 -8 0 -13 14
-13 36 0 25 -4 33 -12 28 -10 -6 -10 -4 0 7 14 16 16 33 2 24 -10 -6 -14 20
-11 58 1 9 -2 17 -7 17 -9 0 -10 7 -13 55 -1 14 -6 25 -11 25 -5 0 -6 5 -3 10
3 6 1 10 -4 10 -6 0 -10 3 -10 8 1 4 1 21 -1 37 -1 26 -3 27 -10 10 -7 -17 -9
-16 -9 10 -1 17 -11 46 -23 65 -23 37 -25 41 -27 66 0 8 -5 13 -9 10 -4 -2 -8
4 -9 14 -2 25 -33 71 -43 65 -5 -3 -7 3 -6 12 2 10 -7 26 -18 36 -12 10 -14
16 -6 12 8 -4 4 3 -10 15 -14 12 -18 19 -10 15 8 -4 4 3 -10 14 -14 11 -21 21
-16 21 5 0 -8 15 -28 33 -20 18 -36 39 -36 46 0 7 -5 9 -10 6 -5 -3 -10 3 -10
15 0 12 -4 18 -10 15 -5 -3 -10 1 -10 10 0 9 -4 13 -10 10 -6 -3 -10 1 -10 9
0 9 -6 15 -12 14 -7 -2 -12 5 -10 14 2 12 -2 16 -13 12 -10 -4 -15 0 -15 12 0
16 -2 17 -10 4 -8 -12 -10 -11 -10 8 0 12 -3 21 -7 21 -19 -3 -34 2 -29 9 3 5
-7 15 -22 23 -15 8 -31 20 -35 26 -4 7 -14 13 -21 13 -8 0 -16 7 -20 15 -3 8
-12 15 -21 15 -8 0 -15 5 -15 10 0 6 -7 10 -15 10 -8 0 -15 5 -15 10 0 6 -7
10 -15 10 -8 0 -15 5 -15 10 0 6 -9 10 -21 10 -11 0 -17 5 -14 10 4 6 -5 10
-20 10 -15 0 -24 4 -20 10 5 9 -16 15 -38 11 -5 -1 -6 3 -2 9 3 5 1 10 -4 10
-6 0 -13 0 -16 0 -3 0 -21 9 -40 20 -24 13 -35 16 -35 7 0 -6 -5 -4 -11 6 -6
10 -22 17 -39 17 -16 0 -32 5 -35 10 -3 6 -19 10 -35 10 -16 0 -32 5 -35 10
-4 6 -11 8 -16 5 -5 -4 -9 -2 -9 3 0 5 -10 8 -22 7 -13 -1 -29 5 -36 14 -8 9
-11 10 -7 4 7 -14 -17 -18 -29 -6 -8 9 -28 12 -88 14 -26 1 -45 6 -42 11 8 12
-19 5 -28 -7 -5 -6 -11 -5 -17 4 -6 10 -13 11 -29 2 -11 -6 -23 -7 -26 -3 -6
10 -62 9 -72 -1 -4 -3 -11 -4 -17 0 -6 3 -30 8 -54 10 -33 2 -42 0 -37 -10 6
-9 5 -9 -7 0 -9 7 -20 8 -29 3 -8 -5 -19 -6 -24 -2 -19 12 -66 11 -66 -1 0 -8
-3 -7 -9 1 -4 8 -11 13 -15 13 -3 -1 -27 -1 -52 -1 -33 0 -43 3 -38 13 5 8 2
8 -9 -2 -13 -10 -17 -10 -17 -1 0 8 -9 11 -25 8 -14 -3 -28 -2 -30 2 -3 4 -19
6 -37 4 -18 -1 -27 0 -20 3 23 9 12 19 -23 18 -19 -1 -35 2 -35 7 0 4 -11 8
-24 8 -14 0 -27 4 -31 10 -3 5 -13 6 -22 3 -12 -5 -14 -3 -8 7 6 10 4 12 -8 7
-10 -3 -17 -2 -17 4 0 6 -4 8 -9 5 -5 -4 -11 -3 -13 1 -1 5 -22 18 -46 30 -23
12 -40 16 -36 10 3 -7 -1 -4 -9 5 -8 10 -17 15 -20 11 -4 -3 -7 -1 -7 6 0 7
-4 9 -10 6 -5 -3 -10 -1 -10 4 0 6 -6 10 -12 8 -7 -1 -12 4 -10 11 1 8 -2 11
-7 8 -5 -4 -16 1 -24 9 -9 8 -24 15 -34 15 -15 0 -16 2 -3 10 12 8 11 10 -6
10 -19 0 -59 33 -59 49 0 3 -4 5 -9 3 -4 -1 -17 7 -27 19 -10 12 -19 19 -19
15 0 -4 -11 4 -25 18 -14 14 -25 30 -25 36 0 6 -3 9 -7 7 -5 -3 -13 1 -20 8
-10 11 -10 15 0 18 7 3 1 6 -12 6 -13 1 -22 4 -18 7 3 3 -9 22 -26 41 -18 20
-31 40 -29 45 1 4 -5 11 -13 14 -8 4 -15 13 -15 21 0 8 -4 11 -10 8 -6 -4 -10
6 -10 22 0 22 -2 25 -10 13 -8 -12 -10 -11 -10 8 0 12 -4 22 -10 22 -5 0 -10
7 -10 15 0 8 -4 15 -9 15 -5 0 -12 11 -15 25 -4 17 -11 23 -19 19 -9 -5 -9 -4
0 6 8 9 7 17 -5 31 -10 11 -17 23 -18 27 -3 25 -18 62 -25 62 -5 0 -6 7 -3 15
4 8 1 21 -5 28 -9 12 -18 40 -20 70 -1 5 -5 6 -9 3 -5 -3 -9 1 -9 9 0 8 5 11
11 8 7 -4 7 -1 -1 8 -14 18 -20 60 -10 76 5 9 3 11 -6 7 -12 -4 -15 3 -13 36
1 23 -1 43 -4 45 -4 2 -5 18 -2 36 3 22 1 30 -7 25 -6 -4 -11 -2 -11 3 0 6 5
11 11 11 6 0 7 5 2 13 -11 16 -12 67 -1 61 4 -3 8 0 8 5 0 6 -6 11 -12 12 -10
0 -10 2 0 6 6 2 12 9 12 14 0 6 -6 7 -12 3 -9 -5 -9 -2 1 9 11 14 11 17 0 17
-12 0 -12 2 -1 9 8 4 1434 8 3170 8 2564 0 3159 -2 3169 -13z m-4872 -1614 c3
-5 1 -10 -4 -10 -6 0 -11 5 -11 10 0 6 2 10 4 10 3 0 8 -4 11 -10z m1220
-1249 c3 -5 2 -12 -3 -15 -5 -3 -9 1 -9 9 0 17 3 19 12 6z m-2678 -911 c1 -11
-2 -20 -7 -20 -6 0 -7 17 -1 38 3 8 7 -1 8 -18z m2678 -369 c3 -5 2 -12 -3
-15 -5 -3 -9 1 -9 9 0 17 3 19 12 6z m-2668 -1153 c6 -7 9 -21 8 -30 -2 -10 1
-18 6 -18 6 0 7 -4 4 -10 -3 -5 -1 -10 4 -10 6 0 11 -9 11 -20 0 -11 5 -20 11
-20 5 0 7 -4 4 -10 -3 -5 -1 -10 5 -10 6 0 9 -4 6 -9 -3 -5 1 -14 8 -21 8 -6
15 -19 15 -28 1 -39 5 -51 15 -49 6 1 10 -4 9 -10 -2 -7 2 -13 8 -13 5 0 8 -4
4 -9 -3 -5 -1 -12 5 -16 6 -4 8 -11 5 -16 -4 -5 -1 -9 5 -9 6 0 8 -4 5 -10 -3
-5 -1 -10 4 -10 6 0 10 -6 8 -12 -1 -7 4 -12 11 -10 7 1 12 -8 12 -23 0 -14 5
-25 10 -25 6 0 10 -12 10 -26 0 -14 4 -23 10 -19 6 3 10 -1 10 -9 0 -8 7 -22
15 -30 14 -13 16 -58 15 -326 0 -171 -1 -314 -1 -318 -1 -4 0 -9 1 -12 5 -12
6 -90 1 -90 -4 0 -5 -35 -4 -77 1 -43 2 -78 3 -78 1 0 3 -19 4 -42 1 -24 0
-43 -3 -43 -7 0 -6 -144 1 -156 3 -5 2 -33 -1 -62 -4 -29 -6 -54 -3 -56 2 -3
3 -82 2 -178 -2 -229 -2 -252 0 -258 5 -13 5 -90 1 -90 -4 0 -6 -20 -6 -45 0
-25 3 -45 6 -45 4 0 4 -15 2 -33 -4 -33 -6 -98 -3 -107 5 -13 5 -90 1 -90 -7
0 -5 -225 2 -236 2 -5 1 -33 -2 -62 -4 -29 -5 -55 -2 -57 10 -10 7 -85 -3 -85
-7 0 -7 -3 0 -10 5 -5 8 -25 6 -44 l-4 -33 -116 -1 c-123 -1 -152 3 -152 19 0
6 5 7 10 4 13 -8 13 8 -1 22 -8 8 -8 17 0 32 9 16 9 21 -1 22 -10 0 -10 2 0 6
6 2 12 9 12 14 0 6 -4 8 -9 4 -10 -6 -7 27 4 45 3 6 0 10 -7 11 -10 0 -10 2 0
6 6 2 12 9 12 14 0 6 -4 8 -9 4 -10 -6 -7 27 4 45 3 6 0 10 -7 11 -10 0 -10 2
0 6 6 2 12 9 12 14 0 6 -4 8 -9 4 -10 -6 -7 27 4 45 3 6 0 10 -7 11 -10 0 -10
2 0 6 6 2 12 9 12 14 0 6 -4 8 -9 4 -10 -6 -7 27 4 45 3 6 0 10 -7 11 -10 0
-10 2 0 6 6 2 12 9 12 14 0 6 -4 8 -9 4 -10 -6 -7 27 4 45 3 6 0 10 -7 11 -10
0 -10 2 0 6 6 2 12 9 12 14 0 6 -4 8 -9 4 -10 -6 -7 27 4 45 3 6 0 10 -7 11
-10 0 -10 2 0 6 6 2 12 9 12 14 0 6 -4 8 -9 4 -10 -6 -7 27 4 45 3 6 0 10 -7
11 -10 0 -10 2 0 6 6 2 12 9 12 14 0 6 -4 8 -9 4 -10 -6 -7 27 4 45 3 6 0 10
-7 11 -10 0 -10 2 0 6 6 2 12 9 12 14 0 6 -4 8 -9 4 -10 -6 -7 27 4 45 3 6 0
10 -7 11 -10 0 -10 2 0 6 6 2 12 9 12 14 0 6 -4 8 -9 4 -10 -6 -7 27 4 45 3 6
0 10 -7 11 -10 0 -10 2 0 6 6 2 12 9 12 14 0 6 -4 8 -9 4 -10 -6 -7 27 4 45 3
6 0 10 -7 11 -10 0 -10 2 0 6 6 2 12 9 12 14 0 6 -4 8 -8 5 -4 -2 -8 6 -8 19
0 13 4 21 8 19 4 -3 8 0 8 5 0 6 -6 11 -12 11 -9 0 -8 4 2 10 13 9 13 10 0 10
-13 0 -13 1 0 11 12 9 13 12 1 16 -11 5 -11 7 0 14 12 7 11 9 -1 9 -13 0 -13
1 0 10 10 6 11 10 3 10 -7 0 -13 5 -13 11 0 5 6 7 13 3 7 -5 6 0 -3 11 -9 11
-10 16 -2 11 6 -4 12 -2 12 3 0 6 -6 11 -12 11 -9 0 -8 4 2 10 13 9 13 11 0
20 -13 9 -13 10 0 10 13 0 13 1 0 10 -10 6 -11 10 -2 10 6 0 12 9 12 20 0 11
-6 20 -12 20 -9 0 -8 4 2 10 13 9 13 10 0 10 -13 0 -13 1 0 11 12 9 13 12 1
16 -11 5 -11 7 0 14 12 7 11 9 -1 9 -13 0 -13 1 0 10 10 6 11 10 3 10 -7 0
-13 5 -13 11 0 5 6 7 13 3 7 -5 6 0 -3 11 -9 11 -10 16 -2 11 6 -4 12 -2 12 3
0 6 -6 11 -12 11 -9 0 -8 4 2 10 13 9 13 11 0 20 -13 9 -13 10 0 10 13 0 13 1
0 10 -10 6 -11 10 -2 10 6 0 12 9 12 20 0 11 -6 20 -12 20 -9 0 -8 4 2 10 13
9 13 10 0 10 -13 0 -13 1 0 11 12 9 13 12 1 16 -11 5 -11 7 0 14 12 7 11 9 -1
9 -13 0 -13 1 0 10 10 6 11 10 3 10 -7 0 -13 5 -13 11 0 5 6 7 13 3 7 -5 6 0
-3 11 -9 11 -10 16 -2 11 6 -4 12 -2 12 3 0 6 -6 11 -12 11 -9 0 -8 4 2 10 13
9 13 11 0 20 -13 9 -13 10 0 10 13 0 13 1 0 10 -10 6 -11 10 -2 10 6 0 12 9
12 20 0 11 -6 20 -12 20 -9 0 -8 4 2 10 13 9 13 10 0 10 -13 0 -13 1 0 10 13
9 13 11 0 20 -13 9 -13 10 0 10 13 0 13 1 0 10 -13 9 -13 10 0 11 10 0 11 2 3
6 -7 2 -13 9 -13 14 0 6 6 7 13 3 7 -5 6 0 -3 11 -9 11 -10 16 -2 11 6 -4 12
-2 12 3 0 6 -6 11 -12 11 -9 0 -8 4 2 10 13 9 13 11 0 20 -13 9 -13 10 0 10
13 0 13 1 0 10 -10 6 -11 10 -2 10 6 0 12 9 12 20 0 11 -6 20 -12 20 -9 0 -8
4 2 10 13 9 13 10 0 10 -13 0 -13 1 0 11 12 9 13 12 1 16 -11 5 -11 7 0 14 12
7 11 9 -1 9 -13 0 -13 1 0 10 10 6 11 10 3 10 -7 0 -13 5 -13 11 0 5 6 7 13 3
7 -5 6 0 -3 11 -9 11 -10 16 -2 11 6 -4 12 -2 12 3 0 6 -6 11 -12 11 -9 0 -8
4 2 10 13 9 13 11 0 20 -13 9 -13 10 0 10 13 0 13 1 0 10 -10 6 -11 10 -2 10
6 0 12 9 12 20 0 11 -6 20 -12 21 -9 0 -9 2 1 6 11 5 11 7 0 14 -10 6 -11 9
-1 9 6 0 12 5 12 11 0 5 -4 8 -8 5 -5 -3 -9 1 -9 9 0 8 4 12 9 9 4 -3 8 0 8 5
0 6 -6 11 -12 11 -9 0 -8 4 2 10 13 9 13 10 0 10 -13 0 -13 1 0 11 12 9 13 12
1 16 -11 5 -11 7 0 14 12 7 11 9 -1 9 -13 0 -13 1 0 10 10 6 11 10 3 10 -7 0
-13 5 -13 11 0 5 6 7 13 3 7 -5 6 0 -3 11 -9 11 -10 16 -2 11 6 -4 12 -2 12 3
0 6 -6 11 -12 11 -9 0 -8 4 2 10 13 9 13 11 0 20 -13 9 -13 10 0 10 13 0 13 1
0 10 -10 6 -11 10 -2 10 6 0 12 9 12 20 0 11 -6 20 -12 20 -9 0 -8 4 2 10 13
9 13 10 0 10 -13 0 -13 1 0 10 13 9 13 11 0 20 -13 9 -13 10 0 11 12 0 12 2 1
6 -11 5 -11 7 0 14 10 6 11 9 2 9 -7 0 -13 5 -13 11 0 5 6 7 13 3 7 -5 6 0 -3
11 -9 11 -10 16 -2 11 6 -4 12 -2 12 3 0 6 -6 11 -12 11 -9 0 -8 4 2 10 13 9
13 11 0 20 -13 9 -13 10 0 10 13 0 13 1 0 10 -10 6 -11 10 -2 10 6 0 12 9 12
20 0 11 -6 20 -12 20 -9 0 -8 4 2 10 13 9 13 10 0 10 -13 0 -13 1 0 11 12 9
13 12 1 16 -11 5 -11 7 0 14 12 7 11 9 -1 9 -13 0 -13 1 0 10 10 6 11 10 3 10
-7 0 -13 5 -13 11 0 5 6 7 13 3 7 -5 6 0 -3 11 -9 11 -10 16 -2 11 6 -4 12 -2
12 3 0 6 -6 11 -12 11 -9 0 -8 4 2 11 12 9 13 12 1 16 -11 5 -11 7 0 14 10 6
11 9 2 9 -7 0 -13 5 -13 11 0 5 5 7 10 4 6 -3 10 -2 10 4 0 5 -5 13 -10 16 -8
5 -7 12 2 23 10 12 10 14 1 8 -19 -11 -15 5 5 20 16 13 16 13 0 14 -10 0 -18
5 -18 10 0 14 16 12 27 -2z m6311 -3 c2 -8 3 -26 4 -40 1 -14 6 -25 11 -25 4
0 5 -5 1 -12 -10 -16 -11 -138 -1 -138 4 0 3 -10 -4 -21 -8 -16 -8 -20 1 -14
9 6 9 2 1 -14 -8 -15 -9 -21 -1 -21 6 0 8 -4 5 -10 -12 -20 -14 -50 -2 -50 8
0 8 -3 -1 -9 -8 -4 -14 -12 -14 -16 0 -4 6 -12 14 -16 7 -5 8 -9 2 -9 -14 0
-14 -30 0 -30 6 0 5 -4 -2 -9 -8 -4 -14 -12 -14 -16 0 -4 6 -12 14 -16 7 -5 8
-9 2 -9 -14 0 -14 -30 0 -30 6 0 5 -4 -2 -9 -8 -4 -14 -12 -14 -16 0 -4 6 -12
14 -16 7 -5 8 -9 2 -9 -6 0 -11 -7 -11 -15 0 -8 5 -15 11 -15 6 0 5 -4 -2 -9
-8 -4 -14 -12 -14 -16 0 -4 6 -12 14 -16 7 -5 8 -9 2 -9 -6 0 -11 -7 -11 -15
0 -8 5 -15 11 -15 6 0 5 -4 -2 -9 -8 -4 -14 -12 -14 -16 0 -4 6 -12 14 -16 7
-5 8 -9 2 -9 -6 0 -11 -7 -11 -15 0 -8 5 -15 11 -15 6 0 5 -4 -2 -9 -8 -4 -14
-12 -14 -16 0 -4 6 -12 14 -16 7 -5 8 -9 2 -9 -6 0 -11 -7 -11 -15 0 -8 5 -15
11 -15 6 0 5 -4 -2 -9 -8 -4 -14 -12 -14 -16 0 -4 6 -12 14 -16 7 -5 8 -9 2
-9 -6 0 -11 -7 -11 -15 0 -8 5 -15 11 -15 6 0 5 -4 -2 -9 -8 -4 -14 -12 -14
-16 0 -4 6 -12 14 -16 7 -5 8 -9 2 -9 -6 0 -11 -7 -11 -15 0 -8 5 -15 11 -15
6 0 5 -4 -2 -9 -8 -4 -14 -12 -14 -16 0 -4 6 -12 14 -16 7 -5 8 -9 2 -9 -6 0
-11 -7 -11 -15 0 -8 5 -15 11 -15 6 0 5 -4 -2 -9 -8 -4 -14 -12 -14 -16 0 -4
6 -12 14 -16 7 -5 8 -9 2 -9 -6 0 -11 -7 -11 -15 0 -8 5 -15 11 -15 6 0 5 -4
-2 -9 -8 -4 -14 -12 -14 -16 0 -4 6 -12 14 -16 7 -5 8 -9 2 -9 -6 0 -11 -7
-11 -15 0 -8 5 -15 11 -15 6 0 5 -4 -2 -9 -8 -4 -14 -12 -14 -16 0 -4 6 -12
14 -16 7 -5 8 -9 2 -9 -6 0 -11 -7 -11 -15 0 -8 5 -15 11 -15 6 0 5 -4 -2 -9
-17 -11 -17 -21 0 -32 7 -5 8 -9 2 -9 -6 0 -11 -7 -11 -15 0 -8 5 -15 11 -15
6 0 5 -4 -2 -9 -8 -4 -14 -12 -14 -16 0 -4 6 -12 14 -16 7 -5 8 -9 2 -9 -14 0
-14 -30 0 -30 6 0 5 -4 -2 -9 -8 -4 -14 -12 -14 -16 0 -4 6 -12 14 -16 7 -5 8
-9 2 -9 -6 0 -11 -7 -11 -15 0 -8 5 -15 11 -15 6 0 5 -4 -2 -9 -8 -4 -14 -12
-14 -16 0 -4 6 -12 14 -16 7 -5 8 -9 2 -9 -6 0 -11 -7 -11 -15 0 -8 5 -15 11
-15 6 0 5 -4 -2 -9 -8 -4 -14 -12 -14 -16 0 -4 6 -12 14 -16 7 -5 8 -9 2 -9
-6 0 -11 -7 -11 -15 0 -8 5 -15 11 -15 6 0 5 -4 -2 -9 -8 -4 -14 -12 -14 -16
0 -4 6 -12 14 -16 7 -5 8 -9 2 -9 -6 0 -11 -7 -11 -15 0 -8 5 -15 11 -15 6 0
5 -4 -2 -9 -8 -4 -14 -12 -14 -16 0 -4 6 -12 14 -16 7 -5 8 -9 2 -9 -6 0 -11
-7 -11 -15 0 -8 5 -15 11 -15 6 0 5 -4 -2 -9 -17 -11 -17 -21 0 -32 7 -5 8 -9
2 -9 -6 0 -11 -7 -11 -15 0 -8 5 -15 11 -15 6 0 5 -4 -2 -9 -8 -4 -14 -12 -14
-16 0 -4 6 -12 14 -16 7 -5 8 -9 2 -9 -6 0 -11 -7 -11 -15 0 -8 5 -15 11 -15
6 0 5 -4 -2 -9 -17 -10 -14 -22 7 -39 13 -10 14 -12 1 -10 -8 2 -15 -4 -15
-12 0 -8 6 -14 13 -12 8 1 11 -2 7 -8 -3 -6 -11 -7 -17 -4 -6 4 -6 -1 1 -14 6
-12 8 -23 4 -25 -14 -9 -8 -72 6 -69 7 1 10 -2 6 -8 -3 -6 -11 -7 -17 -4 -6 4
-6 -1 1 -14 6 -12 8 -23 4 -25 -14 -9 -8 -72 6 -69 7 1 10 -2 6 -8 -3 -6 -11
-7 -17 -4 -6 4 -6 -1 1 -14 6 -12 8 -23 4 -25 -14 -9 -8 -72 6 -69 7 1 10 -2
6 -8 -3 -6 -11 -7 -17 -4 -6 4 -6 -1 1 -14 6 -12 8 -23 4 -25 -14 -9 -8 -72 6
-69 7 1 10 -2 6 -8 -3 -6 -11 -7 -17 -4 -6 4 -6 -1 1 -14 6 -12 8 -23 4 -25
-14 -9 -8 -72 6 -69 7 1 10 -2 6 -8 -3 -6 -11 -7 -17 -4 -6 4 -6 -1 1 -14 6
-12 8 -23 4 -25 -14 -9 -8 -72 6 -69 7 1 10 -2 6 -8 -3 -6 -11 -7 -17 -4 -6 4
-6 -1 1 -14 6 -12 8 -23 4 -25 -14 -9 -8 -72 6 -69 7 1 10 -2 6 -8 -3 -6 -11
-7 -17 -4 -6 4 -6 -1 1 -14 6 -12 8 -23 3 -26 -4 -2 -7 -29 -6 -59 l1 -54
-123 -1 c-121 0 -124 0 -124 22 0 12 -6 28 -12 35 -10 11 -10 13 0 7 7 -4 12
-1 12 8 0 9 -6 16 -12 17 -10 0 -10 2 0 6 6 2 12 11 12 19 0 8 -6 14 -12 14
-9 0 -8 4 2 10 13 9 13 11 0 20 -8 5 -10 10 -4 10 6 0 11 14 12 30 0 17 -4 30
-9 30 -5 0 -9 5 -9 11 0 5 4 8 9 4 5 -3 9 8 9 25 -1 16 -6 30 -12 30 -6 0 -4
5 4 10 13 9 13 11 0 20 -10 6 -11 10 -2 10 6 0 12 7 12 15 0 8 -6 15 -12 15
-9 0 -8 4 2 10 13 9 13 11 0 20 -8 5 -10 10 -4 10 6 0 11 14 12 30 0 17 -4 30
-9 30 -5 0 -9 5 -9 11 0 5 4 8 9 4 5 -3 9 8 9 25 -1 16 -6 30 -12 30 -6 0 -4
5 4 10 13 9 13 11 0 20 -10 6 -11 10 -2 10 6 0 12 7 12 15 0 8 -6 15 -12 15
-9 0 -8 4 2 10 13 8 13 13 2 31 -8 11 -9 18 -3 14 6 -3 11 1 11 9 0 9 -6 16
-12 16 -9 0 -8 4 2 10 13 8 13 13 2 31 -8 11 -9 18 -3 14 15 -9 14 18 -1 34
-10 11 -10 13 0 7 7 -4 12 -2 12 6 0 8 -6 20 -12 27 -10 11 -10 13 0 7 7 -4
12 -2 12 6 0 8 -6 20 -12 27 -10 11 -10 13 0 7 7 -4 12 -2 12 6 0 8 -6 20 -12
27 -10 11 -10 13 0 7 7 -4 12 -2 12 6 0 8 -6 20 -12 27 -10 11 -10 13 0 7 7
-4 12 -2 12 6 0 8 -6 20 -12 27 -10 11 -10 13 0 7 7 -4 12 -2 12 6 0 8 -6 20
-12 27 -10 11 -10 12 -1 7 10 -5 12 4 11 33 -1 23 -6 41 -12 41 -6 0 -4 5 4
10 13 9 13 11 0 20 -10 6 -11 10 -2 10 6 0 12 7 12 15 0 8 -6 15 -12 15 -9 0
-8 4 2 10 13 9 13 11 0 20 -8 5 -10 10 -4 10 6 0 11 14 12 30 0 17 -4 30 -9
30 -5 0 -9 5 -9 11 0 5 5 7 10 4 14 -9 12 18 -2 34 -10 11 -10 13 0 7 7 -4 12
-2 12 6 0 8 -6 20 -12 27 -9 10 -9 12 -1 7 8 -4 11 3 11 24 -1 16 -6 30 -12
30 -6 0 -4 5 4 10 13 9 13 11 0 20 -10 6 -11 10 -2 10 6 0 12 7 12 15 0 8 -6
15 -12 15 -9 0 -8 4 2 10 13 9 13 11 0 20 -8 5 -10 10 -4 10 6 0 11 14 12 30
0 17 -4 30 -9 30 -5 0 -9 5 -9 11 0 5 4 7 10 4 13 -8 9 48 -5 57 -6 5 -6 8 2
8 16 0 14 70 -1 70 -6 0 -4 5 4 10 13 9 13 11 0 20 -10 6 -11 10 -2 10 6 0 12
7 12 15 0 8 -6 15 -12 15 -9 0 -8 4 2 10 13 9 13 11 0 20 -8 5 -10 10 -4 10 6
0 11 13 12 30 0 17 -4 30 -9 30 -5 0 -9 5 -9 11 0 5 5 7 10 4 14 -9 12 18 -2
34 -10 11 -10 13 0 7 7 -4 12 -2 12 6 0 8 -6 20 -12 27 -9 10 -9 12 -1 7 8 -4
11 3 11 24 -1 16 -6 30 -12 30 -6 0 -4 5 4 10 13 9 13 11 0 20 -10 6 -11 10
-2 10 6 0 12 7 12 15 0 8 -6 15 -12 15 -9 0 -8 4 2 10 13 9 13 11 0 20 -8 5
-10 10 -4 10 6 0 11 13 12 30 0 17 -4 30 -9 30 -5 0 -9 5 -9 11 0 5 4 7 10 4
13 -8 9 48 -5 57 -6 5 -6 8 2 8 16 0 14 70 -1 70 -6 0 -4 5 4 10 13 9 13 11 0
20 -10 6 -11 10 -2 10 6 0 12 7 12 15 0 8 -6 15 -12 15 -9 0 -8 4 2 10 13 9
13 11 0 20 -8 5 -10 10 -4 10 6 0 11 14 12 30 0 17 -4 30 -9 30 -5 0 -9 5 -9
11 0 5 4 7 10 4 6 -3 9 8 9 27 -2 57 0 65 11 48 8 -12 10 -9 10 13 0 15 5 27
10 27 6 0 10 9 10 20 0 11 5 20 10 20 6 0 10 7 10 15 0 8 4 15 10 15 5 0 6 7
3 17 -4 11 -3 14 5 9 7 -4 12 -1 12 8 0 25 2 30 19 44 9 8 10 11 4 7 -9 -4
-11 -1 -7 9 3 9 10 16 14 16 8 0 23 38 21 53 -1 4 4 7 11 7 6 0 8 3 5 6 -3 4
-1 16 5 28 7 11 13 26 13 31 1 6 5 9 11 8 5 -1 11 13 12 30 2 17 7 34 12 37 5
3 11 19 14 35 5 36 5 35 9 35 2 0 4 -7 5 -15z m-512 -937 c-1 -7 -4 -17 -7
-23 -8 -14 -4 -86 6 -109 5 -12 5 -17 -1 -13 -6 3 -10 -5 -10 -18 0 -13 4 -21
8 -19 4 3 8 -2 8 -11 0 -9 -4 -14 -9 -10 -9 5 -9 -2 -1 -40 1 -5 1 -12 0 -15
-6 -14 -5 -127 2 -117 5 8 8 4 8 -11 0 -13 -4 -21 -8 -18 -4 2 -8 -11 -8 -29
0 -18 4 -31 8 -29 4 3 8 -2 8 -11 0 -9 -3 -14 -7 -12 -5 3 -8 -10 -9 -29 0
-21 3 -30 8 -22 5 9 8 6 8 -10 0 -13 -4 -21 -8 -18 -4 2 -8 -11 -8 -29 0 -18
4 -31 8 -29 4 3 8 -2 8 -11 0 -9 -3 -14 -7 -12 -5 3 -8 -17 -8 -43 -1 -27 3
-46 7 -44 4 3 8 0 8 -5 0 -6 -4 -11 -10 -11 -5 0 -10 -5 -10 -11 0 -5 5 -7 10
-4 6 3 10 -1 10 -10 0 -9 -4 -14 -8 -11 -4 2 -8 -6 -8 -19 0 -13 4 -21 8 -19
4 3 8 -2 8 -11 0 -9 -4 -14 -9 -10 -9 5 -9 -2 -1 -40 1 -5 1 -12 0 -15 -6 -14
-5 -127 2 -117 5 8 8 4 8 -11 0 -13 -4 -21 -8 -18 -4 2 -8 -11 -8 -29 0 -18 4
-31 8 -29 4 3 8 -2 8 -11 0 -9 -3 -14 -7 -12 -5 3 -8 -17 -8 -43 -1 -27 3 -46
7 -44 4 3 8 0 8 -5 0 -6 -4 -11 -10 -11 -5 0 -10 -5 -10 -11 0 -5 5 -7 10 -4
6 3 10 -1 10 -10 0 -9 -4 -14 -8 -11 -4 2 -8 -6 -8 -19 0 -13 4 -21 8 -19 4 3
8 -2 8 -11 0 -9 -4 -14 -9 -10 -9 5 -9 -2 -1 -40 1 -5 1 -12 0 -15 -6 -14 -5
-127 2 -117 5 8 8 4 8 -11 0 -13 -4 -21 -8 -18 -4 2 -8 -11 -8 -29 0 -18 4
-31 8 -29 4 3 8 -2 8 -11 0 -9 -3 -14 -7 -12 -5 3 -8 -17 -8 -43 -1 -27 3 -46
7 -44 4 3 8 0 8 -5 0 -6 -4 -11 -10 -11 -5 0 -10 -5 -10 -11 0 -5 5 -7 10 -4
6 3 10 -1 10 -10 0 -9 -4 -14 -8 -11 -4 2 -8 -6 -8 -19 0 -13 4 -21 8 -19 4 3
8 -2 8 -11 0 -9 -4 -14 -9 -10 -9 5 -9 -2 -1 -40 1 -5 1 -12 0 -15 -6 -14 -5
-127 2 -117 5 8 8 4 8 -11 0 -13 -4 -21 -8 -18 -4 2 -8 -11 -8 -29 0 -18 4
-31 8 -29 4 3 8 -2 8 -11 0 -9 -3 -14 -7 -12 -5 3 -8 -12 -8 -33 0 -21 3 -36
6 -34 3 1 6 -3 6 -10 0 -10 -32 -13 -139 -13 -76 -1 -141 3 -144 8 -3 6 -5 50
-5 99 1 65 -3 90 -12 90 -9 0 -9 2 0 8 16 10 16 384 -1 394 -8 6 -8 8 1 8 17
0 17 230 0 230 -9 0 -9 2 0 8 17 11 17 704 0 714 -9 6 -9 8 0 8 17 0 17 221 0
232 -9 6 -9 8 1 8 7 0 12 12 12 29 0 20 10 37 35 58 19 17 35 35 35 40 0 6 10
18 23 27 12 9 16 14 8 10 -9 -5 -12 -3 -7 4 4 7 13 12 21 12 7 0 17 9 20 20 3
11 11 20 16 20 5 0 9 7 9 16 0 8 5 12 10 9 6 -3 10 -1 10 5 0 6 7 18 15 27 8
8 13 19 10 24 -4 5 1 6 9 3 9 -3 16 -1 16 5 0 21 3 26 29 48 30 27 30 27 27
11z m-5263 -12 c9 -7 17 -18 17 -25 0 -6 5 -11 10 -11 6 0 10 -7 10 -16 0 -8
5 -12 10 -9 6 3 10 -1 10 -9 0 -8 8 -20 18 -25 9 -6 13 -11 8 -11 -5 0 1 -9
14 -20 13 -11 20 -20 16 -20 -4 0 -1 -6 6 -14 9 -10 15 -11 20 -2 5 6 8 2 8
-10 0 -12 7 -25 16 -28 8 -3 13 -10 10 -15 -3 -5 1 -12 10 -15 8 -3 12 -10 9
-16 -3 -6 1 -7 9 -4 15 6 21 -6 17 -29 -1 -5 3 -6 8 -3 15 10 51 -48 40 -65
-13 -20 -11 -31 4 -23 9 6 9 5 0 -8 -7 -8 -10 -18 -6 -22 11 -11 12 -37 2 -30
-6 3 -8 -6 -5 -23 2 -15 5 -28 6 -28 1 0 3 -8 5 -18 2 -9 -1 -15 -6 -11 -5 3
-9 -2 -9 -11 0 -10 5 -13 13 -9 9 6 9 5 0 -8 -7 -8 -10 -18 -6 -22 10 -10 13
-37 3 -31 -10 6 -6 -107 5 -124 5 -10 4 -12 -3 -7 -8 5 -11 0 -8 -16 3 -13 5
-23 6 -23 1 0 3 -8 5 -18 2 -9 -1 -15 -6 -11 -5 3 -9 -2 -9 -11 0 -10 5 -13
13 -9 9 6 9 4 1 -7 -8 -11 -12 -134 -4 -134 1 0 4 -10 5 -22 1 -12 -2 -20 -6
-17 -5 3 -9 -2 -9 -11 0 -10 5 -13 13 -9 9 6 9 5 0 -8 -7 -8 -10 -18 -6 -22
10 -10 13 -37 3 -31 -5 3 -7 -16 -5 -42 2 -27 4 -48 5 -48 1 0 3 -8 5 -18 2
-9 -1 -15 -6 -11 -5 3 -9 -2 -9 -11 0 -10 5 -13 13 -9 9 6 9 4 1 -7 -8 -11
-12 -92 -4 -101 7 -10 7 -37 -1 -32 -5 3 -9 -2 -9 -11 0 -10 5 -13 13 -9 9 6
9 4 1 -7 -8 -12 -12 -53 -4 -61 7 -10 7 -37 -1 -32 -5 3 -9 -2 -9 -11 0 -10 5
-13 13 -9 9 6 9 5 0 -8 -7 -8 -10 -18 -6 -22 10 -10 13 -37 3 -31 -10 6 -6
-107 5 -124 5 -10 4 -12 -3 -7 -8 5 -11 0 -8 -16 3 -13 5 -23 6 -23 1 0 3 -8
5 -18 2 -9 -1 -15 -6 -11 -5 3 -9 -2 -9 -11 0 -10 5 -13 13 -9 9 6 9 4 1 -7
-8 -11 -12 -134 -4 -134 1 0 4 -10 5 -22 1 -12 -2 -20 -6 -17 -5 3 -9 -2 -9
-11 0 -10 5 -13 13 -9 9 6 9 5 0 -8 -7 -8 -10 -18 -6 -22 10 -10 13 -37 3 -31
-4 2 -7 -15 -6 -39 0 -27 5 -42 11 -38 5 3 3 -2 -5 -13 -8 -10 -14 -20 -12
-22 12 -17 -16 -21 -135 -20 -137 2 -138 2 -141 26 -2 13 1 28 7 34 14 14 14
27 0 27 -5 0 -7 -5 -3 -12 4 -7 3 -8 -5 -4 -9 6 -9 13 3 31 11 17 12 25 3 34
-8 8 -8 19 0 42 11 27 10 29 -4 17 -15 -12 -15 -10 -1 17 12 23 13 34 4 47 -8
14 -8 23 2 38 15 24 15 30 1 30 -5 0 -7 -5 -3 -12 4 -7 3 -8 -5 -4 -9 6 -8 13
3 31 10 15 12 26 6 30 -6 3 -10 11 -10 16 0 6 4 8 8 5 5 -3 9 1 9 9 0 8 -4 12
-8 10 -4 -3 -10 2 -13 11 -3 8 -2 12 4 9 6 -3 10 -3 11 2 0 4 2 18 3 31 2 12
-1 22 -6 22 -4 0 -8 -5 -8 -12 0 -6 -3 -8 -6 -5 -4 4 0 17 9 30 12 18 13 27 4
36 -8 8 -8 19 0 42 11 27 10 29 -4 17 -15 -12 -15 -10 -1 17 12 23 13 34 4 47
-8 14 -8 23 2 38 15 24 15 30 1 30 -5 0 -7 -5 -3 -12 4 -7 3 -8 -5 -4 -9 6 -9
13 3 31 11 17 12 25 3 34 -8 8 -8 19 0 42 11 27 10 29 -4 17 -15 -12 -15 -10
-1 17 12 23 13 34 4 47 -8 14 -8 23 2 38 15 24 15 30 1 30 -5 0 -7 -5 -3 -12
4 -7 3 -8 -5 -4 -9 6 -8 13 3 31 10 15 12 26 6 30 -6 3 -10 11 -10 16 0 6 6 7
13 3 7 -5 7 -1 -2 10 -15 17 -23 68 -10 60 13 -7 16 21 5 39 -8 12 -7 22 2 37
15 24 15 30 1 30 -5 0 -7 -5 -3 -12 4 -7 3 -8 -5 -4 -9 6 -9 13 3 31 11 17 12
25 3 34 -8 8 -8 19 0 42 11 27 10 29 -4 17 -15 -12 -15 -10 -1 17 12 23 13 34
4 47 -8 14 -8 23 2 38 15 24 15 30 1 30 -5 0 -7 -5 -3 -12 4 -7 3 -8 -5 -4 -9
6 -9 13 3 31 11 17 12 25 3 34 -8 8 -8 19 0 42 11 27 10 29 -4 17 -15 -12 -15
-10 -1 17 12 23 13 34 4 47 -8 14 -8 23 2 38 15 24 15 30 1 30 -5 0 -7 -5 -3
-12 4 -7 3 -8 -5 -4 -9 6 -9 13 3 31 11 17 12 25 3 34 -8 8 -8 19 0 42 11 27
10 29 -4 17 -15 -12 -15 -10 -1 17 12 23 13 34 4 47 -8 14 -8 23 2 38 15 24
15 30 1 30 -5 0 -7 -5 -3 -12 4 -7 3 -8 -5 -4 -9 6 -9 13 3 31 11 17 12 25 3
34 -8 8 -8 19 0 42 11 27 10 29 -4 17 -14 -12 -14 -10 0 19 11 21 13 34 6 38
-7 5 -6 12 3 23 11 13 10 15 -5 9 -13 -5 -16 -3 -10 6 11 17 10 31 -2 39 -6 5
-6 8 0 8 6 -1 18 -7 28 -14z m-13 -320 c0 -3 -4 -8 -10 -11 -5 -3 -10 -1 -10
4 0 6 5 11 10 11 6 0 10 -2 10 -4z m0 -240 c0 -3 -4 -8 -10 -11 -5 -3 -10 -1
-10 4 0 6 5 11 10 11 6 0 10 -2 10 -4z m4713 -79 c-10 -11 -13 -17 -7 -14 15
9 27 -20 12 -29 -7 -5 -8 -2 -3 7 5 8 4 11 0 6 -11 -9 -14 -48 -4 -42 3 3 9
-7 12 -20 2 -14 0 -28 -6 -32 -6 -4 -7 -1 -2 8 5 8 4 11 0 6 -11 -10 -14 -48
-3 -41 4 3 8 1 8 -5 0 -5 -4 -13 -10 -16 -6 -4 -3 -17 7 -33 14 -21 14 -24 2
-15 -12 10 -15 8 -14 -17 0 -16 4 -32 8 -36 12 -12 8 -26 -5 -18 -7 4 -4 -3 6
-15 17 -19 17 -21 3 -15 -15 5 -16 3 -7 -21 12 -32 12 -38 2 -31 -10 6 -9 -50
1 -60 12 -12 8 -26 -5 -18 -7 4 -4 -3 6 -15 15 -16 16 -20 5 -16 -10 4 -16 0
-16 -9 0 -8 4 -13 9 -10 11 7 10 -3 -2 -26 -7 -13 -7 -21 0 -25 15 -9 12 -27
-2 -19 -7 4 -5 -2 5 -13 16 -19 14 -59 -2 -48 -9 5 -7 -32 2 -41 12 -12 8 -26
-5 -18 -7 4 -5 -2 5 -13 16 -19 14 -59 -2 -48 -9 5 -7 -32 2 -41 4 -4 1 -14
-6 -22 -9 -13 -9 -14 1 -8 15 9 15 1 2 -24 -7 -13 -7 -21 0 -25 15 -9 12 -27
-2 -19 -7 4 -5 -2 5 -13 16 -19 14 -59 -2 -48 -9 5 -7 -32 2 -41 12 -12 8 -26
-5 -18 -7 4 -5 -2 5 -13 16 -19 14 -59 -2 -48 -9 5 -7 -32 2 -41 4 -4 1 -14
-6 -22 -9 -13 -9 -14 1 -8 15 9 15 1 2 -24 -7 -13 -7 -21 0 -25 15 -9 12 -27
-2 -19 -7 4 -5 -2 5 -13 16 -19 14 -59 -2 -48 -9 5 -7 -32 2 -41 12 -12 8 -26
-5 -18 -7 4 -5 -2 5 -13 16 -19 14 -59 -2 -48 -9 5 -7 -32 2 -41 4 -4 1 -14
-6 -22 -10 -13 -9 -14 2 -7 11 6 13 4 8 -8 -3 -9 -1 -18 6 -21 7 -2 4 -5 -7
-5 -14 -1 -16 -4 -8 -14 9 -10 -16 -13 -133 -15 l-143 -2 4 51 c3 35 1 48 -7
43 -8 -4 -8 -1 -2 12 11 23 10 64 -1 83 -6 10 -5 12 2 7 7 -4 12 -1 12 9 0 9
-5 13 -11 9 -8 -5 -8 -1 0 14 14 27 14 35 -1 26 -7 -5 -8 -3 -3 6 12 19 14
120 2 113 -5 -3 -4 4 2 15 6 11 11 23 11 27 0 3 -5 3 -11 -1 -8 -4 -8 -1 -2
12 11 23 10 64 -1 83 -6 10 -5 12 2 7 7 -4 12 -1 12 9 0 9 -5 13 -11 9 -8 -5
-8 -1 0 14 14 27 14 35 -1 26 -7 -5 -8 -3 -3 6 12 19 14 120 2 113 -5 -3 -4 4
2 15 6 11 11 23 11 27 0 3 -5 3 -11 -1 -8 -4 -8 -1 -2 12 11 23 10 64 -1 83
-6 10 -5 12 2 7 7 -4 12 -1 12 9 0 9 -5 13 -11 9 -8 -5 -8 -1 0 14 14 27 14
35 -1 26 -7 -5 -8 -3 -3 6 12 20 14 120 2 113 -6 -4 -7 -1 -2 7 4 7 8 66 9
131 l2 119 31 29 c18 16 29 32 26 35 -4 3 1 6 11 6 9 0 15 4 12 8 -6 10 35 48
47 44 5 -1 6 2 2 7 -3 6 4 15 15 21 11 6 20 18 20 26 0 8 5 12 10 9 6 -3 10
-3 10 2 0 10 46 64 57 66 4 1 7 5 6 10 -2 4 6 7 18 7 13 0 18 4 13 12 -5 7 -3
8 5 4 9 -6 8 -13 -6 -29z m-4113 -23 c0 12 42 -30 56 -57 9 -17 20 -25 27 -21
7 4 9 4 5 0 -3 -4 3 -19 15 -32 16 -18 23 -21 30 -12 6 9 7 8 3 -4 -5 -17 27
-58 46 -58 4 0 8 -6 8 -13 0 -7 9 -19 20 -27 20 -14 20 -26 20 -646 l0 -632
-127 0 c-71 0 -135 4 -143 8 -16 8 -21 92 -8 106 4 3 3 16 -1 28 -6 19 -7 42
-1 49 7 9 4 57 -5 57 -5 0 -5 4 2 8 7 5 9 13 3 22 -6 9 -3 18 7 25 13 10 13
14 3 20 -9 6 -11 4 -5 -6 5 -8 4 -11 0 -6 -11 10 -14 48 -3 41 4 -3 8 0 8 5 0
6 -6 11 -12 12 -10 0 -10 2 -1 6 10 3 10 10 2 25 -8 15 -8 19 0 14 6 -4 11 -2
11 3 0 6 -6 11 -12 12 -10 0 -10 2 0 6 10 4 10 8 1 19 -9 11 -9 14 1 14 9 0 9
4 -1 17 -10 11 -10 14 -1 9 12 -7 17 6 5 17 -9 10 -11 77 -1 83 4 3 4 15 0 27
-7 20 -8 42 -2 50 7 9 4 57 -5 57 -5 0 -5 4 2 8 7 5 9 13 3 22 -6 9 -3 18 7
25 13 10 13 14 3 20 -9 6 -11 4 -5 -6 5 -8 4 -11 0 -6 -11 10 -14 48 -3 41 4
-3 8 0 8 5 0 6 -6 11 -12 12 -10 0 -10 2 -1 6 10 3 10 10 2 25 -8 15 -8 19 0
14 6 -4 11 -2 11 3 0 6 -6 11 -12 12 -10 0 -10 2 0 6 10 4 10 8 1 19 -9 11 -9
14 1 14 9 0 9 4 -1 17 -10 11 -10 14 -1 9 12 -7 17 6 5 17 -9 10 -10 86 -1 81
5 -3 8 0 8 5 0 6 -6 11 -12 11 -10 0 -9 3 1 9 9 6 10 11 2 15 -7 5 -7 15 -1
32 12 30 12 37 3 31 -5 -3 -8 10 -8 28 0 18 3 31 8 28 4 -2 7 1 7 6 0 6 -6 11
-12 12 -10 0 -10 2 -1 6 10 3 10 10 2 25 -8 15 -8 19 0 14 6 -4 11 -2 11 3 0
6 -6 11 -12 12 -10 0 -10 2 0 6 6 2 9 10 5 16 -10 16 -11 87 -1 81 11 -7 10 4
-3 28 -8 15 -8 19 0 14 6 -4 11 -2 11 3 0 6 -6 11 -12 12 -10 0 -10 2 0 6 10
4 10 8 1 19 -8 10 -8 14 0 14 6 0 11 8 11 18 1 14 4 13 20 -7 11 -13 20 -21
20 -17z m-600 -138 c0 -3 -4 -8 -10 -11 -5 -3 -10 -1 -10 4 0 6 5 11 10 11 6
0 10 -2 10 -4z m4725 -85 c3 -5 2 -12 -3 -15 -5 -3 -9 1 -9 9 0 17 3 19 12 6z
m5 -160 c0 -6 -4 -12 -8 -15 -5 -3 -9 1 -9 9 0 8 4 15 9 15 4 0 8 -4 8 -9z
m-3547 -243 c-2 -5 1 -8 7 -8 15 0 41 -26 33 -34 -4 -3 1 -6 10 -6 8 0 19 -9
22 -20 4 -11 11 -18 16 -15 8 6 13 -8 10 -27 0 -5 6 -8 14 -8 8 0 22 -11 31
-25 9 -14 23 -25 30 -25 8 0 13 -3 13 -7 -3 -20 2 -34 11 -28 6 3 10 -1 10 -9
0 -9 7 -16 16 -16 9 0 18 -9 21 -20 3 -11 9 -18 13 -15 5 3 28 -15 51 -40 23
-25 44 -43 47 -41 2 3 15 -5 28 -17 39 -37 53 -47 64 -47 5 0 10 -4 10 -10 0
-5 7 -10 15 -10 8 0 15 -4 15 -8 0 -9 50 -37 62 -34 4 1 10 -8 13 -20 5 -13
10 -17 14 -9 5 8 14 5 31 -9 12 -11 26 -17 30 -15 4 3 11 -2 14 -10 3 -8 11
-14 18 -13 7 2 12 -1 11 -7 -1 -5 10 -11 24 -12 14 0 29 -6 33 -13 4 -6 10
-11 14 -11 26 4 46 -1 41 -9 -4 -6 6 -10 23 -10 18 0 32 -6 36 -16 3 -8 11
-12 16 -9 6 4 18 1 27 -7 14 -11 16 -11 8 2 -7 12 -6 13 7 3 8 -7 27 -14 42
-15 14 -1 26 -6 26 -11 0 -5 7 -4 15 3 13 11 14 10 10 -3 -5 -12 1 -15 29 -13
20 1 37 -3 39 -8 2 -5 16 -10 33 -12 16 -1 49 -3 74 -4 25 -2 50 -7 56 -12 6
-4 22 -8 35 -8 94 0 107 -2 102 -19 -4 -13 -2 -13 7 1 12 20 35 25 24 6 -6
-10 -4 -10 8 0 12 9 18 10 23 2 5 -8 10 -8 20 0 9 8 15 8 20 0 3 -5 12 -10 18
-10 7 0 6 4 -3 10 -13 9 -13 10 1 10 8 0 21 -6 28 -12 10 -9 12 -9 7 -1 -6 11
4 13 97 14 9 0 17 6 18 12 0 7 4 3 9 -8 5 -11 9 -15 9 -8 1 7 8 10 18 6 10 -4
14 -2 9 5 -4 7 1 10 14 7 11 -2 20 0 20 4 0 4 15 6 32 5 18 -1 37 0 42 4 10 5
38 11 81 15 11 1 23 6 27 11 3 5 21 11 40 13 18 1 45 8 60 14 15 6 32 8 39 3
7 -4 10 -3 6 3 -8 12 14 23 44 23 11 0 17 5 14 10 -4 6 5 10 20 10 15 0 24 4
20 10 -3 6 1 7 9 4 9 -3 16 -1 16 4 0 6 9 9 20 7 13 -2 20 2 20 11 0 8 4 13 9
9 5 -3 17 2 26 11 9 9 19 14 22 10 3 -3 12 2 20 12 9 10 12 11 7 2 -6 -11 -2
-10 13 3 11 9 23 14 27 10 4 -5 6 -2 4 6 -1 7 5 15 15 16 24 4 48 25 41 36 -3
5 1 6 9 3 8 -3 18 0 22 5 3 6 11 9 16 6 5 -4 9 2 9 11 0 10 3 14 7 11 3 -4 12
1 20 11 8 9 11 11 7 3 -5 -9 -3 -12 4 -7 7 4 12 14 12 22 0 8 4 13 9 10 5 -3
11 1 15 9 3 8 15 15 26 15 12 0 18 5 15 10 -3 6 -1 10 5 10 15 0 40 25 40 41
0 7 3 9 7 6 3 -4 16 5 29 18 13 14 28 25 33 25 6 0 7 7 4 17 -4 11 -3 14 5 9
7 -4 12 -2 12 4 0 6 5 8 10 5 6 -3 10 0 10 8 0 8 7 18 16 21 8 3 12 10 9 16
-3 5 -1 10 5 10 14 0 40 25 40 38 0 11 30 26 43 23 5 -1 6 3 2 9 -7 12 51 71
61 62 4 -4 4 1 1 11 -4 10 -3 16 1 13 5 -3 16 6 26 20 11 13 27 24 38 24 12 0
17 4 12 12 -5 10 -3 10 7 0 12 -11 12 -14 -1 -23 -11 -8 -12 -12 -3 -15 9 -4
9 -13 2 -32 -7 -18 -7 -28 0 -30 6 -2 11 -8 11 -13 0 -6 -4 -7 -10 -4 -11 7
-14 -8 -3 -19 10 -10 11 -66 1 -60 -10 6 -11 -10 -1 -20 14 -13 12 -41 -4 -59
-15 -16 -15 -17 -1 -12 18 7 19 -9 3 -34 -5 -10 -4 -16 3 -19 7 -2 12 -8 12
-13 0 -6 -4 -7 -10 -4 -11 7 -14 -8 -3 -19 10 -10 11 -66 1 -60 -10 6 -11 -10
-1 -20 14 -13 12 -41 -4 -59 -14 -14 -14 -17 -2 -12 12 4 15 -3 14 -34 0 -21
-3 -37 -7 -34 -10 5 -10 -11 -1 -21 14 -13 12 -41 -4 -59 -15 -16 -15 -17 -1
-12 18 7 19 -9 3 -34 -5 -10 -4 -16 3 -19 7 -2 12 -8 12 -13 0 -6 -4 -7 -10
-4 -11 7 -14 -8 -3 -19 10 -10 11 -66 1 -60 -10 6 -11 -10 -1 -20 14 -13 12
-41 -4 -59 -16 -17 -16 -17 0 -11 13 4 16 2 12 -9 -5 -13 -191 -14 -1528 -15
-888 0 -1527 4 -1533 9 -12 9 -11 49 1 68 3 6 0 11 -7 11 -9 0 -9 3 2 10 12 8
12 10 1 10 -11 0 -11 3 -1 15 10 12 10 15 -1 16 -11 0 -11 2 -1 6 10 4 10 8 1
19 -9 11 -9 14 1 14 8 0 9 4 3 13 -10 13 -10 173 0 183 4 4 2 15 -4 25 -7 14
-6 19 2 19 9 0 9 3 0 14 -9 11 -9 15 1 19 10 4 10 8 -2 16 -13 10 -13 12 0 21
13 9 13 10 0 10 -13 0 -13 1 0 10 8 5 10 10 3 10 -12 0 -12 17 0 38 5 7 3 12
-5 12 -9 0 -9 3 2 10 12 8 12 10 1 10 -11 0 -11 3 -1 15 10 12 10 15 -1 16
-11 0 -11 2 -1 6 10 4 10 8 1 19 -9 11 -9 14 0 14 7 0 9 5 5 12 -11 18 -11 78
-1 78 5 0 4 7 -3 15 -9 11 -9 15 -1 15 7 0 9 5 4 13 -10 16 -11 58 0 80 4 9 4
17 0 17 -10 0 -10 41 1 58 5 8 19 1 45 -25 21 -21 36 -41 34 -45z m-1183 8 c0
-3 -4 -8 -10 -11 -5 -3 -10 -1 -10 4 0 6 5 11 10 11 6 0 10 -2 10 -4z m0 -240
c0 -3 -4 -8 -10 -11 -5 -3 -10 -1 -10 4 0 6 5 11 10 11 6 0 10 -2 10 -4z m0
-400 c0 -3 -4 -8 -10 -11 -5 -3 -10 -1 -10 4 0 6 5 11 10 11 6 0 10 -2 10 -4z"/>
<path d="M1774 6698 c-4 -5 -12 -7 -20 -4 -7 3 -16 1 -19 -5 -4 -5 -11 -7 -16
-4 -5 4 -9 -1 -9 -9 0 -9 -7 -16 -15 -16 -9 0 -12 -6 -9 -15 4 -8 -1 -17 -9
-21 -9 -3 -14 -16 -13 -34 1 -17 -3 -32 -8 -34 -7 -3 -6 -5 1 -5 9 -1 10 -8 3
-26 -5 -14 -6 -25 -2 -25 5 0 8 -10 9 -22 1 -62 4 -79 11 -74 5 3 9 -1 9 -9 0
-8 -4 -12 -8 -9 -4 2 -11 0 -14 -6 -4 -6 -1 -9 5 -8 12 3 17 -12 22 -59 1 -13
5 -23 9 -23 3 0 6 -7 7 -15 1 -8 3 -22 4 -30 1 -8 5 -15 9 -15 4 0 9 -10 11
-22 2 -13 9 -22 15 -21 6 1 10 -5 8 -15 -1 -9 2 -20 6 -23 5 -3 10 -17 11 -32
2 -17 6 -23 13 -17 7 6 11 2 12 -13 1 -12 7 -23 13 -25 5 -2 10 -10 10 -18 0
-8 4 -14 9 -14 5 0 13 -9 16 -20 4 -11 11 -18 16 -15 5 4 9 -1 9 -9 0 -9 5
-16 11 -16 5 0 7 -4 4 -10 -3 -5 1 -10 10 -10 9 0 13 -4 10 -10 -3 -5 -2 -10
4 -10 13 0 70 -58 63 -65 -3 -3 1 -5 8 -5 7 0 24 -12 38 -27 13 -16 21 -21 17
-13 -8 14 42 -25 57 -45 5 -6 8 -4 8 4 0 10 5 9 18 -5 22 -24 57 -44 77 -44 8
0 15 -5 15 -11 0 -8 5 -7 16 1 12 11 15 11 12 -1 -2 -9 4 -13 15 -11 9 2 17
-2 17 -8 0 -6 5 -8 10 -5 6 3 10 1 10 -4 0 -6 14 -11 30 -11 17 0 30 -4 30
-10 0 -5 5 -10 11 -10 5 0 7 5 3 11 -4 7 1 7 16 -1 12 -7 45 -13 73 -15 27 -2
53 -8 57 -15 5 -8 9 -7 13 4 4 9 12 16 19 16 9 0 9 -3 -2 -10 -11 -8 -8 -10
15 -7 17 3 36 0 43 -6 6 -5 12 -6 12 -1 0 5 20 8 45 7 32 -1 44 2 39 10 -3 7
1 4 9 -6 9 -10 18 -14 21 -8 5 8 26 8 46 1 3 -1 10 -1 15 0 40 8 85 7 85 -3 0
-8 3 -8 8 -2 10 14 32 17 32 4 0 -8 5 -8 15 1 12 10 15 10 15 -1 0 -9 3 -10 8
-4 8 12 111 13 130 2 6 -5 12 -5 12 0 0 4 20 7 45 6 32 -1 44 2 39 10 -3 7 2
3 10 -7 9 -11 16 -15 16 -9 0 12 18 12 38 0 6 -5 12 -5 12 0 0 4 20 7 45 6 32
-1 44 2 39 10 -3 7 1 4 9 -6 9 -10 18 -14 21 -8 5 8 26 8 46 1 3 -1 10 -1 15
0 35 7 85 7 85 -1 0 -13 23 -7 36 10 6 8 20 12 33 8 11 -3 21 -1 21 5 0 5 5 6
12 2 7 -4 8 -3 4 5 -4 7 2 15 16 20 13 6 19 10 14 10 -5 1 -1 11 10 23 12 14
14 19 4 13 -12 -6 -13 -5 -2 6 6 7 12 38 12 69 0 31 -6 62 -12 69 -10 11 -10
13 0 7 7 -5 12 -1 12 9 0 9 -4 13 -10 10 -6 -3 -7 1 -4 9 4 10 1 16 -7 16 -10
1 -9 5 4 14 16 12 16 14 2 20 -9 3 -13 11 -10 16 4 6 -1 27 -10 46 -9 20 -14
38 -11 42 3 3 -1 14 -11 24 -9 10 -13 21 -10 25 4 3 -1 15 -10 26 -13 15 -14
18 -3 12 12 -7 12 -5 -1 11 -9 10 -14 25 -12 32 3 6 -3 12 -12 12 -9 0 -13 5
-10 10 3 6 1 10 -5 10 -7 0 -10 6 -7 13 3 8 -3 20 -14 28 -10 7 -19 19 -19 26
0 7 -5 13 -11 13 -6 0 -9 9 -6 20 3 10 2 19 -2 18 -19 -2 -31 3 -26 12 3 6 -1
10 -10 10 -9 0 -14 4 -11 9 3 5 -1 12 -10 15 -9 4 -14 9 -11 12 7 7 -17 34
-30 34 -4 0 -17 11 -27 25 -10 13 -22 22 -27 19 -5 -3 -9 2 -9 10 0 9 -6 15
-12 13 -7 -1 -12 4 -10 11 1 8 -2 11 -7 8 -5 -4 -16 1 -24 9 -9 8 -20 15 -26
15 -6 0 -11 5 -11 10 0 6 -6 10 -14 10 -7 0 -19 7 -26 15 -7 8 -16 12 -21 9
-5 -3 -9 -1 -9 4 0 9 -37 25 -52 23 -5 -1 -8 7 -9 17 0 9 -3 12 -5 6 -5 -13
-45 -7 -55 8 -3 4 -18 9 -33 10 -15 1 -32 8 -38 15 -6 7 -16 13 -22 13 -6 0
-4 -5 4 -10 9 -6 10 -10 3 -10 -6 0 -15 5 -18 11 -4 6 -13 8 -20 5 -8 -3 -16
0 -19 7 -3 8 -5 7 -5 -2 -1 -11 -5 -10 -17 5 -8 10 -13 13 -9 7 7 -16 -11 -17
-20 -3 -5 8 -11 7 -21 -1 -8 -6 -14 -7 -14 -2 0 10 -40 10 -57 0 -7 -4 -14 -4
-17 1 -5 9 -47 9 -63 -1 -7 -4 -14 -4 -17 1 -5 9 -47 9 -63 -1 -7 -4 -14 -3
-18 2 -5 10 -36 8 -54 -4 -5 -3 -12 -1 -16 5 -3 5 -11 10 -16 10 -6 0 -8 -4
-5 -8 6 -10 -25 -9 -41 1 -7 5 -21 3 -32 -3 -13 -7 -22 -7 -26 0 -3 5 -11 10
-16 10 -6 0 -8 -4 -5 -8 6 -10 -25 -9 -41 1 -7 5 -21 3 -32 -3 -13 -7 -22 -7
-26 0 -9 15 -27 12 -19 -2 5 -10 4 -10 -6 -1 -9 8 -19 9 -31 3 -11 -7 -20 -7
-24 0 -3 5 -11 10 -16 10 -6 0 -8 -4 -5 -8 6 -10 -25 -9 -41 1 -7 5 -21 3 -32
-3 -13 -7 -22 -7 -26 0 -3 5 -11 10 -16 10 -6 0 -8 -4 -5 -8 6 -10 -25 -9 -41
1 -7 5 -21 3 -32 -3 -13 -7 -22 -7 -26 0 -9 15 -27 12 -19 -2 5 -10 4 -10 -6
-1 -9 9 -19 9 -33 2 -14 -8 -18 -8 -13 0 10 15 -7 14 -22 -1 -9 -9 -12 -9 -12
0 0 7 -5 12 -11 12 -5 0 -7 -5 -3 -12 5 -7 3 -8 -7 -3 -19 12 -49 14 -55 3z
m840 -273 c12 -5 17 -5 13 1 -3 6 5 10 18 10 13 0 21 -4 19 -8 -3 -4 2 -8 11
-8 9 0 14 3 11 8 -2 4 23 7 55 7 42 0 63 -5 69 -15 8 -12 10 -11 10 5 0 15 2
17 9 6 5 -8 28 -14 54 -15 34 -1 43 -4 39 -15 -3 -8 -1 -12 4 -8 6 3 16 2 24
-3 9 -5 19 -5 27 2 11 8 12 7 7 -7 -5 -13 -4 -16 4 -11 12 7 82 -21 82 -33 0
-4 16 -14 35 -21 23 -9 34 -19 30 -28 -3 -7 0 -10 6 -7 5 4 29 -14 53 -39 24
-25 46 -42 50 -39 3 4 6 -3 6 -15 0 -12 5 -22 11 -22 5 0 7 -4 4 -10 -3 -5 1
-10 9 -10 9 0 16 -9 16 -21 0 -11 4 -18 9 -15 5 3 12 -5 15 -19 4 -14 11 -25
17 -25 6 0 7 -5 4 -10 -4 -6 -4 -18 0 -28 5 -14 7 -14 15 -2 7 10 8 5 5 -18
-2 -22 1 -35 11 -39 8 -3 14 -9 14 -15 0 -5 -6 -6 -12 -2 -10 6 -10 5 -1 -7 8
-10 9 -20 2 -29 -8 -13 -10 -13 -19 0 -6 10 -10 11 -10 3 0 -7 -7 -13 -15 -13
-8 0 -15 6 -15 13 0 6 -5 4 -11 -5 -11 -20 -29 -24 -29 -7 0 5 6 7 13 3 6 -4
9 -3 4 1 -10 11 -48 14 -41 3 3 -4 0 -8 -5 -8 -6 0 -11 6 -12 13 0 10 -2 10
-6 0 -2 -7 -11 -13 -19 -13 -8 0 -14 6 -14 13 0 6 -5 4 -11 -5 -11 -20 -29
-24 -29 -7 0 5 6 7 13 3 6 -4 9 -3 4 1 -10 11 -48 14 -41 3 8 -13 -10 -10 -25
5 -11 10 -13 10 -7 0 4 -7 3 -13 -1 -13 -5 0 -15 6 -22 13 -10 8 -12 8 -7 0 4
-8 -1 -11 -14 -10 -11 1 -20 4 -20 7 0 4 -7 7 -15 7 -12 0 -12 -3 -2 -16 9
-12 5 -11 -17 3 -24 15 -28 16 -23 3 4 -11 2 -14 -9 -10 -7 3 -14 8 -14 12 0
4 -7 8 -15 8 -12 0 -12 -3 -2 -16 9 -12 5 -11 -17 3 -27 17 -29 17 -22 1 6
-17 5 -17 -20 0 -15 9 -23 12 -20 6 4 -6 0 -11 -9 -11 -10 0 -13 5 -9 13 4 6
-2 4 -13 -5 -25 -22 -33 -23 -33 -1 0 13 -3 14 -12 5 -16 -16 -31 -15 -22 1 5
7 1 7 -10 -2 -14 -12 -22 -12 -36 -3 -14 9 -21 9 -26 0 -5 -7 -3 -8 6 -3 9 5
11 4 6 -3 -10 -16 -26 -15 -26 1 0 8 -7 14 -15 14 -8 0 -12 -4 -9 -9 3 -4 0
-8 -5 -8 -6 0 -11 5 -11 11 0 6 -7 3 -16 -6 -13 -13 -19 -13 -31 -3 -20 16
-73 20 -73 5 0 -9 -2 -9 -8 -1 -7 10 -21 14 -65 15 -9 0 -15 4 -12 10 6 8 -31
14 -64 10 -7 -2 -10 2 -6 8 4 7 -5 11 -25 11 -18 0 -29 4 -25 10 3 6 -1 10
-11 10 -9 0 -23 8 -31 18 -8 9 -12 11 -8 5 10 -20 -2 -15 -30 13 -14 14 -30
22 -35 19 -6 -4 -9 -3 -8 2 2 4 -1 9 -6 10 -5 0 -13 8 -18 17 -5 9 -15 13 -21
9 -7 -4 -6 1 2 11 8 9 10 16 5 15 -22 -4 -34 2 -34 18 0 9 -3 13 -7 10 -3 -4
-11 3 -18 16 -6 12 -17 21 -24 19 -7 -1 -10 2 -7 7 4 5 2 12 -4 16 -6 4 -8 11
-5 16 4 5 -2 9 -11 9 -10 0 -14 3 -11 6 4 4 -2 19 -12 33 -10 14 -16 32 -13
40 2 8 0 11 -6 7 -6 -3 -13 10 -17 34 -4 22 -11 40 -16 40 -5 0 -8 12 -5 28 2
15 5 27 5 27 383 0 640 -4 655 -10z"/>
<path d="M2065 6420 c-3 -6 1 -7 9 -4 18 7 21 14 7 14 -6 0 -13 -4 -16 -10z"/>
<path d="M2145 6420 c-3 -6 1 -7 9 -4 18 7 21 14 7 14 -6 0 -13 -4 -16 -10z"/>
<path d="M2225 6420 c-3 -6 1 -7 9 -4 18 7 21 14 7 14 -6 0 -13 -4 -16 -10z"/>
<path d="M2305 6420 c-3 -6 1 -7 9 -4 18 7 21 14 7 14 -6 0 -13 -4 -16 -10z"/>
<path d="M2385 6420 c-3 -6 1 -7 9 -4 18 7 21 14 7 14 -6 0 -13 -4 -16 -10z"/>
<path d="M2465 6420 c-3 -6 1 -7 9 -4 18 7 21 14 7 14 -6 0 -13 -4 -16 -10z"/>
<path d="M2545 6420 c-3 -6 1 -7 9 -4 18 7 21 14 7 14 -6 0 -13 -4 -16 -10z"/>
<path d="M2736 6418 c3 -5 10 -6 15 -3 13 9 11 12 -6 12 -8 0 -12 -4 -9 -9z"/>
<path d="M6125 6700 c-3 -5 -12 -7 -20 -3 -8 3 -15 1 -15 -4 0 -5 -18 -8 -41
-7 -33 2 -39 -1 -34 -13 4 -13 3 -14 -10 -3 -11 9 -15 9 -15 1 0 -7 -6 -11
-12 -10 -34 4 -69 -2 -63 -11 5 -9 -15 -15 -37 -11 -5 0 -8 -4 -8 -10 0 -5 -4
-8 -9 -4 -6 3 -20 -5 -32 -17 -12 -13 -19 -17 -15 -11 5 9 2 11 -8 7 -9 -3
-16 -11 -16 -16 0 -6 -7 -8 -15 -4 -8 3 -14 0 -12 -7 1 -7 -3 -11 -9 -10 -7 1
-23 -8 -36 -20 -14 -13 -31 -21 -39 -19 -8 3 -11 1 -7 -3 5 -5 -6 -17 -23 -27
-16 -10 -28 -22 -25 -26 3 -5 -11 -15 -30 -22 -29 -12 -32 -15 -17 -21 15 -7
15 -8 -5 -8 -13 -1 -20 -5 -17 -11 3 -5 -3 -15 -15 -22 -11 -7 -20 -18 -20
-25 0 -7 -7 -13 -16 -13 -8 0 -13 -4 -9 -9 3 -5 -6 -21 -20 -35 -14 -14 -25
-32 -25 -41 0 -8 -4 -15 -10 -15 -5 0 -10 -9 -10 -21 0 -14 -5 -19 -14 -16
-11 4 -13 -1 -10 -19 3 -16 0 -24 -9 -24 -8 0 -14 -10 -14 -22 -1 -42 -3 -49
-13 -43 -6 4 -10 -5 -10 -19 0 -14 -6 -26 -12 -26 -10 0 -9 -3 1 -9 9 -6 10
-10 2 -12 -7 -3 -12 -24 -13 -48 0 -28 -3 -39 -9 -30 -7 12 -9 11 -10 -1 0 -8
-3 -42 -5 -75 -2 -33 -4 -64 -4 -70 0 -14 7 -79 10 -85 1 -3 2 -8 1 -12 0 -5
4 -8 9 -8 6 0 17 -15 25 -32 8 -18 14 -28 15 -21 0 9 10 8 37 -3 20 -9 44 -13
55 -11 10 3 21 1 24 -4 3 -5 10 -7 15 -3 19 12 89 12 89 1 0 -8 3 -8 8 -2 10
14 32 17 32 4 0 -8 5 -8 15 1 12 10 15 10 15 -1 0 -9 3 -10 8 -4 9 14 155 14
164 0 5 -7 8 -6 8 1 0 6 7 11 15 11 8 0 15 -5 15 -10 0 -5 7 -4 15 3 12 10 15
10 15 -1 0 -9 3 -10 8 -4 8 11 82 16 82 5 0 -4 7 -7 15 -7 8 0 15 3 15 6 0 11
125 7 132 -4 5 -7 8 -6 8 1 0 6 7 11 15 11 8 0 15 -5 15 -10 0 -5 7 -4 15 3
12 10 15 10 15 -1 0 -9 3 -10 8 -4 8 11 82 16 82 5 0 -4 7 -7 15 -7 8 0 15 3
15 7 0 3 19 6 43 5 23 -1 47 1 52 4 17 9 35 10 29 0 -3 -5 4 -9 15 -9 12 0 21
3 21 8 0 4 24 8 54 10 30 1 66 9 81 16 15 8 37 13 50 11 13 -1 23 3 22 9 -1 5
8 11 21 12 13 1 28 6 35 13 6 6 19 11 30 11 10 0 15 5 12 10 -4 6 5 10 19 10
14 0 26 5 26 10 0 6 7 10 15 10 8 0 15 6 15 13 0 8 4 7 10 -3 8 -13 10 -12 10
3 0 9 5 17 11 17 5 0 7 5 3 12 -5 8 -2 9 9 5 10 -3 17 -2 17 4 0 6 5 7 10 4 6
-3 10 -1 10 4 0 6 8 11 18 11 14 0 15 2 2 10 -13 8 -13 10 2 10 10 0 22 9 28
20 6 11 17 20 25 20 8 0 15 7 15 15 0 8 7 15 16 15 8 0 12 5 9 10 -3 6 1 10
10 10 9 0 14 4 11 9 -3 5 1 11 9 15 8 3 15 13 15 22 0 10 3 14 7 10 7 -7 63
76 63 94 0 5 4 10 10 10 5 0 9 3 9 8 -3 19 2 33 11 27 6 -4 10 5 10 19 0 14 4
26 10 26 5 0 12 16 16 35 3 19 9 33 13 30 4 -2 7 12 6 31 0 20 3 38 9 41 5 4
6 0 1 -8 -5 -8 -4 -11 0 -6 5 4 10 24 12 44 1 19 7 41 13 48 6 7 6 15 -1 22
-8 8 -8 13 0 17 16 10 14 39 -1 30 -7 -4 -6 1 3 12 14 17 17 63 6 104 -14 55
-20 69 -26 65 -4 -2 -14 5 -21 16 -8 10 -24 19 -36 19 -12 0 -24 5 -26 11 -3
9 -9 9 -25 0 -14 -7 -24 -8 -28 -1 -3 5 -11 10 -16 10 -6 0 -8 -4 -5 -8 6 -10
-25 -9 -41 1 -7 5 -21 3 -32 -3 -13 -7 -22 -7 -26 0 -3 5 -11 10 -16 10 -6 0
-8 -4 -5 -8 6 -10 -25 -9 -41 1 -7 5 -21 3 -32 -3 -13 -7 -22 -7 -26 0 -3 5
-11 10 -16 10 -6 0 -8 -4 -5 -8 6 -10 -25 -9 -41 1 -7 5 -21 3 -32 -3 -13 -7
-22 -7 -26 0 -3 5 -11 10 -16 10 -6 0 -8 -4 -5 -8 4 -7 -27 -8 -44 -2 -14 6
-36 4 -47 -3 -6 -4 -14 -4 -16 0 -6 10 -48 10 -64 0 -7 -4 -14 -4 -17 1 -5 9
-47 9 -63 -1 -7 -4 -14 -4 -17 1 -5 9 -47 9 -63 -1 -7 -4 -14 -3 -18 3 -4 6
-12 7 -24 0 -12 -6 -22 -5 -28 1 -8 8 -17 8 -31 0 -14 -7 -23 -8 -27 -1 -3 5
-11 10 -16 10 -6 0 -8 -4 -5 -8 6 -10 -25 -9 -41 1 -7 5 -21 3 -32 -3 -13 -7
-22 -7 -26 0 -3 5 -11 10 -16 10 -6 0 -8 -4 -5 -8 3 -5 -1 -9 -9 -9 -8 0 -15
4 -15 9 0 11 -17 10 -25 -2z m81 -273 c10 -10 26 -9 20 1 -2 4 6 8 19 8 13 0
21 -4 19 -8 -3 -4 2 -8 11 -8 9 0 14 4 10 9 -6 10 17 8 49 -5 12 -4 17 -4 13
2 -3 6 5 10 18 10 13 0 21 -4 19 -8 -3 -4 2 -8 11 -8 9 0 14 4 10 9 -6 10 17
8 49 -5 12 -4 17 -4 13 2 -3 6 5 10 18 10 13 0 21 -4 19 -8 -3 -4 2 -8 11 -8
9 0 14 4 10 9 -6 10 17 8 49 -5 12 -4 17 -4 13 2 -3 6 5 10 18 10 13 0 21 -4
19 -8 -3 -4 2 -8 11 -8 9 0 14 4 10 9 -6 10 17 8 49 -5 12 -4 17 -4 13 2 -3 6
5 10 18 10 13 0 21 -4 19 -8 -3 -4 2 -8 11 -8 9 0 14 4 10 9 -6 10 17 8 49 -5
12 -4 17 -4 13 2 -3 6 5 10 18 10 13 0 21 -4 19 -8 -3 -4 2 -8 11 -8 9 0 14 4
10 9 -6 10 17 8 49 -5 12 -5 17 -4 13 3 -3 5 0 10 8 10 8 0 12 -4 9 -9 -3 -4
0 -8 5 -8 6 0 11 5 11 11 0 6 7 3 16 -5 20 -20 30 -21 14 -1 -11 13 -10 14 4
9 16 -6 22 -35 9 -48 -4 -3 -8 -13 -9 -21 -4 -25 -28 -75 -37 -75 -4 0 -7 -6
-6 -12 3 -21 -12 -48 -24 -41 -5 3 -7 1 -3 -5 3 -6 -1 -17 -9 -25 -8 -9 -15
-20 -15 -26 0 -6 -4 -11 -10 -11 -5 0 -10 -7 -10 -15 0 -9 -6 -12 -17 -8 -10
4 -14 2 -10 -4 7 -12 -48 -75 -57 -65 -3 3 -6 0 -6 -6 0 -7 -7 -12 -16 -12 -8
0 -12 -4 -9 -10 3 -5 0 -10 -8 -10 -8 0 -17 -7 -21 -15 -3 -8 -11 -14 -18 -13
-7 2 -12 -3 -10 -10 1 -6 -1 -11 -5 -11 -23 4 -54 -2 -49 -9 2 -4 -5 -9 -17
-9 -12 -1 -23 -7 -25 -13 -3 -7 -9 -7 -20 2 -12 10 -14 10 -8 1 5 -9 -2 -13
-26 -13 -25 0 -29 -3 -18 -10 11 -7 5 -10 -25 -11 -22 -1 -44 -1 -49 0 -5 1
-13 -4 -17 -11 -5 -7 -9 -8 -9 -2 0 16 -50 11 -60 -6 -8 -12 -10 -12 -10 4 0
16 -2 17 -17 5 -14 -12 -17 -12 -21 0 -3 9 -6 10 -11 2 -4 -6 -17 -13 -30 -16
-12 -2 -19 0 -16 5 3 5 1 11 -4 14 -5 3 -12 -1 -15 -10 -5 -13 -9 -14 -20 -5
-11 9 -15 9 -19 -1 -3 -8 -6 -5 -6 6 -1 16 -4 17 -13 8 -16 -16 -31 -15 -22 1
6 10 4 10 -7 0 -7 -7 -17 -13 -22 -13 -4 0 -5 6 -1 13 6 10 4 10 -7 0 -7 -7
-17 -13 -22 -13 -4 0 -5 6 -1 13 6 8 3 8 -9 -2 -9 -7 -23 -11 -31 -8 -8 3 -17
1 -20 -6 -2 -7 -5 -4 -5 7 -1 16 -3 16 -17 5 -13 -10 -17 -10 -24 0 -5 9 -9
10 -11 2 -2 -6 -14 -13 -27 -16 -12 -2 -20 0 -17 5 3 5 1 11 -4 14 -5 3 -12
-1 -15 -10 -5 -13 -9 -14 -20 -5 -11 9 -15 9 -19 -1 -3 -8 -6 -5 -6 6 -1 16
-4 17 -13 8 -16 -16 -31 -15 -22 1 6 10 4 10 -7 0 -7 -7 -17 -13 -22 -13 -4 0
-5 6 -1 13 6 10 4 10 -7 0 -7 -7 -17 -13 -22 -13 -4 0 -5 6 -1 13 6 9 4 9 -8
-1 -16 -13 -44 -12 -67 2 -10 6 -12 5 -7 -2 4 -7 2 -12 -3 -12 -6 0 -11 6 -12
13 0 6 -4 3 -9 -8 -7 -19 -8 -19 -15 -2 -6 15 -10 16 -16 5 -7 -11 -12 -11
-30 0 -11 8 -18 9 -15 3 4 -5 -2 -9 -12 -8 -16 1 -18 7 -15 37 3 19 9 37 14
38 5 2 9 17 9 33 0 18 4 28 10 24 9 -6 14 8 11 28 0 4 4 7 10 7 5 0 8 4 4 9
-3 5 -1 12 5 16 6 4 8 11 5 16 -3 5 1 6 10 3 9 -4 15 -3 14 2 -4 23 2 45 11
39 6 -3 10 0 10 8 0 8 7 18 16 21 8 3 13 10 10 14 -3 5 6 15 19 22 13 7 22 17
19 22 -3 4 1 8 9 8 8 0 18 7 21 16 3 9 13 14 21 11 10 -4 12 -1 8 10 -5 12 -2
15 9 10 10 -3 19 0 22 9 3 8 11 14 19 14 7 0 23 9 35 21 13 11 31 21 42 22 11
1 20 5 20 9 0 4 11 8 25 8 14 0 25 5 25 10 0 7 6 7 20 0 15 -8 18 -8 14 3 -4
10 7 13 47 13 28 -1 53 3 57 8 3 5 -1 6 -8 1 -8 -5 -11 -4 -7 3 7 11 32 11 43
-1z"/>
<path d="M4104 3469 c-5 -8 -3 -9 6 -4 9 6 11 4 6 -4 -5 -7 -14 -10 -21 -7 -7
2 -25 -2 -40 -10 -15 -8 -34 -14 -41 -14 -8 0 -14 -4 -14 -8 0 -4 -10 -8 -21
-9 -12 -1 -30 -10 -40 -19 -11 -9 -19 -14 -19 -10 0 3 -10 0 -23 -9 -13 -8
-27 -12 -30 -8 -4 3 -7 1 -7 -6 0 -7 -4 -9 -10 -6 -5 3 -10 1 -10 -5 0 -7 -7
-9 -15 -6 -9 3 -18 -1 -21 -9 -4 -8 -19 -15 -34 -15 -16 0 -30 -7 -34 -15 -3
-8 -9 -14 -13 -13 -13 4 -73 -24 -73 -34 0 -6 -6 -8 -14 -5 -8 3 -20 -1 -26
-9 -7 -8 -20 -14 -30 -14 -10 0 -23 -6 -30 -14 -6 -8 -17 -13 -24 -10 -8 3
-16 -2 -19 -10 -4 -9 -13 -13 -22 -10 -9 4 -15 0 -15 -10 0 -9 -6 -13 -14 -10
-7 3 -20 -2 -29 -10 -9 -9 -21 -16 -27 -16 -6 0 -20 -9 -32 -20 -12 -11 -30
-20 -40 -20 -13 0 -17 -4 -12 -12 4 -7 4 -10 -1 -6 -4 4 -14 3 -22 -3 -7 -6
-13 -8 -13 -5 0 4 -11 -4 -23 -18 -13 -14 -28 -22 -32 -18 -4 4 -5 -6 -3 -21
4 -22 2 -27 -9 -22 -11 3 -13 1 -9 -10 3 -8 1 -15 -4 -15 -6 0 -6 -9 -1 -22 4
-13 7 -31 6 -40 -2 -10 2 -15 10 -12 8 4 11 -3 9 -21 -2 -20 1 -25 12 -21 8 3
13 2 10 -3 -3 -4 1 -17 9 -27 8 -10 15 -27 15 -37 0 -10 5 -15 10 -12 6 3 10
1 10 -4 0 -11 26 -45 67 -87 13 -15 17 -25 10 -28 -9 -3 -9 -5 0 -5 14 -1 63
-48 63 -61 0 -5 9 -12 20 -15 11 -3 20 -12 20 -20 0 -8 9 -16 19 -20 10 -3 21
-15 24 -25 4 -14 10 -18 23 -13 13 5 16 3 11 -10 -5 -12 -1 -17 13 -17 11 0
20 -4 20 -10 0 -5 7 -10 16 -10 8 0 12 -4 9 -10 -3 -5 1 -10 9 -10 9 0 16 -4
16 -8 0 -13 59 -44 70 -37 6 4 10 3 9 -2 -3 -20 2 -34 11 -28 6 3 10 2 10 -3
0 -6 7 -13 16 -16 10 -4 13 -2 7 6 -4 7 6 3 21 -10 16 -12 35 -22 42 -22 8 0
14 -5 14 -11 0 -6 7 -9 15 -6 8 4 17 1 21 -5 5 -7 2 -8 -6 -3 -9 5 -11 4 -6
-3 4 -7 18 -12 32 -12 13 0 24 -4 24 -8 0 -4 10 -8 22 -9 11 -1 25 -8 29 -15
7 -10 9 -10 9 2 1 12 2 12 10 -2 6 -9 18 -15 28 -14 9 2 20 -1 23 -5 3 -5 17
-10 32 -11 15 -1 27 -6 27 -11 0 -5 6 -4 14 2 11 10 16 8 24 -6 6 -10 14 -15
18 -11 3 4 15 3 25 -3 13 -6 19 -6 19 0 0 6 7 8 15 5 8 -4 13 -9 10 -13 -2 -4
2 -8 10 -8 8 0 12 5 8 10 -3 5 6 1 21 -8 14 -10 26 -13 26 -7 0 6 13 7 34 2
19 -4 38 -5 41 -2 3 4 10 0 15 -8 6 -10 10 -11 10 -3 0 9 7 10 25 3 17 -7 25
-6 25 1 0 8 4 8 14 0 11 -9 15 -9 19 1 4 10 6 10 6 1 1 -9 8 -10 26 -3 15 6
26 6 30 0 4 -6 11 -10 16 -10 6 0 8 4 5 8 -3 5 1 9 9 9 8 0 12 -3 10 -7 -2 -4
2 -7 10 -7 8 0 12 3 10 7 -2 3 22 7 53 8 31 1 65 2 75 3 9 0 15 4 12 10 -4 5
4 5 19 -1 14 -5 28 -5 31 -1 2 5 25 12 50 15 25 4 45 11 45 15 0 5 8 8 18 8
44 0 63 4 58 12 -3 4 5 7 19 6 13 -2 29 3 36 11 6 8 21 14 33 14 12 0 26 4 32
10 5 5 22 11 36 12 15 1 26 7 25 13 -1 5 3 9 10 8 6 -1 17 4 23 12 7 8 19 15
26 15 8 0 14 5 14 11 0 5 5 7 12 3 6 -4 17 1 25 11 7 11 13 16 13 12 0 -4 11
0 25 9 14 9 22 20 19 25 -3 5 2 6 10 3 9 -3 16 -1 16 5 0 6 7 8 17 4 11 -4 14
-3 9 6 -5 8 -1 14 13 18 11 3 18 9 15 14 -3 5 4 9 16 9 12 0 18 5 15 10 -3 6
1 10 10 10 9 0 13 5 10 10 -6 9 8 14 28 11 5 -1 6 3 3 8 -3 5 1 12 10 15 8 3
12 10 9 16 -3 5 1 10 9 10 9 0 16 5 16 11 0 5 5 7 10 4 6 -3 10 1 10 10 0 9 5
13 10 10 9 -6 14 7 11 27 0 4 5 5 13 2 8 -3 17 0 22 7 5 8 3 10 -7 4 -8 -4 -2
4 13 17 15 14 25 28 21 32 -3 3 0 6 8 6 8 0 20 14 28 31 7 16 16 28 19 25 5
-6 22 19 41 60 5 12 21 33 35 47 19 19 22 27 13 36 -9 10 -9 12 3 9 8 -2 14 3
12 10 -1 6 1 12 5 12 5 0 9 20 10 45 2 28 -1 43 -7 40 -5 -3 -7 0 -4 8 7 19
-77 103 -90 90 -3 -4 -6 0 -6 7 0 7 -3 11 -6 7 -3 -3 -15 3 -26 13 -11 10 -27
16 -36 13 -10 -4 -13 -2 -8 5 7 11 -5 16 -30 13 -7 -1 -14 5 -18 14 -3 8 -15
15 -26 15 -12 0 -18 5 -15 10 4 6 -5 10 -20 10 -14 0 -28 6 -31 14 -3 8 -14
13 -25 11 -11 -2 -17 0 -14 6 4 5 -3 9 -15 9 -12 0 -19 4 -16 9 3 5 -6 9 -20
9 -13 0 -34 8 -44 17 -11 10 -20 14 -20 9 0 -5 -5 -1 -11 9 -5 9 -21 17 -34
17 -14 0 -25 4 -25 9 0 5 -7 12 -16 15 -10 4 -13 2 -8 -6 4 -7 -8 -1 -27 12
-19 14 -35 24 -37 22 -1 -1 -15 4 -31 12 -16 9 -31 12 -35 9 -3 -4 -6 -1 -6 6
0 6 -8 11 -17 9 -10 -2 -17 2 -16 9 2 6 -5 12 -15 12 -38 1 -51 5 -46 13 5 8
-11 12 -30 9 -5 -1 -12 3 -16 10 -4 6 -21 12 -38 14 -16 1 -36 6 -43 11 -18
11 -139 13 -139 2 0 -4 -7 -4 -17 -1 -9 4 -14 2 -11 -3 4 -5 -10 -10 -30 -11
-19 -1 -38 -7 -42 -14 -4 -6 -13 -8 -19 -5 -6 4 -11 2 -11 -5 0 -7 -3 -10 -6
-6 -3 3 -15 -3 -27 -14 -23 -21 -52 -26 -42 -6 4 6 1 5 -7 -4 -12 -15 -43 -15
-34 0 3 4 -5 8 -17 8 -12 1 -23 7 -25 13 -2 5 -12 10 -23 10 -10 0 -19 6 -19
13 0 9 -3 8 -9 -2 -6 -9 -10 -10 -12 -2 -3 7 -14 13 -27 14 -12 0 -22 6 -22
12 0 5 -5 3 -10 -5 -8 -12 -10 -12 -10 5 0 17 -2 17 -10 5 -5 -8 -10 -10 -10
-5 0 6 -29 10 -65 10 -36 0 -65 -4 -65 -9 0 -4 -6 -3 -14 3 -11 9 -16 9 -22 0z
m106 -269 c0 10 3 11 8 4 4 -6 15 -12 25 -12 40 -4 46 -6 41 -13 -2 -4 9 -10
25 -14 16 -3 35 -12 41 -20 6 -8 17 -12 25 -9 7 3 16 0 20 -6 5 -8 11 -8 21 1
12 10 15 10 12 -1 -2 -10 10 -13 47 -11 67 4 96 8 122 16 12 4 25 6 29 5 4 -1
10 2 13 7 11 14 72 43 92 43 14 0 18 4 13 13 -5 8 -2 8 9 -2 9 -7 17 -9 17 -4
0 5 7 10 15 10 8 0 12 -4 9 -8 -2 -4 10 -9 28 -11 18 -2 32 -8 31 -14 -1 -6 6
-11 15 -11 34 0 43 -3 37 -12 -3 -5 0 -13 6 -17 8 -4 9 -3 5 4 -9 15 6 16 21
1 9 -9 29 -16 56 -18 5 -1 6 -5 3 -9 -5 -9 2 -11 48 -14 17 -1 22 -7 18 -17
-4 -10 -1 -13 12 -8 10 4 19 1 22 -6 2 -7 17 -14 32 -15 15 -1 29 -7 30 -12 2
-6 16 -10 30 -10 21 0 24 -2 12 -10 -12 -8 -9 -10 13 -10 15 0 27 -4 27 -10 0
-5 8 -10 18 -10 9 0 26 -7 36 -15 11 -8 28 -15 39 -15 10 0 15 -4 12 -10 -5
-9 24 -15 48 -11 5 1 6 -3 3 -8 -4 -5 8 -13 26 -17 29 -6 30 -8 13 -15 -13 -5
-15 -8 -5 -9 13 0 13 -2 -1 -13 -9 -7 -19 -23 -23 -35 -5 -13 -10 -21 -13 -18
-7 7 -33 -19 -33 -33 0 -6 -3 -10 -7 -10 -5 1 -15 1 -23 0 -13 -1 -13 -2 0
-11 8 -5 11 -10 5 -10 -17 0 -65 -47 -57 -55 4 -4 1 -6 -7 -3 -8 2 -27 -8 -41
-24 -15 -15 -32 -28 -39 -28 -6 0 -11 -4 -11 -10 0 -5 -7 -10 -15 -10 -9 0
-18 -7 -21 -15 -4 -8 -10 -12 -15 -9 -5 3 -12 -2 -15 -10 -3 -9 -14 -16 -23
-16 -19 -1 -53 -25 -45 -33 3 -3 -2 -4 -13 -2 -10 1 -33 -6 -50 -17 -18 -11
-38 -16 -44 -12 -8 4 -9 3 -5 -4 6 -10 -7 -17 -17 -9 -2 1 -12 -5 -22 -13 -11
-8 -16 -10 -11 -3 5 9 2 11 -8 7 -9 -3 -16 -10 -16 -15 0 -5 -10 -9 -23 -9
-13 0 -29 -6 -36 -12 -11 -11 -12 -10 -6 2 7 12 6 13 -6 4 -8 -5 -30 -11 -49
-13 -19 -2 -37 -7 -39 -13 -2 -6 -7 -4 -12 3 -7 12 -9 11 -9 -1 0 -13 -1 -13
-10 0 -6 10 -10 11 -10 3 0 -9 -17 -13 -52 -13 -29 0 -60 -4 -68 -9 -8 -6 -19
-7 -24 -3 -6 3 -53 7 -106 9 -57 2 -96 8 -99 14 -2 7 -7 6 -12 -2 -7 -12 -9
-12 -9 0 0 11 -3 11 -17 0 -11 -10 -14 -10 -9 -1 5 8 -2 12 -23 12 -17 0 -31
5 -31 11 0 8 -5 8 -15 -1 -10 -9 -15 -9 -15 -1 0 6 -13 11 -30 11 -17 0 -30 5
-30 13 0 9 -2 9 -9 -1 -7 -11 -9 -11 -14 2 -4 9 -14 13 -27 11 -11 -2 -20 0
-20 6 0 5 -5 9 -12 9 -20 0 -162 72 -171 87 -4 7 -16 13 -25 13 -10 0 -24 9
-32 20 -8 11 -18 20 -23 20 -5 0 -15 7 -24 15 -8 8 -19 12 -25 9 -6 -4 -8 -3
-5 3 7 11 -28 45 -37 36 -3 -4 -6 1 -6 10 0 16 -12 22 -35 17 -5 -1 -7 2 -3 5
4 4 -3 16 -15 26 -12 10 -18 18 -14 19 5 0 -9 17 -32 38 -22 20 -42 49 -45 64
-4 23 -1 26 20 23 15 -1 24 3 24 11 0 8 9 14 20 14 11 0 20 5 20 11 0 5 5 7
10 4 6 -3 10 -2 10 3 0 6 9 8 20 5 14 -4 20 0 20 11 0 10 4 15 9 11 5 -3 12
-1 16 5 4 6 11 8 16 5 5 -4 9 -1 9 6 0 6 8 9 20 6 11 -3 18 0 17 6 -1 6 8 13
21 15 12 2 22 8 22 13 0 5 3 8 8 8 4 -1 10 0 15 1 4 1 13 3 20 4 6 1 11 7 10
14 -2 6 4 9 12 6 8 -3 24 1 37 10 12 9 30 16 40 16 10 0 18 5 18 11 0 5 4 8 9
5 5 -3 14 1 21 9 7 8 16 13 20 10 5 -3 11 -1 15 4 3 6 12 8 20 5 8 -4 18 1 21
10 3 9 10 13 15 10 5 -3 12 2 15 11 6 13 8 14 15 3 7 -10 9 -10 9 0 0 6 9 12
19 12 11 0 23 5 27 11 4 8 9 7 15 -2 7 -11 9 -11 9 1z"/>
<path d="M4130 2977 c0 -4 -4 -5 -10 -2 -5 3 -10 1 -10 -4 0 -6 -6 -11 -14
-11 -8 0 -24 -16 -36 -35 -12 -19 -26 -33 -31 -29 -5 3 -5 -6 1 -20 6 -17 6
-26 0 -26 -15 0 -12 -17 6 -34 12 -12 12 -16 2 -16 -11 0 -11 -2 0 -9 7 -4 12
-14 10 -22 -2 -8 3 -13 10 -11 6 1 12 -2 12 -8 0 -5 7 -10 15 -10 9 0 18 -7
21 -15 4 -8 10 -13 14 -10 5 3 11 1 15 -5 4 -6 11 -7 17 -4 19 12 98 12 91 0
-3 -6 0 -5 8 2 16 14 33 16 24 2 -3 -5 -1 -10 4 -10 6 0 11 4 11 9 0 9 42 7
57 -2 5 -3 15 -2 23 3 9 5 19 5 26 -1 8 -7 14 -6 19 1 3 5 11 10 16 10 6 0 7
-4 4 -10 -3 -5 -1 -10 4 -10 6 0 11 3 11 8 0 4 27 7 59 7 38 1 57 -3 54 -10
-3 -5 0 -4 8 3 16 14 33 16 24 2 -3 -5 -1 -10 4 -10 6 0 11 4 11 9 0 9 42 7
57 -2 5 -3 15 -2 23 3 9 5 19 5 26 -1 8 -7 14 -6 19 1 3 5 11 10 16 10 6 0 7
-4 4 -10 -3 -5 -1 -10 4 -10 6 0 11 4 11 8 0 4 20 7 45 6 28 -1 51 4 60 12 7
8 21 14 30 14 9 0 13 5 10 10 -3 6 1 10 9 10 9 0 13 7 11 20 -2 11 0 22 5 25
4 3 6 15 3 28 -4 17 -3 19 6 7 8 -12 10 -11 8 7 0 12 -5 19 -11 16 -5 -4 -7 0
-4 8 3 8 0 23 -8 33 -7 11 -11 23 -8 27 3 5 -2 9 -11 9 -9 0 -13 5 -10 10 3 6
-3 10 -14 10 -12 0 -21 5 -21 11 0 5 -4 7 -10 4 -5 -3 -10 -3 -10 2 0 4 -162
8 -360 8 -198 0 -360 -3 -360 -8z"/>
<path d="M3960 1920 c-7 -4 -23 -7 -36 -5 -16 1 -26 -4 -29 -17 -4 -10 -11
-16 -16 -13 -5 4 -9 -1 -9 -10 0 -8 -7 -18 -15 -21 -8 -4 -12 -10 -9 -15 3 -6
1 -16 -6 -24 -7 -9 -8 -15 0 -20 14 -9 13 -28 -2 -19 -10 6 -10 4 0 -7 6 -7
12 -21 12 -31 0 -10 5 -18 11 -18 5 0 7 -5 4 -10 -3 -6 1 -13 9 -16 9 -3 16
-13 16 -21 0 -8 5 -11 10 -8 6 4 17 2 25 -5 20 -17 1001 -15 1022 2 11 9 16 9
22 0 4 -8 13 -1 24 18 10 16 27 35 38 40 10 6 19 16 19 23 0 7 -4 6 -10 -3 -6
-9 -10 -10 -10 -3 0 6 5 15 10 18 6 3 10 19 10 36 0 16 -4 29 -10 29 -5 0 -10
5 -10 11 0 5 6 7 13 4 6 -4 4 0 -7 9 -11 9 -15 20 -10 28 4 7 4 10 -1 6 -4 -4
-15 2 -24 13 -10 12 -30 21 -53 22 -21 1 -38 6 -38 11 0 5 -7 3 -15 -4 -11 -9
-15 -9 -15 -1 0 7 -5 9 -12 5 -17 -11 -78 -12 -78 -1 0 5 -7 4 -15 -3 -11 -9
-15 -9 -15 -1 0 7 -5 9 -12 5 -17 -11 -78 -12 -78 -1 0 5 -7 4 -15 -3 -11 -9
-15 -9 -15 -1 0 7 -5 9 -12 5 -17 -11 -78 -12 -78 -1 0 5 -7 4 -15 -3 -11 -9
-15 -9 -15 -1 0 7 -5 9 -12 4 -18 -11 -52 -10 -60 2 -5 6 -8 5 -8 -4 0 -11 -3
-11 -15 -1 -12 10 -15 10 -15 0 0 -10 -3 -10 -15 0 -12 10 -15 10 -15 0 0 -9
-3 -10 -13 -1 -10 8 -17 7 -27 -2 -10 -10 -11 -9 -5 2 6 10 4 12 -6 5 -18 -11
-41 -11 -56 0 -9 5 -13 4 -13 -4 0 -9 -3 -10 -13 -1 -10 8 -17 7 -27 -2 -10
-10 -11 -9 -5 3 7 12 6 13 -6 5 -16 -12 -39 -13 -56 -2 -8 5 -13 3 -13 -4 0
-8 -4 -9 -13 0 -10 8 -17 7 -27 -2 -10 -10 -11 -9 -5 3 7 12 6 13 -6 5 -16
-12 -39 -13 -56 -2 -8 5 -13 3 -13 -3 0 -6 -5 -8 -12 -3 -19 11 -34 12 -48 3z"/>
<path d="M1856 1313 c-6 -14 -5 -15 5 -6 7 7 10 15 7 18 -3 3 -9 -2 -12 -12z"/>
<path d="M6565 1160 c3 -5 8 -10 11 -10 2 0 4 5 4 10 0 6 -5 10 -11 10 -5 0
-7 -4 -4 -10z"/>
<path d="M6565 1040 c3 -5 8 -10 11 -10 2 0 4 5 4 10 0 6 -5 10 -11 10 -5 0
-7 -4 -4 -10z"/>
<path d="M6565 840 c3 -5 8 -10 11 -10 2 0 4 5 4 10 0 6 -5 10 -11 10 -5 0 -7
-4 -4 -10z"/>
<path d="M6565 720 c3 -5 8 -10 11 -10 2 0 4 5 4 10 0 6 -5 10 -11 10 -5 0 -7
-4 -4 -10z"/>
<path d="M6565 520 c3 -5 8 -10 11 -10 2 0 4 5 4 10 0 6 -5 10 -11 10 -5 0 -7
-4 -4 -10z"/>
<path d="M6565 400 c3 -5 8 -10 11 -10 2 0 4 5 4 10 0 6 -5 10 -11 10 -5 0 -7
-4 -4 -10z"/>
</g>
</svg>
