<?xml version="1.0" encoding="UTF-8"?>
<svg width="183px" height="191px" viewBox="0 0 183 191" version="1.1" xmlns="http://www.w3.org/2000/svg" xmlns:xlink="http://www.w3.org/1999/xlink">
    <!-- Generator: Sketch 64 (93537) - https://sketch.com -->
    <title>idena-logo-light</title>
    <desc>Created with Sketch.</desc>
    <g id="Page-1" stroke="none" stroke-width="1" fill="none" fill-rule="evenodd" stroke-linecap="round" stroke-linejoin="round">
        <g id="idena-logo-light" transform="translate(1.000000, 1.000000)" stroke="#999999">
            <path d="M11.51,0.36 L11.51,14.8 C11.4777333,16.6982554 12.1310178,18.5444943 13.35,20 L18.35,25.82" id="Path" stroke-width="2.71"></path>
            <path d="M26.13,16.55 L22.32,12.3 C21.5732946,11.4450266 21.1674867,10.3450735 21.18,9.21 L21.18,0.36" id="Path" stroke-width="2.71"></path>
            <path d="M12.39,164 L20.46,154.66 L5.24,137.09 L2.6,140.15 C-0.3902552,143.798973 -0.3902552,149.051027 2.6,152.7 L12.39,164 Z" id="Path" stroke-width="2.71"></path>
            <path d="M20.46,154.7 L12.39,145.37 L27.61,127.76 L30.25,130.81 C33.2496422,134.459374 33.2496422,139.720626 30.25,143.37 L20.46,154.7 Z" id="Path" stroke-width="2.71"></path>
            <path d="M12.39,145.37 L20.46,136 L5.24,118.42 L2.6,121.48 C-0.373898321,125.123537 -0.373898321,130.356463 2.6,134 L12.39,145.37 Z" id="Path" stroke-width="2.71"></path>
            <path d="M20.46,136 L12.39,126.67 L27.61,109.06 L30.25,112.12 C33.2480889,115.76617 33.2480889,121.02383 30.25,124.67 L20.46,136 Z" id="Path" stroke-width="2.71"></path>
            <path d="M12.39,126.7 L20.46,117.37 L5.24,99.75 L2.6,102.81 C-0.391813551,106.462175 -0.391813551,111.717825 2.6,115.37 L12.39,126.7 Z" id="Path" stroke-width="2.71"></path>
            <path d="M20.46,117.37 L12.39,108 L27.61,90.42 L30.25,93.48 C33.2480889,97.1261698 33.2480889,102.38383 30.25,106.03 L20.46,117.37 Z" id="Path" stroke-width="2.71"></path>
            <path d="M12.39,108 L20.46,98.67 L5.24,81.09 L2.6,84.09 C-0.391813551,87.7421753 -0.391813551,92.9978247 2.6,96.65 L12.39,108 Z" id="Path" stroke-width="2.71"></path>
            <path d="M20.46,98.7 L12.39,89.36 L27.61,71.75 L30.25,74.81 C33.2480889,78.4561698 33.2480889,83.7138302 30.25,87.36 L20.46,98.7 Z" id="Path" stroke-width="2.71"></path>
            <path d="M12.39,89.36 L20.46,80 L5.24,62.42 L2.6,65.48 C-0.373898321,69.1235367 -0.373898321,74.3564633 2.6,78 L12.39,89.36 Z" id="Path" stroke-width="2.71"></path>
            <path d="M20.46,80 L12.39,70.7 L27.61,53.08 L30.25,56.14 C33.2496422,59.7893745 33.2496422,65.0506255 30.25,68.7 L20.46,80 Z" id="Path" stroke-width="2.71"></path>
            <path d="M12.39,70.7 L20.46,61.36 L5.24,43.75 L2.6,46.81 C-0.3902552,50.4589732 -0.3902552,55.7110268 2.6,59.36 L12.39,70.7 Z" id="Path" stroke-width="2.71"></path>
            <path d="M20.46,61.36 L12.39,52 L27.61,34.42 L30.25,37.42 C33.2496422,41.0693745 33.2496422,46.3306255 30.25,49.98 L20.46,61.36 Z" id="Path" stroke-width="2.71"></path>
            <path d="M12.39,52 L20.46,42.66 L5.24,25.08 L2.6,28.14 C-0.3902552,31.7889732 -0.3902552,37.0410268 2.6,40.69 L12.39,52 Z" id="Path" stroke-width="2.71"></path>
            <path d="M20.46,24 L12.39,33.33 L5.13,25 C2.95453434,22.4060198 1.78653986,19.1150445 1.84,15.73 L1.84,0.36" id="Path" stroke-width="2.71"></path>
            <path d="M20.46,42.69 L12.39,33.36 L27.61,15.75 L30.25,18.81 C33.2480889,22.4561698 33.2480889,27.7138302 30.25,31.36 L20.46,42.69 Z" id="Path" stroke-width="2.71"></path>
            <path d="M27.72,15.62 C29.8790787,13.0407608 31.042709,9.77337203 31,6.41 L31,0.41" id="Path" stroke-width="2.71"></path>
            <path d="M21.34,187.7 L21.34,173.26 C21.3602456,171.378871 20.7076855,169.552412 19.5,168.11 L14.5,162.29" id="Path" stroke-width="2.71"></path>
            <path d="M6.73,171.51 L10.54,175.76 C11.2798419,176.618346 11.6815665,177.716867 11.67,178.85 L11.67,187.7" id="Path" stroke-width="2.71"></path>
            <path d="M12.39,164 L20.46,154.66 L27.72,163.07 C29.8943462,165.665266 31.0652961,168.95457 31.02,172.34 L31.02,187.7" id="Path" stroke-width="2.71"></path>
            <path d="M1.84,187.7 L1.84,181.7 C1.80071018,178.338491 2.96800899,175.074312 5.13,172.5 L12.39,164" id="Path" stroke-width="2.71"></path>
            <path d="M12.51,163.9 L27.72,146.29 L27.84,146.42 C31.9697229,151.475234 32.2272736,158.662126 28.47,164" id="Path" stroke-width="2.71"></path>
            <path d="M12,163.62 L5.23,155.79 L5.12,155.92 C1.06098411,160.88016 0.720029126,167.910327 4.28,173.24" id="Path" stroke-width="2.71"></path>
            <path d="M159.23,0.36 L159.23,14.8 C159.201427,16.6993812 159.858206,18.545461 161.08,20 L166.08,25.82" id="Path" stroke-width="2.71"></path>
            <path d="M173.85,16.55 L170,12.3 C169.253295,11.4450266 168.847487,10.3450735 168.86,9.21 L168.86,0.36" id="Path" stroke-width="2.71"></path>
            <path d="M160.12,164 L168.18,154.66 L153,137.09 L150.36,140.15 C147.361911,143.79617 147.361911,149.05383 150.36,152.7 L160.12,164 Z" id="Path" stroke-width="2.71"></path>
            <path d="M168.18,154.7 L160.12,145.37 L175.33,127.76 L177.97,130.81 C180.969642,134.459374 180.969642,139.720626 177.97,143.37 L168.18,154.7 Z" id="Path" stroke-width="2.71"></path>
            <path d="M160.12,145.37 L168.18,136.03 L153,118.42 L150.36,121.48 C147.361911,125.12617 147.361911,130.38383 150.36,134.03 L160.12,145.37 Z" id="Path" stroke-width="2.71"></path>
            <path d="M168.18,136 L160.12,126.67 L175.33,109.06 L177.97,112.12 C180.968089,115.76617 180.968089,121.02383 177.97,124.67 L168.18,136 Z" id="Path" stroke-width="2.71"></path>
            <path d="M160.12,126.7 L168.18,117.37 L153,99.75 L150.36,102.81 C147.360358,106.459374 147.360358,111.720626 150.36,115.37 L160.12,126.7 Z" id="Path" stroke-width="2.71"></path>
            <path d="M168.18,117.37 L160.12,108 L175.33,90.39 L178,93.48 C180.981677,97.1207617 180.981677,102.359238 178,106 L168.18,117.37 Z" id="Path" stroke-width="2.71"></path>
            <path d="M160.12,108 L168.18,98.67 L153,81.09 L150.36,84.09 C147.360358,87.7393745 147.360358,93.0006255 150.36,96.65 L160.12,108 Z" id="Path" stroke-width="2.71"></path>
            <path d="M168.18,98.7 L160.12,89.36 L175.33,71.75 L178,74.81 C180.998089,78.4561698 180.998089,83.7138302 178,87.36 L168.18,98.7 Z" id="Path" stroke-width="2.71"></path>
            <path d="M160.12,89.36 L168.18,80 L153,62.42 L150.36,65.48 C147.361911,69.1261698 147.361911,74.3838302 150.36,78.03 L160.12,89.36 Z" id="Path" stroke-width="2.71"></path>
            <path d="M168.18,80 L160.12,70.67 L175.33,53.05 L178,56.14 C180.999642,59.7893745 180.999642,65.0506255 178,68.7 L168.18,80 Z" id="Path" stroke-width="2.71"></path>
            <path d="M160.12,70.7 L168.18,61.36 L153,43.75 L150.36,46.81 C147.361911,50.4561698 147.361911,55.7138302 150.36,59.36 L160.12,70.7 Z" id="Path" stroke-width="2.71"></path>
            <path d="M168.18,61.36 L160.12,52 L175.33,34.39 L177.97,37.39 C181.005847,41.0411118 181.01844,46.3344847 178,50 L168.18,61.36 Z" id="Path" stroke-width="2.71"></path>
            <path d="M160.12,52 L168.18,42.66 L153,25.08 L150.36,28.14 C147.361911,31.7861698 147.361911,37.0438302 150.36,40.69 L160.12,52 Z" id="Path" stroke-width="2.71"></path>
            <path d="M168.18,24 L160.12,33.33 L152.85,25 C150.674534,22.4060198 149.50654,19.1150445 149.56,15.73 L149.56,0.36" id="Path" stroke-width="2.71"></path>
            <path d="M168.18,42.69 L160.12,33.36 L175.33,15.75 L178,18.81 C180.998089,22.4561698 180.998089,27.7138302 178,31.36 L168.18,42.69 Z" id="Path" stroke-width="2.71"></path>
            <path d="M175.45,15.62 C177.609567,13.0403874 178.776371,9.77404621 178.74,6.41 L178.74,0.41" id="Path" stroke-width="2.71"></path>
            <path d="M169.07,187.7 L169.07,173.26 C169.086566,171.377756 168.430514,169.551449 167.22,168.11 L162.22,162.29" id="Path" stroke-width="2.71"></path>
            <path d="M154.45,171.51 L158.26,175.76 C159.006705,176.614973 159.412513,177.714926 159.4,178.85 L159.4,187.7" id="Path" stroke-width="2.71"></path>
            <path d="M160.12,164 L168.18,154.66 L175.45,163.07 C177.621527,165.666231 178.788984,168.955691 178.74,172.34 L178.74,187.7" id="Path" stroke-width="2.71"></path>
            <path d="M149.56,187.7 L149.56,181.7 C149.525138,178.339234 150.691904,175.076545 152.85,172.5 L160.12,164.09" id="Path" stroke-width="2.71"></path>
            <path d="M160.23,163.9 L175.45,146.29 L175.56,146.42 C179.689422,151.47422 179.95098,158.658894 176.2,164" id="Path" stroke-width="2.71"></path>
            <path d="M159.73,163.62 L153,155.79 L152.88,155.92 C148.820984,160.88016 148.480029,167.910327 152.04,173.24" id="Path" stroke-width="2.71"></path>
            <polyline id="Path" stroke-width="2.71" points="40.85 187.71 40.85 24.12 46.07 24.12"></polyline>
            <polyline id="Path" stroke-width="2.71" points="134.05 24.12 139.89 24.12 139.89 187.71"></polyline>
            <polyline id="Path" stroke-width="2.71" points="82.67 168.92 89.67 168.92 96.66 168.92"></polyline>
            <polyline id="Path" stroke-width="2.71" points="85.52 153.08 93.25 153.08 95.23 153.08"></polyline>
            <path d="M95.88,145.94 C94.36,145.31 92.68,146.16 91.95,146.58 C91.457833,146.825742 90.9195573,146.965421 90.37,146.99 C89.8234822,146.966422 89.2882631,146.826651 88.8,146.58 C88.06,146.16 86.38,145.31 84.86,145.94 C80.858325,147.601127 76.9492974,149.477193 73.15,151.56 C76.7244004,157.682292 83.280656,161.446384 90.37,161.446384 C97.459344,161.446384 104.0156,157.682292 107.59,151.56 C103.790703,149.477193 99.881675,147.601127 95.88,145.94 L95.88,145.94 Z" id="Path" stroke-width="2.71"></path>
            <path d="M40.8499771,53.06 L40.8499771,122.79 C40.8367653,137.819042 46.5594217,152.286632 56.85,163.24 L72.76,180.1 C77.3319955,184.951654 83.70354,187.701441 90.37,187.700013 L90.37,187.700013 C97.0434102,187.706956 103.423239,184.956718 108,180.1 L123.87,163.24 C134.160578,152.286632 139.883235,137.819042 139.870023,122.79 L139.870023,52.3" id="Path" stroke-width="2.71"></path>
            <path d="M40.85,67.27 L40.85,67.27 C40.85,78.9784367 50.3415633,88.47 62.05,88.47 L65.13,88.47 C76.0999939,88.4699986 84.9944791,97.3600075 85,108.33 L85,129.45" id="Path" stroke-width="2.71"></path>
            <path d="M95.74,129.45 L95.74,108.33 C95.7455209,97.3600075 104.640006,88.4699986 115.61,88.47 L118.69,88.47 C130.398437,88.47 139.89,78.9784367 139.89,67.27 L139.89,67.27" id="Path" stroke-width="2.71"></path>
            <path d="M140,106.46 L140,106.68 C140,117.09 134.4,126.98 124.64,134.13" id="Path" stroke-width="2.42"></path>
            <path d="M40.85,106.46 L40.85,106.68 C40.85,117.09 46.45,126.98 56.22,134.13" id="Path" stroke-width="2.42"></path>
            <path d="M116.45,97.45 L130.69,97.45 L130.69,97.45 C130.69,103.91108 125.461058,109.153461 119,109.17 L104.72,109.17 L104.72,109.17 C104.72,102.697223 109.967223,97.45 116.44,97.45 L116.45,97.45 Z" id="Path" stroke-width="2.71" transform="translate(117.705000, 103.310000) rotate(180.000000) translate(-117.705000, -103.310000) "></path>
            <path d="M50.05,97.45 L64.3,97.45 C70.7649654,97.4610324 76,102.705025 76,109.17 L76,109.17 L61.77,109.17 C55.2972227,109.17 50.05,103.922777 50.05,97.45 L50.05,97.45 Z" id="Path" stroke-width="2.71"></path>
            <path d="M138.47,74.25 C126.16,64.78 108.63,59.35 90.37,59.35 C72.11,59.35 54.57,64.78 42.26,74.25" id="Path" stroke-width="2.71"></path>
            <path d="M139.24,67.11 C125.6,58.11 108.24,53.11 90.38,53.11 C72.52,53.11 55.27,58.11 41.64,67.01" id="Path" stroke-width="2.71"></path>
            <path d="M71.52,61.86 C76.81,67.41 83.52,70.53 90.52,70.53 C97.52,70.53 104.13,67.43 109.42,61.91" id="Path" stroke-width="2.71"></path>
            <line x1="115.32" y1="172.58" x2="115.32" y2="187.7" id="Path" stroke-width="2.71"></line>
            <line x1="123.63" y1="163.98" x2="123.63" y2="187.7" id="Path" stroke-width="2.71"></line>
            <line x1="131.95" y1="187.7" x2="131.95" y2="153.32" id="Path" stroke-width="2.71"></line>
            <line x1="65.5" y1="172.58" x2="65.5" y2="187.7" id="Path" stroke-width="2.71"></line>
            <line x1="57.18" y1="163.98" x2="57.18" y2="187.7" id="Path" stroke-width="2.71"></line>
            <line x1="48.86" y1="187.7" x2="48.86" y2="153.32" id="Path" stroke-width="2.71"></line>
            <path d="M74.41,48.42 C74.41,48.68 74.41,48.94 74.41,49.2 C78.8091228,51.7817917 83.8192302,53.1387677 88.92,53.1300422 C104.43,53.1300422 117.01,40.89 117.01,25.79 C117.01,25.52 117.01,25.26 117.01,25 C112.610877,22.4182083 107.60077,21.0612323 102.5,21.0699578 C87,21.0699578 74.41,33.32 74.41,48.42 Z" id="Path" stroke-width="2.71"></path>
            <path d="M74.43,49.2 C74.43,48.94 74.43,48.68 74.43,48.42 C74.4692049,39.6653389 78.7383699,31.4697341 85.89,26.42 C80.5402379,21.0691747 73.2764146,18.0743774 65.71,18.0998369 C64.4492682,18.1022764 63.189993,18.1857827 61.94,18.35 C61.2316033,20.7802313 60.8713515,23.2986272 60.87,25.83 C60.9355741,36.0722011 66.7430166,45.4112487 75.9,50 C75.4,49.75 74.91,49.48 74.43,49.2 Z" id="Path" stroke-width="2.71"></path>
            <path d="M88.94,0.82 C88.94,0.82 79.82,8.64 75.4,19.74 C79.3387639,21.1504558 82.9149361,23.4184389 85.87,26.38 L85.08,26.98 C90.0720008,23.1353191 96.1990902,21.0566108 102.5,21.07 L102.99,21.07 C98.8,9.28 88.94,0.82 88.94,0.82 Z" id="Path" stroke-width="2.71"></path>
            <path d="M75.4,19.74 L75.4,19.74 C77.2896708,15.162477 79.8511532,10.8922161 83,7.07 C78.3985468,4.12198885 73.2371118,2.15751128 67.84,1.3 C66.7801661,6.92553383 67.0576294,12.7214334 68.65,18.22 C70.9534765,18.4500628 73.2202473,18.960506 75.4,19.74 L75.4,19.74 Z" id="Path" stroke-width="2.71"></path>
            <path d="M103,21.09 L102.51,21.09 C105.387333,21.0898072 108.248675,21.5178288 111,22.36 C116.17,13.05 113.6,1.3 113.6,1.3 C113.6,1.3 103.47,2.6 96.16,8.75 C99.0490732,12.4949776 101.35515,16.6553558 103,21.09 L103,21.09 Z" id="Path" stroke-width="2.71"></path>
            <path d="M129.67,36.66 C131.747082,38.5151618 133.557571,40.6487131 135.05,43 C136.861526,45.6698128 138.213528,48.6239383 139.05,51.74" id="Path" stroke-width="2.71"></path>
            <path d="M114.71,7.7 C119.564031,4.64522738 124.835613,2.31091046 130.36,0.77 C130.36,0.77 138.21,19.92 130.36,34.9 C126.98,41.34 123.99,44.2 121.06,45.06" id="Path" stroke-width="2.71"></path>
            <path d="M51,36.66 C48.9252902,38.5174727 47.1150946,40.6506771 45.62,43 C43.8043282,45.667477 42.451994,48.6223273 41.62,51.74" id="Path" stroke-width="2.71"></path>
            <path d="M66,7.7 C61.1344174,4.64007145 55.8488782,2.30554078 50.31,0.77 C50.31,0.77 42.45,19.92 50.31,34.9 C53.69,41.34 56.67,44.2 59.6,45.06" id="Path" stroke-width="2.71"></path>
            <line x1="139.89" y1="0.36" x2="139.89" y2="24.12" id="Path" stroke-width="2.71"></line>
            <line x1="40.85" y1="0.36" x2="40.85" y2="24.12" id="Path" stroke-width="2.71"></line>
            <path d="M111.09,43 C120.746163,44.8327216 130.073102,48.1023748 138.76,52.7" id="Path" stroke-width="2.71"></path>
            <path d="M41.32,53.06 C49.4005276,48.6797207 58.0644032,45.4741204 67.05,43.54" id="Path" stroke-width="2.71"></path>
            <path d="M104.91,48.1 C117.037317,49.704924 128.750636,53.5935289 139.43,59.56" id="Path" stroke-width="2.71"></path>
            <path d="M40.9,59.8 C50.9427095,54.1023709 61.9327946,50.2673597 73.34,48.48" id="Path" stroke-width="2.71"></path>
        </g>
    </g>
</svg>