<svg id="Layer_1" data-name="Layer 1" xmlns="http://www.w3.org/2000/svg" viewBox="0 0 182.58 190.06"><defs><style>.cls-1,.cls-2,.cls-3{fill:none;stroke:#000;stroke-linecap:round;stroke-linejoin:round;}.cls-1{stroke-width:2.71px;}.cls-2{stroke-width:2.71px;}.cls-3{stroke-width:2.42px;}</style></defs><title>Artboard 16</title><path class="cls-1" d="M12.51,1.36V15.8A7.89,7.89,0,0,0,14.35,21l5,5.82"/><path class="cls-1" d="M27.13,17.55,23.32,13.3a4.62,4.62,0,0,1-1.14-3.09V1.36"/><path class="cls-1" d="M13.39,165l8.07-9.34L6.24,138.09,3.6,141.15a9.9,9.9,0,0,0,0,12.55Z"/><path class="cls-1" d="M21.46,155.7l-8.07-9.33,15.22-17.61,2.64,3.05a9.89,9.89,0,0,1,0,12.56Z"/><path class="cls-1" d="M13.39,146.37,21.46,137,6.24,119.42,3.6,122.48A9.9,9.9,0,0,0,3.6,135Z"/><path class="cls-1" d="M21.46,137l-8.07-9.33,15.22-17.61,2.64,3.06a9.88,9.88,0,0,1,0,12.55Z"/><path class="cls-1" d="M13.39,127.7l8.07-9.33L6.24,100.75,3.6,103.81a9.91,9.91,0,0,0,0,12.56Z"/><path class="cls-1" d="M21.46,118.37,13.39,109,28.61,91.42l2.64,3.06a9.88,9.88,0,0,1,0,12.55Z"/><path class="cls-1" d="M13.39,109l8.07-9.33L6.24,82.09l-2.64,3a9.91,9.91,0,0,0,0,12.56Z"/><path class="cls-1" d="M21.46,99.7l-8.07-9.34L28.61,72.75l2.64,3.06a9.88,9.88,0,0,1,0,12.55Z"/><path class="cls-1" d="M13.39,90.36,21.46,81,6.24,63.42,3.6,66.48A9.9,9.9,0,0,0,3.6,79Z"/><path class="cls-1" d="M21.46,81,13.39,71.7,28.61,54.08l2.64,3.06a9.89,9.89,0,0,1,0,12.56Z"/><path class="cls-1" d="M13.39,71.7l8.07-9.34L6.24,44.75,3.6,47.81a9.9,9.9,0,0,0,0,12.55Z"/><path class="cls-1" d="M21.46,62.36,13.39,53,28.61,35.42l2.64,3a9.89,9.89,0,0,1,0,12.56Z"/><path class="cls-1" d="M13.39,53l8.07-9.34L6.24,26.08,3.6,29.14a9.9,9.9,0,0,0,0,12.55Z"/><path class="cls-1" d="M21.46,25l-8.07,9.33L6.13,26a14.08,14.08,0,0,1-3.29-9.27V1.36"/><path class="cls-1" d="M21.46,43.69l-8.07-9.33L28.61,16.75l2.64,3.06a9.88,9.88,0,0,1,0,12.55Z"/><path class="cls-1" d="M28.72,16.62A14.07,14.07,0,0,0,32,7.41v-6"/><path class="cls-1" d="M22.34,188.7V174.26a7.89,7.89,0,0,0-1.84-5.15l-5-5.82"/><path class="cls-1" d="M7.73,172.51l3.81,4.25a4.66,4.66,0,0,1,1.13,3.09v8.85"/><path class="cls-1" d="M13.39,165l8.07-9.34,7.26,8.41a14.14,14.14,0,0,1,3.3,9.27V188.7"/><path class="cls-1" d="M2.84,188.7v-6a14.05,14.05,0,0,1,3.29-9.2L13.39,165"/><path class="cls-1" d="M13.51,164.9l15.21-17.61.12.13A14.55,14.55,0,0,1,29.47,165"/><path class="cls-1" d="M13,164.62l-6.77-7.83-.11.13a14.57,14.57,0,0,0-.84,17.32"/><path class="cls-1" d="M160.23,1.36V15.8A7.9,7.9,0,0,0,162.08,21l5,5.82"/><path class="cls-1" d="M174.85,17.55,171,13.3a4.62,4.62,0,0,1-1.14-3.09V1.36"/><path class="cls-1" d="M161.12,165l8.06-9.34L154,138.09l-2.64,3.06a9.88,9.88,0,0,0,0,12.55Z"/><path class="cls-1" d="M169.18,155.7l-8.06-9.33,15.21-17.61,2.64,3.05a9.89,9.89,0,0,1,0,12.56Z"/><path class="cls-1" d="M161.12,146.37l8.06-9.34L154,119.42l-2.64,3.06a9.88,9.88,0,0,0,0,12.55Z"/><path class="cls-1" d="M169.18,137l-8.06-9.33,15.21-17.61,2.64,3.06a9.88,9.88,0,0,1,0,12.55Z"/><path class="cls-1" d="M161.12,127.7l8.06-9.33L154,100.75l-2.64,3.06a9.89,9.89,0,0,0,0,12.56Z"/><path class="cls-1" d="M169.18,118.37,161.12,109l15.21-17.61L179,94.48A9.88,9.88,0,0,1,179,107Z"/><path class="cls-1" d="M161.12,109l8.06-9.33L154,82.09l-2.64,3a9.89,9.89,0,0,0,0,12.56Z"/><path class="cls-1" d="M169.18,99.7l-8.06-9.34,15.21-17.61L179,75.81a9.88,9.88,0,0,1,0,12.55Z"/><path class="cls-1" d="M161.12,90.36,169.18,81,154,63.42l-2.64,3.06a9.88,9.88,0,0,0,0,12.55Z"/><path class="cls-1" d="M169.18,81l-8.06-9.33,15.21-17.62L179,57.14a9.89,9.89,0,0,1,0,12.56Z"/><path class="cls-1" d="M161.12,71.7l8.06-9.34L154,44.75l-2.64,3.06a9.88,9.88,0,0,0,0,12.55Z"/><path class="cls-1" d="M169.18,62.36,161.12,53l15.21-17.61,2.64,3A9.89,9.89,0,0,1,179,51Z"/><path class="cls-1" d="M161.12,53l8.06-9.34L154,26.08l-2.64,3.06a9.88,9.88,0,0,0,0,12.55Z"/><path class="cls-1" d="M169.18,25l-8.06,9.33L153.85,26a14.08,14.08,0,0,1-3.29-9.27V1.36"/><path class="cls-1" d="M169.18,43.69l-8.06-9.33,15.21-17.61L179,19.81a9.88,9.88,0,0,1,0,12.55Z"/><path class="cls-1" d="M176.45,16.62a14.11,14.11,0,0,0,3.29-9.21v-6"/><path class="cls-1" d="M170.07,188.7V174.26a7.9,7.9,0,0,0-1.85-5.15l-5-5.82"/><path class="cls-1" d="M155.45,172.51l3.81,4.25a4.62,4.62,0,0,1,1.14,3.09v8.85"/><path class="cls-1" d="M161.12,165l8.06-9.34,7.27,8.41a14.13,14.13,0,0,1,3.29,9.27V188.7"/><path class="cls-1" d="M150.56,188.7v-6a14.1,14.1,0,0,1,3.29-9.2l7.27-8.41"/><path class="cls-1" d="M161.23,164.9l15.22-17.61.11.13A14.56,14.56,0,0,1,177.2,165"/><path class="cls-1" d="M160.73,164.62,154,156.79l-.12.13a14.57,14.57,0,0,0-.84,17.32"/><polyline class="cls-1" points="41.85 188.71 41.85 25.12 47.07 25.12"/><polyline class="cls-2" points="135.05 25.12 140.89 25.12 140.89 188.71"/><polyline class="cls-1" points="83.67 169.92 90.67 169.92 97.66 169.92"/><polyline class="cls-1" points="86.52 154.08 94.25 154.08 96.23 154.08"/><path class="cls-1" d="M96.88,146.94c-1.52-.63-3.2.22-3.93.64a3.93,3.93,0,0,1-1.58.41,3.85,3.85,0,0,1-1.57-.41c-.74-.42-2.42-1.27-3.94-.64a120.32,120.32,0,0,0-11.71,5.62,19.94,19.94,0,0,0,34.44,0A120.32,120.32,0,0,0,96.88,146.94Z"/><path class="cls-1" d="M41.85,54.06v69.73a59,59,0,0,0,16,40.45L73.76,181.1a24.19,24.19,0,0,0,17.61,7.6h0A24.19,24.19,0,0,0,109,181.1l15.87-16.86a59,59,0,0,0,16-40.45V53.3"/><path class="cls-1" d="M41.85,68.27h0a21.2,21.2,0,0,0,21.2,21.2h3.08A19.87,19.87,0,0,1,86,109.33v21.12"/><path class="cls-1" d="M96.74,130.45V109.33a19.87,19.87,0,0,1,19.87-19.86h3.08a21.2,21.2,0,0,0,21.2-21.2h0"/><path class="cls-3" d="M141,107.46v.22c0,10.41-5.6,20.3-15.36,27.45"/><path class="cls-3" d="M41.85,107.46v.22c0,10.41,5.6,20.3,15.37,27.45"/><path class="cls-1" d="M117.45,98.45h14.24a0,0,0,0,1,0,0v0A11.72,11.72,0,0,1,120,110.17H105.72a0,0,0,0,1,0,0v0a11.72,11.72,0,0,1,11.72-11.72Z" transform="translate(237.41 208.62) rotate(180)"/><path class="cls-1" d="M51.05,98.45H65.3A11.72,11.72,0,0,1,77,110.17v0a0,0,0,0,1,0,0H62.77A11.72,11.72,0,0,1,51.05,98.45v0A0,0,0,0,1,51.05,98.45Z"/><path class="cls-1" d="M139.47,75.25c-12.31-9.47-29.84-14.9-48.1-14.9s-35.8,5.43-48.11,14.9"/><path class="cls-1" d="M140.24,68.11c-13.64-9-31-14-48.86-14s-35.11,5-48.74,13.9"/><path class="cls-1" d="M72.52,62.86c5.29,5.55,12,8.67,19,8.67s13.61-3.1,18.9-8.62"/><line class="cls-1" x1="116.32" y1="173.58" x2="116.32" y2="188.7"/><line class="cls-1" x1="124.63" y1="164.98" x2="124.63" y2="188.7"/><line class="cls-1" x1="132.95" y1="188.7" x2="132.95" y2="154.32"/><line class="cls-1" x1="66.5" y1="173.58" x2="66.5" y2="188.7"/><line class="cls-1" x1="58.18" y1="164.98" x2="58.18" y2="188.7"/><line class="cls-1" x1="49.86" y1="188.7" x2="49.86" y2="154.32"/><path class="cls-1" d="M75.41,49.42c0,.26,0,.52,0,.78a28.57,28.57,0,0,0,14.51,3.93c15.51,0,28.09-12.24,28.09-27.34,0-.27,0-.53,0-.79a28.57,28.57,0,0,0-14.51-3.93C88,22.07,75.41,34.32,75.41,49.42Z"/><path class="cls-1" d="M75.43,50.2c0-.26,0-.52,0-.78a27.08,27.08,0,0,1,11.46-22,28.4,28.4,0,0,0-20.18-8.32,29.35,29.35,0,0,0-3.77.25,26.78,26.78,0,0,0-1.07,7.48A27.23,27.23,0,0,0,76.9,51C76.4,50.75,75.91,50.48,75.43,50.2Z"/><path class="cls-1" d="M89.94,1.82S80.82,9.64,76.4,20.74a28.24,28.24,0,0,1,10.47,6.64l-.79.6a28.45,28.45,0,0,1,17.42-5.91l.49,0C99.8,10.28,89.94,1.82,89.94,1.82Z"/><path class="cls-1" d="M76.4,20.74h0A49.83,49.83,0,0,1,84,8.07,39.63,39.63,0,0,0,68.84,2.3a36.52,36.52,0,0,0,.81,16.92A28.44,28.44,0,0,1,76.4,20.74Z"/><path class="cls-1" d="M104,22.09l-.49,0A29,29,0,0,1,112,23.36c5.17-9.31,2.6-21.06,2.6-21.06S104.47,3.6,97.16,9.75A46.91,46.91,0,0,1,104,22.09Z"/><path class="cls-1" d="M130.67,37.66A30.2,30.2,0,0,1,136.05,44a28.92,28.92,0,0,1,4,8.74"/><path class="cls-1" d="M115.71,8.7a59.29,59.29,0,0,1,15.65-6.93s7.85,19.15,0,34.13c-3.38,6.44-6.37,9.3-9.3,10.16"/><path class="cls-1" d="M52,37.66A30.46,30.46,0,0,0,46.62,44a28.67,28.67,0,0,0-4,8.74"/><path class="cls-1" d="M67,8.7A59.16,59.16,0,0,0,51.31,1.77s-7.86,19.15,0,34.13c3.38,6.44,6.36,9.3,9.29,10.16"/><line class="cls-1" x1="140.89" y1="1.36" x2="140.89" y2="25.12"/><line class="cls-1" x1="41.85" y1="1.36" x2="41.85" y2="25.12"/><path class="cls-1" d="M112.09,44a98.36,98.36,0,0,1,27.67,9.7"/><path class="cls-1" d="M42.32,54.06a96.68,96.68,0,0,1,25.73-9.52"/><path class="cls-1" d="M105.91,49.1a96.82,96.82,0,0,1,34.52,11.46"/><path class="cls-1" d="M41.9,60.8A95.79,95.79,0,0,1,74.34,49.48"/></svg>